<?xml version="1.0" standalone="no"?>
<!DOCTYPE svg PUBLIC "-//W3C//DTD SVG 1.1//EN" "http://www.w3.org/Graphics/SVG/1.1/DTD/svg11.dtd" >
<svg xmlns="http://www.w3.org/2000/svg" xmlns:xlink="http://www.w3.org/1999/xlink" version="1.1">
<metadata>
Created by FontForge 20170812 at Sat Oct 29 06:02:57 2022
 By www-data
</metadata>
<defs>
<font id="AsianRegular" horiz-adv-x="419" >
  <font-face 
    font-family="Asian"
    font-weight="400"
    font-stretch="normal"
    units-per-em="1000"
    panose-1="0 0 0 0 0 0 0 0 0 0"
    ascent="800"
    descent="-200"
    x-height="340.868"
    cap-height="698.591"
    bbox="-137.996 -326.21 969.962 861.27"
    underline-thickness="50"
    underline-position="-100"
    unicode-range="U+000A-20AC"
  />
<missing-glyph horiz-adv-x="527" 
d="M50 700h427v-700h-427v700zM78 680l185 -309l186 309h-371zM251 350l-180 300v-601zM264 329l-185 -308h370zM276 350l181 -303v605z" />
    <glyph glyph-name=".notdef" horiz-adv-x="527" 
d="M50 700h427v-700h-427v700zM78 680l185 -309l186 309h-371zM251 350l-180 300v-601zM264 329l-185 -308h370zM276 350l181 -303v605z" />
    <glyph glyph-name=".null" horiz-adv-x="0" 
 />
    <glyph glyph-name=".null" horiz-adv-x="0" 
 />
    <glyph glyph-name="LF" unicode="&#xa;" horiz-adv-x="0" 
 />
    <glyph glyph-name="controlCR" unicode="&#xd;" horiz-adv-x="0" 
 />
    <glyph glyph-name="space" unicode=" " horiz-adv-x="324" 
 />
    <glyph glyph-name="exclam" unicode="!" horiz-adv-x="202" 
d="M150.338 663.974c3.78027 -24.6562 0.592773 -51.2051 -0.166016 -76.0654c-0.780273 -25.3604 -1.49512 -50.7236 -2.15527 -76.0869c-1.25391 -48.3135 -2.28613 -96.6348 -3.10254 -144.959c-1.66992 -99.085 -2.20605 -198.185 -3.31055 -297.276
c-0.393555 -35.3096 -89.9922 -34.8721 -89.6055 0c1.11523 100.356 4.60742 200.63 8.84375 300.899c2.09668 49.5391 4.41895 99.0664 6.9707 148.583c1.30469 25.3633 2.67188 50.7236 4.10059 76.084c1.39648 24.7656 1.63379 50.1475 7.65332 74.2822
c3.41992 13.7188 28.9844 15.458 39.5312 14.7109c12.5703 -0.889648 29.0381 -5.79688 31.2402 -20.1719zM135.528 -70.7422c1.41504 -10.2266 0.783203 -20.7627 2.07422 -31.0732c0.962891 -7.72949 -6.97754 -13.7412 -12.5996 -17.332
c-8.78223 -5.61035 -20.2119 -6.92285 -30.4092 -7.18164c-15.7568 -0.401367 -40.9307 5.71582 -43.0088 24.5137c-1.10059 9.96777 -2.5918 21.1602 -0.612305 31.0732c1.62988 8.16699 5.53809 12.6699 12.3809 17.041c8.63281 5.51562 19.8691 6.80273 29.8945 7.05762
c15.8701 0.404297 39.7314 -5.65137 42.2803 -24.0986z" />
    <glyph glyph-name="quotedbl" unicode="&#x22;" horiz-adv-x="258" 
d="M79.8574 530.331c11.3271 0 27.8955 -3.80762 29.8496 -17.0166c2.68359 -18.1445 4.89648 -36.209 6.66504 -54.4629c1.3418 -13.8867 -22.5303 -18.0352 -31.6445 -18.0352c-11.3203 0 -30.4932 3.99219 -31.6455 18.0361
c-1.49512 18.1738 -2.51562 36.2383 -3.07715 54.4639c-0.404297 13.2158 20.5264 17.0146 29.8525 17.0146zM207.352 460.532c2.89062 -13.9082 -24.3711 -18.4912 -32.4463 -18.4912c-12.7637 0 -29.709 4.19629 -32.4395 18.4912
c-3.48145 18.2324 -6.14648 37.6025 -3.21484 56.0576c3.80664 23.9561 59.7695 24.7949 62.0918 0c1.76855 -18.874 2.12988 -37.3838 6.00879 -56.0576z" />
    <glyph glyph-name="quotedbl" unicode="&#x201d;" horiz-adv-x="258" 
d="M79.8574 530.331c11.3271 0 27.8955 -3.80762 29.8496 -17.0166c2.68359 -18.1445 4.89648 -36.209 6.66504 -54.4629c1.3418 -13.8867 -22.5303 -18.0352 -31.6445 -18.0352c-11.3203 0 -30.4932 3.99219 -31.6455 18.0361
c-1.49512 18.1738 -2.51562 36.2383 -3.07715 54.4639c-0.404297 13.2158 20.5264 17.0146 29.8525 17.0146zM207.352 460.532c2.89062 -13.9082 -24.3711 -18.4912 -32.4463 -18.4912c-12.7637 0 -29.709 4.19629 -32.4395 18.4912
c-3.48145 18.2324 -6.14648 37.6025 -3.21484 56.0576c3.80664 23.9561 59.7695 24.7949 62.0918 0c1.76855 -18.874 2.12988 -37.3838 6.00879 -56.0576z" />
    <glyph glyph-name="quotedbl" unicode="&#x201c;" horiz-adv-x="258" 
d="M79.8574 530.331c11.3271 0 27.8955 -3.80762 29.8496 -17.0166c2.68359 -18.1445 4.89648 -36.209 6.66504 -54.4629c1.3418 -13.8867 -22.5303 -18.0352 -31.6445 -18.0352c-11.3203 0 -30.4932 3.99219 -31.6455 18.0361
c-1.49512 18.1738 -2.51562 36.2383 -3.07715 54.4639c-0.404297 13.2158 20.5264 17.0146 29.8525 17.0146zM207.352 460.532c2.89062 -13.9082 -24.3711 -18.4912 -32.4463 -18.4912c-12.7637 0 -29.709 4.19629 -32.4395 18.4912
c-3.48145 18.2324 -6.14648 37.6025 -3.21484 56.0576c3.80664 23.9561 59.7695 24.7949 62.0918 0c1.76855 -18.874 2.12988 -37.3838 6.00879 -56.0576z" />
    <glyph glyph-name="numbersign" unicode="#" horiz-adv-x="572" 
d="M501.592 274.723c6.36523 0.12793 20.085 -2.65918 20.0811 -11.4307c0 -8.99023 -13.4492 -11.2979 -20.0811 -11.4473c-27.1787 -0.601562 -54.3467 -1.52734 -81.5078 -2.625c-0.157227 -6.11719 -0.314453 -12.2383 -0.427734 -18.3594
c-0.444336 -24.0654 -0.499023 -48.1133 -0.393555 -72.1611c9.30762 0.00390625 18.626 -0.15625 27.9629 -0.557617c20.1533 -0.864258 20.3105 -19.8984 0 -19.0273c-9.31152 0.397461 -18.6084 0.557617 -27.8945 0.553711
c0.294922 -31.7295 0.947266 -63.4551 1.79688 -95.1953c0.813477 -30.4131 1.81934 -60.7969 2.86523 -91.1992c0.481445 -14 0.670898 -28.0029 1.19922 -42.0029c0.30957 -8.15234 0.713867 -16.3008 0.841797 -24.46
c0.0292969 -1.7168 0.72168 -13.4268 -0.689453 -17.0283c6.06641 -6.30762 5.04199 -13.8252 -0.525391 -20.1357c-0.397461 -0.452148 -0.798828 -0.904297 -1.19629 -1.35645c-14.167 -16.0635 -47.3838 -12.4033 -62.2217 0
c-9.13965 7.6377 -9.58398 23.9492 -11.9463 35.0283c-3.44922 16.1758 -5.81934 32.5781 -8.22949 48.9404c-4.45117 30.2266 -6.99609 60.6982 -9.41309 91.1475c-2.93164 36.8984 -4.54297 73.9609 -5.46582 111.035
c-23.1143 -2.32617 -46.1924 -5.20605 -69.2666 -8.19531c-0.229492 -40.7812 0.273438 -81.5771 1.42188 -122.326c1.57129 -55.8096 6.78809 -111.714 6.99219 -167.541c2.82227 -3.74023 3.8252 -8.18848 1.15332 -13.2305
c-1.80078 -3.40527 -4.25098 -6.47168 -6.88672 -9.26758c-18.083 -19.1953 -72.54 -17.5293 -78.8984 12.1797c-12.4502 58.1611 -15.5742 118.582 -18.7969 177.858c-2.00195 36.7529 -3.04785 73.5205 -3.30273 110.303
c-24.5215 -2.50098 -49.0869 -4.39355 -73.7393 -5.11523c-20.416 -0.597656 -20.0879 18.4404 0 19.0273c24.6416 0.717773 49.1924 2.61035 73.6885 5.10742c0.00683594 16.3291 0.149414 32.6582 0.444336 48.9912c0.288086 15.834 0.704102 31.6748 1.23633 47.5088
c-27.8281 -3.01172 -55.6562 -6.07422 -83.543 -8.82715c-7.51367 -0.740234 -22.6514 -0.561523 -26.1875 8.47656c-3.53613 9.04492 7.91895 13.7119 14.8711 14.9297c5.36328 0.94043 11.3682 4.25488 16.3662 6.37695c5.73438 2.42773 15.8516 2.31152 21.9287 -1.20312
c19.1406 2.43945 38.3389 4.64844 57.585 6.64648c4.03613 94.2178 12.7314 188.26 27.8828 281.329c3.54004 21.751 30.1396 27.9268 48.9922 27.9268c14.1094 0 51.748 -6.60254 48.9922 -27.9268c-11.7178 -90.626 -21.0586 -181.519 -26.0859 -272.718
c21.3164 1.4873 42.6553 2.77051 63.9971 3.88574c0.568359 111.67 5.60645 225.141 25.582 334.506c3.59473 19.6797 26.9932 25.3086 44.4053 25.3086c14.0254 0 45.2588 -5.72754 44.4053 -25.3086c-4.80469 -110.343 -14.9658 -220.128 -18.7939 -330.507
c26.9971 0.868164 53.9434 1.53906 80.8018 2.08594zM257.238 145.297c22.8809 2.96777 45.7666 5.82129 68.6914 8.13672c-0.393555 21.0361 -0.612305 42.0645 -0.72168 63.0605c-0.0478516 9.25684 -0.0693359 18.5391 -0.0693359 27.832
c-11.8486 -0.744141 -23.6973 -1.46582 -35.542 -2.30762c-9.89062 -0.707031 -19.7666 -1.50195 -29.6357 -2.34375c-0.885742 -19.1328 -1.64062 -38.2764 -2.10742 -57.4385c-0.298828 -12.3086 -0.469727 -24.624 -0.615234 -36.9395z" />
    <glyph glyph-name="dollar" unicode="$" 
d="M331.524 405.737c-5.50879 31.084 -28.1436 60.8115 -57.8096 73.2695c-3.44531 -82.6016 -9.87305 -165.102 -15.3125 -247.602c50.0713 -51.5215 106.464 -106.704 102.84 -184.202c-1.5791 -33.7529 -14.4336 -74.5488 -40.5879 -97.3242
c-17.9297 -15.6152 -41.5215 -23.0781 -65.2148 -23.8184c0.955078 -15.1006 1.9541 -30.2012 3.2373 -45.2803c1.38184 -16.2637 4.71777 -33.0088 3.54395 -49.291c-1.30859 -18.1738 -45.3711 -20.4453 -50.0156 -3.85742
c-8.93164 31.9004 -7.35254 69.4697 -7.79004 102.471c-0.0214844 1.62988 -0.0107422 3.2627 -0.0253906 4.89648c-62.3428 24.6602 -89.4639 93.5869 -105.738 155.81c-4.29102 16.4131 33.2891 18.9648 36.8037 5.78223
c11.7031 -43.8838 25.5713 -90.4258 59.6045 -122.56c2.98242 -2.81445 6.10352 -5.41016 9.33008 -7.7832c0.185547 20.8789 0.699219 41.7578 1.53027 62.6152c1.79785 45.127 4.52148 90.2646 7.55469 135.362c-7.53906 6.20117 -15.1045 12.2969 -22.542 18.3711
c-33.2676 27.1572 -64.4531 55.4521 -90.6992 89.6201c-24.4561 31.835 -53.1523 69.999 -49.9951 112.553c6.00098 80.9619 101.181 126.742 172.751 128.452c4.48438 0.109375 8.97266 0.0214844 13.4463 -0.233398c1.44727 39.0059 2.13281 78.0449 1.58203 117.131
c-0.208008 14.7617 37.4678 14.8164 37.7666 0c0.838867 -41.3174 0.321289 -82.5947 -1.0459 -123.843c46.9248 -14.04 86.1201 -48.8496 94.5527 -100.539c2.25684 -13.8174 -35.1162 -14.9473 -37.7666 0zM221.136 271.981
c5.29395 70.7793 10.8232 141.568 14.1084 212.445c-28.6338 -3.91602 -55.0879 -24.999 -69.2002 -49.4697c-19.4941 -33.8105 -9.63574 -67.1543 9.18359 -99.0293c13.5625 -22.9688 28.9805 -43.9424 45.9082 -63.9463zM281.089 97.1406
c-8.39258 11.4443 -17.9404 22.0488 -28.127 32.1113c-1.23242 -33.417 -1.81543 -66.8555 -1.40723 -100.386c0.324219 -26.4395 1.15918 -52.8604 2.53027 -79.2627c19.3701 0.845703 37.5479 10.8389 49.4727 32.7393c20.0625 36.8516 0.404297 83.6045 -22.4688 114.798
z" />
    <glyph glyph-name="percent" unicode="%" horiz-adv-x="705" 
d="M628.139 634.913c10.0879 -2.40234 34.7031 -14.0225 25.0127 -29.0537c-39.2061 -60.8262 -81.3506 -119.687 -120.554 -180.527c-138.521 -214.987 -251.295 -446.132 -336.106 -687.387c-10.0732 -28.6553 -91.4609 -21.6406 -79.8672 12.5498
c23.3398 68.832 48.8643 136.902 76.7178 204.039c49.4434 119.169 106.025 235.349 169.188 347.842c62.6816 111.641 129.982 223.551 211.651 322.46c11.4951 13.9229 38.3242 13.8027 53.957 10.0771zM201.715 186.728
c-49.4297 -17.4414 -103.617 1.68359 -132.75 44.3828c-26.4717 38.8057 -21.9512 92.3223 -6.39844 136.01c0.248047 7.45605 3.31055 13.9854 8.06445 19.6914c1.52734 3.00781 4.31641 5.59961 7.96191 7.72852c12.6621 10.2188 30.1367 17.1416 42.2773 21.71
c27.9482 10.5215 59.7979 12.5957 88.0195 1.86621c97.7354 -37.1572 88.6797 -197.563 -7.1748 -231.389zM138.464 249.263c5.47949 -11.5898 15.0312 -26.3877 28.2432 -29.9785c0.0839844 -0.0214844 0.131836 -0.0400391 0.201172 -0.0615234
c3.60938 0.386719 6.87988 2.00195 10.041 3.67871c8.29785 4.40039 15.1338 11.3672 20.3945 19.0781c22.7168 33.3115 26.7275 84.7607 6.44629 119.964c-6.96387 12.0889 -21.5615 28.5527 -37.0742 27.707c-4.95801 -0.273438 -15.6514 -3.40527 -25.123 -7.88965
c-0.0185547 -0.291992 0 -0.56543 -0.0332031 -0.864258c-4.96582 -44.2891 -23.5264 -88.4355 -3.0957 -131.634zM528.502 100.592c60.2393 0.969727 108.354 -50.2285 91.3789 -111.131c-17.2627 -61.9121 -93.1123 -94.8477 -152.99 -88.1904
c-32.0098 3.55859 -62.8672 19.8877 -75.3936 50.9238c-13.1758 32.6445 -5.09277 67.2354 7.92285 98.5127c5.26465 12.6504 23.7666 15.7197 36.8438 15.6143c2.3584 1.87012 4.64453 3.57617 6.75195 5.07812c24.4668 17.4268 55.3213 28.707 85.4863 29.1924z
M567.826 -13.999c16.2275 31.4082 9.30664 89.1055 -36.2549 88.4238c-18.3672 -0.277344 -36.5811 -8.53906 -50.8945 -19.5928c-2.36621 -1.82617 -4.73926 -3.79492 -7.08008 -5.8252c0.262695 -1.26855 0.365234 -2.5918 0.117188 -4.02832
c-3.78027 -21.9658 -9.96387 -43.8477 -8.6875 -66.3457c0.710938 -12.5596 5.63965 -32.418 18.1924 -38.6562c11.9326 -5.93164 31.499 1.25781 42.3418 6.3291c17.8975 8.36719 33.1553 22.0645 42.2656 39.6953z" />
    <glyph glyph-name="ampersand" unicode="&#x26;" horiz-adv-x="570" 
d="M502.599 87.0068c45.751 -67.665 -7.18457 -147.7 -68.9404 -181.361c-35.9287 -19.585 -77.2646 -29.9209 -117.638 -35.1631c-41.0479 -5.33398 -83.7217 -5.73828 -121.798 12.7207c-79.6602 38.6191 -57.3047 131.309 -26.7461 195.572
c20.4131 42.9248 47.7275 82.7617 80 117.954c-46.9941 -3.91895 -93.9629 0.750977 -134.941 22.3301c-61.5664 32.418 -74.8115 99.6133 -52.208 161.522c21.4443 58.7295 75.2891 106.219 128.747 135.724c58.8057 32.4541 132.808 51.959 198.541 30.0186
c27.1357 -9.05957 51.1904 -26.4678 64.8652 -51.9844c14.9072 -27.8213 14.5283 -60.834 13.7734 -91.502c-0.37207 -15.1992 -38.623 -15.0205 -38.5645 0c0.124023 32.4834 0.773438 70.3994 -22.166 96.252c-22.8301 25.7314 -56.834 30.6787 -89.0371 23.6826
c-59.9688 -13.0264 -115.796 -47.0996 -154.962 -94.1885c-37.6387 -45.251 -53.1475 -117.722 -2.22754 -160.213c20.0879 -16.7598 45.6406 -19.8438 70.9277 -18.2285c35.8633 2.29297 72.3496 10.2295 107.579 17.0723
c14.8057 2.87695 37.5957 0.525391 48.5732 -11.2646c10.3066 -11.0723 4.5498 -22.2832 -6.72656 -29.7061c-55.1025 -36.2715 -100.139 -86.0322 -132.353 -143.475c-23.584 -42.0537 -60.4248 -111.698 -30.9375 -158.929
c33.1182 -53.0498 119.162 -24.2998 162.999 -3.98926c50.4102 23.3584 101.906 78.1504 79.1562 138.447c-9.09961 24.1094 -29.8955 44.085 -55.1318 50.5195c-12.5996 3.20801 -26.042 2.29297 -38.5107 -0.973633
c-10.3428 -2.71289 -30.0732 -7.84277 -33.5586 -18.9111c-6.41699 -20.3838 -64.3008 -15.4805 -56.415 8.86621c6.47852 19.9971 34.5439 29.9678 52.5908 36.1182c21.6338 7.375 44.9043 10.7178 67.7227 9.40137c41.9521 -2.41699 83.3457 -20.7588 107.386 -56.3125z
" />
    <glyph glyph-name="quotesingle" unicode="'" horiz-adv-x="168" 
d="M117.995 406.025c4.72461 -20.4414 -54.8525 -24.2275 -59.6982 -0.000976562c-5.59277 27.9629 -20.3037 80.3564 11.5234 97.5645c11.1484 6.02637 28.6777 7 39.6768 0c9.80371 -6.23828 10.3906 -16.4971 0 -22.6143
c-4.53516 -2.67188 0.338867 -26.8398 0.885742 -31.6738c1.65137 -14.5869 4.30957 -28.9766 7.6123 -43.2754z" />
    <glyph glyph-name="quotesingle" unicode="&#x2019;" horiz-adv-x="168" 
d="M117.995 406.025c4.72461 -20.4414 -54.8525 -24.2275 -59.6982 -0.000976562c-5.59277 27.9629 -20.3037 80.3564 11.5234 97.5645c11.1484 6.02637 28.6777 7 39.6768 0c9.80371 -6.23828 10.3906 -16.4971 0 -22.6143
c-4.53516 -2.67188 0.338867 -26.8398 0.885742 -31.6738c1.65137 -14.5869 4.30957 -28.9766 7.6123 -43.2754z" />
    <glyph glyph-name="quotesingle" unicode="&#x2018;" horiz-adv-x="168" 
d="M117.995 406.025c4.72461 -20.4414 -54.8525 -24.2275 -59.6982 -0.000976562c-5.59277 27.9629 -20.3037 80.3564 11.5234 97.5645c11.1484 6.02637 28.6777 7 39.6768 0c9.80371 -6.23828 10.3906 -16.4971 0 -22.6143
c-4.53516 -2.67188 0.338867 -26.8398 0.885742 -31.6738c1.65137 -14.5869 4.30957 -28.9766 7.6123 -43.2754z" />
    <glyph glyph-name="parenleft" unicode="(" horiz-adv-x="460" 
d="M398.648 -219.508c15.7168 -9.2168 14.6514 -24.5938 0.00292969 -34.0176c-85.6934 -55.1572 -206.631 -18.1494 -265.368 58.8633c-53.8916 70.6582 -73.0645 162.75 -79.9912 249.657c-7.68555 96.4307 -1.36426 195.369 13.3027 290.859
c12.7383 82.9336 30.7412 174.817 79.252 245.239c21.8779 31.7617 50.9639 59.6006 85.9199 76.5166c19.7822 9.57422 42.1348 15.9688 64.2969 15.4219c19.1982 -0.473633 32.9316 -8.07129 47.9629 -18.8994c18.2686 -13.1611 -15.5791 -23.1865 -26.9902 -15.3809
c-24.1895 16.541 -65.3027 -23.001 -79.707 -39.3672c-23.4746 -26.6729 -39.6836 -60.2393 -51.751 -93.4043c-26.1328 -71.8291 -35.8779 -149.896 -41.2988 -225.757c-5.74609 -80.3887 -8.42188 -161.813 0.269531 -242.082
c7.76562 -71.6973 23.9199 -147.256 63.9902 -208.436c16.1074 -24.5947 39.083 -47.6357 66.5576 -59.1416c22.8154 -9.55566 40.8105 -11.8047 63.8555 -0.0722656c17.6201 8.96875 42.2148 10.252 59.6963 0z" />
    <glyph glyph-name="parenright" unicode=")" 
d="M258.767 579.826c89.9922 -138.043 117.442 -310.458 109.094 -472.6c-3.97754 -77.1885 -17.8057 -158.525 -58.3789 -225.567c-42.0322 -69.4521 -110.696 -116.665 -194.334 -107.635c-12.6328 1.36328 -33.4248 10.4229 -30.0928 26.2744
c3.51465 16.6943 27.4814 20.2012 41.2627 20.7627c22.666 0.925781 48.0186 19.7158 65.3398 38.0098c24.0186 25.3672 40.5088 57.4795 53.1562 89.7959c23.9785 61.2812 30.8252 127.688 32.5127 193.01c1.7832 69.0947 -1.89941 138.958 -13.0596 207.21
c-11.0098 67.3408 -27.4043 134.514 -52.9648 197.906c-19.8984 49.3486 -62.5322 116.89 -125.239 92.8496c-8.96094 -3.43457 -23.6133 -2.8877 -31.3057 3.56152c-7.12793 5.97949 -6.04102 13.3916 1.89941 18.1641c35.8232 21.5283 82.6094 17.2705 119.246 0.0986328
c36.1328 -16.9385 61.5332 -49.1162 82.8643 -81.8408z" />
    <glyph glyph-name="asterisk" unicode="*" horiz-adv-x="270" 
d="M220.038 389.211c0 -8.81152 -13.3135 -11.3193 -19.8799 -11.334c-14.2148 -0.0292969 -28.3682 -0.540039 -42.499 -1.25488c13.0957 -11.2656 27.1426 -21.3604 42.0723 -30.3398c17.6348 -10.6094 -14.04 -20.8867 -25.0137 -14.2588
c-10.8604 6.55859 -21.3711 13.6719 -31.4443 21.3428c-0.418945 -14.9297 -0.469727 -29.8848 -0.0654297 -44.8799c0.401367 -14.7031 -37.3652 -14.8564 -37.7666 0c-0.269531 9.94238 -0.30957 19.8809 -0.229492 29.8154
c-5.6875 -5.24609 -11.3457 -10.5215 -17.0732 -15.7275c-10.5 -9.54492 -47.4902 -0.813477 -33.6436 11.21c14.8496 12.8984 29.5459 25.9609 44.1621 39.1113c-10.4668 -0.700195 -20.9375 -1.36719 -31.4375 -1.89941
c-18.2539 -0.929688 -25.1367 17.0146 -4.91406 20.6973c11.499 2.09277 23.1396 3.68555 34.8604 4.91016c-3.70801 4.28418 -7.32129 8.65527 -10.7881 13.1436c-7.81641 10.1172 -14.4883 21.6709 -25.4873 28.707c-17.2227 11.0176 14.0215 20.9229 24.7324 14.0977
c9.91309 -6.31445 17.7695 -14.875 25.0869 -24.0146c1.25391 11.0215 2.68262 22.0283 4.35938 33.0098c2.38086 15.5742 40.8623 13.875 38.5654 -0.000976562c-2.40234 -14.5068 -4.34961 -29.0352 -5.94238 -43.5889c11.0391 10.4053 22.0059 20.8906 32.8633 31.4922
c8.8916 8.68457 42.3447 1.96582 30.2002 -10.0615c-13.2158 -13.0918 -26.5303 -26.082 -39.8955 -39.0176c9.80664 0.124023 19.5918 0.171875 29.2969 0.171875c6.30371 0 19.8809 -2.54102 19.8809 -11.3311z" />
    <glyph glyph-name="plus" unicode="+" horiz-adv-x="294" 
d="M227.768 160.093c21.6699 1.01758 21.1904 -19.1709 -0.00195312 -20.1592c-16.5186 -0.776367 -33.0156 -1.75684 -49.5088 -2.83203c-0.0800781 -3.48535 -0.174805 -6.9707 -0.214844 -10.46c-0.258789 -22.3086 -0.101562 -44.6465 0.0371094 -66.9551
c0.124023 -19.9062 5.22461 -44.333 -12.2969 -57.5303c-12.1914 -9.17969 -31.7695 -11.542 -45.3174 -3.32812c-11.6924 7.08398 -15.8525 12.502 -18.8418 25.6777c-2.64355 11.6484 -3.89062 23.3008 -5.06445 35.1787
c-2.08496 21.1377 -3.10547 42.1885 -3.38965 63.4287c-0.0332031 2.3584 -0.0400391 4.7168 -0.0615234 7.07227c-6.98145 -0.674805 -13.9668 -1.3125 -20.9482 -2.04199c-5.79688 -0.608398 -19.3516 -0.499023 -21.7578 7.04004
c-2.34375 7.35352 6.09277 11.7471 12.3564 12.4033c10.0947 1.05762 20.2012 2.00195 30.3037 2.95312c0.164062 35.5713 1.83398 71.1543 7.29199 106.311c5.03125 32.3926 85.5693 32.8848 84.0234 0c-1.56055 -33.1982 -4.13086 -66.3203 -5.4834 -99.5146
c16.2852 1.04297 32.5742 1.99121 48.874 2.75684z" />
    <glyph glyph-name="comma" unicode="," horiz-adv-x="256" 
d="M124.174 90.0908c11.8887 28.7725 94.0205 19.4385 79.8672 -12.5498c-22.7754 -51.4707 -50.2061 -99.5215 -82.4131 -145.673c-9.70117 -13.9053 -28.6152 -16.9785 -44.5654 -14.4268c-10.0039 1.60059 -33.6719 10.9814 -25.3047 25.4043
c27.4014 47.2344 51.5654 96.7842 72.416 147.245z" />
    <glyph glyph-name="hyphen" unicode="-" horiz-adv-x="294" 
d="M217.967 153.246c9.69434 -0.841797 26.1582 -7.75098 26.1621 -19.585c0 -11.8994 -16.541 -18.7275 -26.1582 -19.584c-46.542 -4.14844 -93.6162 0.310547 -139.826 6.57715c-11.9688 1.62207 -33.6865 10.9658 -26.8359 26.9414
c6.85742 15.9863 32.9102 17.2734 47.2637 15.2979c39.7275 -5.47949 79.5137 -6.18359 119.395 -9.64746z" />
    <glyph glyph-name="period" unicode="." horiz-adv-x="172" 
d="M118.297 27.96c4.29492 -10.6709 3.19727 -24.124 3.77734 -35.5098c0.334961 -6.66113 -5.57812 -11.3428 -10.5547 -14.5215c-7.36035 -4.69922 -16.9307 -5.79688 -25.4766 -6.01562c-8.14844 -0.208008 -18.3496 1.81934 -25.4775 6.01562
c-4.73926 2.78906 -10.875 8.24707 -10.5537 14.5215c0.583008 11.3711 -0.506836 24.835 3.79883 35.5059c2.23145 5.53418 10.1826 9.78906 15.3672 11.3936c5.46094 1.69141 11.1699 2.45703 16.876 2.60254c9.87305 0.251953 27.9307 -3.27734 32.2432 -13.9922z" />
    <glyph glyph-name="slash" unicode="/" horiz-adv-x="588" 
d="M501.57 588.335c13.209 -2.11426 45.1631 -14.751 33.7988 -33.9277c-146.147 -246.676 -286.115 -496.269 -407.381 -756.299c-12.3662 -26.5195 -89.9521 -19.042 -76.4082 12.0049c113.653 260.537 240.344 517.305 390.462 758.957
c11.8047 19.002 39.2246 22.5127 59.5283 19.2646z" />
    <glyph glyph-name="zero" unicode="0" horiz-adv-x="433" 
d="M283.556 486.006c86.6338 -45.2988 101.739 -162.484 98.8301 -249.436c-1.69531 -50.5234 -10.8496 -100.722 -26.8691 -148.692c-14.8457 -44.4639 -36.2314 -90.8018 -71.209 -123.216c-38.6084 -35.7754 -96.7471 -53.8477 -147.872 -36.5957
c-51.8027 17.4814 -69.8789 69.0762 -78.4863 118.315c-18.5059 105.844 -2.43164 218.549 24.9258 321.315c0.174805 0.652344 0.462891 1.24316 0.707031 1.85547c6.55859 39.6729 23.2812 77.0166 56.5234 102.329c40.7344 31.0186 97.5791 38.1094 143.45 14.124z
M303.819 243.173c7.51367 68.0918 13.4717 167.502 -49.793 212.997c-28.6445 20.5986 -58.7656 8.41406 -81.0781 -15.9248c-14.0215 -15.2939 -22.9678 -34.2373 -28.6328 -54.2744c14.3203 -2.96387 36.166 -10.8975 32.834 -25.5459
c-21.4375 -94.2832 -36.502 -191.235 -27.3398 -288.1c2.02734 -21.3936 5.33008 -42.6299 12.7197 -62.8926c3.15332 -8.64453 9.7627 -30.3809 19.3984 -34.9639c4.66992 -0.208008 13.7549 6.5 17.0762 8.85547c12.6475 8.96875 23.5371 21.8311 32.2324 34.5508
c44.8535 65.6133 63.9902 147.432 72.583 225.298z" />
    <glyph glyph-name="one" unicode="1" horiz-adv-x="340" 
d="M257.352 -44.0811c9.97852 -0.456055 26.7246 -2.60449 31.2891 -13.5742c4.18164 -10.0625 -5.98242 -18.5605 -14.9072 -20.8828c-21.415 -5.57422 -43.2422 -7.36426 -65.0879 -10.5693c-11.3672 -1.66992 -22.7051 -3.51465 -34.0146 -5.53809
c-5.27148 -0.944336 -12.3369 -1.33789 -18.3164 -2.55566c-9.87988 -4.65527 -24.04 -5.20215 -30.9053 -3.83887c-0.248047 0.0478516 -0.492188 0.0986328 -0.740234 0.146484c-8.19531 1.62988 -31.2041 9.85449 -23.1357 23.2305
c8.21387 13.6201 28.3604 18.3193 47.0342 21.0498c-0.732422 2.24219 -1.12598 4.63379 -1.10742 7.18555c0.717773 110.484 10.623 222.512 26.8066 331.738c3.80957 25.7207 8.16309 51.4346 10.5586 77.3379c2.19434 23.7412 4.26465 52.3018 -4.79883 74.9746
c-1.60059 4.00293 -3.59473 7.71387 -6.2666 11.1084c-1.38184 1.75391 -3.07715 2.9502 -4.26172 3.81055c-2.38086 -2.13672 -7.24023 -5.2793 -8.10059 -5.99414c-4.49902 -3.72559 -8.5791 -8.08594 -12.542 -12.3809
c-15.9902 -17.3281 -27.5107 -37.5801 -36.2275 -59.3965c-8.87012 -22.1992 -72.1201 -15.1123 -61.4121 9.64941c21.6484 50.0596 67.4395 111.498 128.903 104.735c62.0762 -6.82812 76.7617 -78.0996 80.415 -129.814
c4.64062 -65.7148 -0.634766 -132.961 -2.13281 -198.756c-1.53125 -67.166 -1.72461 -134.485 -4.02148 -201.618c0.988281 -0.0292969 1.9834 0 2.97168 -0.0478516z" />
    <glyph glyph-name="two" unicode="2" horiz-adv-x="335" 
d="M156.64 483.235c47.0811 20.5732 107.811 2.86914 123.582 -50.0488c8.58594 -28.7832 2.9209 -60.5889 -3.2002 -89.2012c-6.88281 -32.1738 -16.0918 -63.4395 -26.0889 -94.7637c-20.249 -63.4619 -47.5342 -124.572 -69.6602 -187.385
c-5.74219 -16.3037 -11.2471 -32.6953 -16.3291 -49.2139c-4.3125 -14.0215 -2.65039 -25.5205 -4.25098 -39.374c3.04785 0.178711 5.98242 0.401367 6.94531 0.514648c14.8896 1.75684 28.8418 5.78906 42.8887 10.9082s39.5488 4.71484 50.3877 -7.52734
c11.6084 -13.1172 -1.02051 -23.3691 -13.2119 -28.7207c-32.9609 -14.4697 -70.3994 -23.249 -106.489 -24.084c-33.7451 -0.780273 -77.585 11.8672 -88.8398 48.0078c-9.03027 28.9951 9.92773 65.9668 19.6328 92.8984c10.584 29.3662 22.1299 58.3789 34.0078 87.2422
c24.416 59.3418 51.6357 117.94 79.8428 175.565c13.9854 28.5723 29.2939 58.5078 36.0605 89.8252c2.36621 10.9482 7.56152 29.873 0.918945 39.8662c-6.83594 10.2852 -21.5322 13.333 -32.75 10.9268c-25.9727 -5.56738 -48.8174 -29.9062 -63.3965 -50.9463
c-15.8223 -22.8369 -25.6475 -48.8643 -28.4111 -76.5029c-1.50586 -15.0713 -39.0576 -14.251 -37.7666 0c5.24609 57.9053 41.4961 118.141 96.1279 142.013zM153.24 -26.9932c-0.542969 0.160156 -0.917969 0.242188 -0.936523 0.154297
s0.345703 -0.135742 0.936523 -0.154297zM160.613 -29.3535c0.313477 -2.4502 2.07031 -0.816406 0 0z" />
    <glyph glyph-name="three" unicode="3" horiz-adv-x="393" 
d="M297.292 211.035c34.1758 -32.0205 52.4307 -81.8711 43.4844 -128.096c-10.0332 -51.8066 -41.1094 -93.9775 -84.4248 -123.398c-46.542 -31.6123 -109.814 -38.1455 -155.879 -2.45312c-41.9668 32.5166 -50.1338 88.3516 -50.4727 138.229
c-0.189453 27.9268 69.1533 27.8867 71.2646 0c1.9541 -25.8232 1.66602 -52.4268 10.6816 -77.0684c6.08496 -16.6357 17.875 -38.4707 36.0488 -44.2422c0.999023 -0.317383 1.52734 -0.514648 1.83691 -0.645508
c-0.0800781 0.113281 -0.0253906 0.258789 0.532227 0.389648c3.40918 0.794922 6.47168 2.66895 9.46094 4.42285c9.32227 5.47949 17.252 13.3545 24.4482 21.3389c13.6641 15.1631 24.3604 33.7168 31.5898 52.7695c14.167 37.3477 10.6309 84.3271 -13.8652 116.873
c-25.374 33.709 -56.498 29.3672 -92.6133 25.2148c-18.5898 -2.13672 -43.0752 -1.06836 -57.2314 13.2744c-11.9766 12.1406 -5.77539 27.4092 7.92578 35.0068c34.3252 19.0381 65.8135 42.6738 94.4873 69.4482c26.7744 24.999 56.1445 57.665 57.4316 96.3867
c0.580078 17.5107 -5.00195 34.5 -20.1973 44.7188c-18.0762 12.1553 -39.4473 2.73828 -55.6855 -8.00586c-30.2012 -19.9824 -56.6689 -49.6074 -65.8926 -85.124c-3.52148 -13.5586 -41.7764 -10.8242 -37.5732 5.90234c11.3096 45.0361 51.6211 86.1016 93.1758 105.329
c40.6611 18.8154 93.3496 13.9043 118.822 -26.3154c43.3076 -68.3799 3.62012 -140.847 -50.3262 -193.648c30.6572 -5.9209 59.4883 -18.3057 82.9707 -40.3076z" />
    <glyph glyph-name="four" unicode="4" horiz-adv-x="364" 
d="M314.135 450.343c-4.68848 -83.918 -12.9189 -167.605 -14.9023 -251.677c-1.96875 -83.5244 3.56152 -166.633 11.127 -249.753c2.50781 -27.5732 -68.1104 -29.5273 -75.0811 -5.79297c-15.1006 51.4268 -22.9102 104.181 -26.6182 157.361
c-25.4512 -6.41699 -51.7295 -9.04883 -77.4248 -6.31055c-44.4131 4.73242 -82.0664 29.6982 -81.2207 77.873c0.871094 49.5967 18.4004 100.108 29.6035 148.054c11.7285 50.1875 23.5732 100.35 29.0459 151.689c2.39844 22.5234 58.4922 21.3135 56.5088 0
c-7.73242 -83.1123 -33.0996 -163.104 -43.2021 -245.866c-2.94922 -24.1494 -14.5645 -80.626 18.2695 -90.4951c19.9463 -5.99316 43.873 1.70996 66.1777 10.6826c-0.496094 16.3477 -0.700195 32.71 -0.685547 49.0645c0.0693359 85.2051 5.58887 170.49 14.8086 255.17
c4.01367 36.8477 95.6064 36.042 93.5938 0z" />
    <glyph glyph-name="five" unicode="5" horiz-adv-x="460" 
d="M342.697 315.745c59.8232 -44.9482 71.6064 -123.057 65.7256 -193.193c-5.96484 -71.3076 -34.4824 -141.744 -91.1299 -187.641c-52.5137 -42.5498 -144.959 -64.0703 -193.003 -2.19043c-46.4434 59.8193 -29.8701 156.057 -15.0244 223.919
c5.625 25.7207 71.1025 26.7051 68.4707 0c-4.64453 -47.1328 -12.9424 -94.3057 -9.04492 -141.803c2.09277 -25.5205 8.06055 -80.6406 43.2822 -82.0039c29.1475 -1.12988 58.8604 30.0234 74.5986 51.1943c21.623 29.0859 34.2588 64.1543 40.7959 99.5215
c12.0635 65.2881 14.8125 153.398 -39.9834 201.318c-22.8076 19.9492 -51.4707 22.4209 -79.7617 14.1816c-36.0859 -10.5146 -66.4365 -39.1152 -106.069 -31.3604c-20.2344 3.95898 -36.7168 16.8066 -30.8984 38.7832c4.91406 18.5605 12.9932 36.7344 19.4355 54.8213
c9.73438 27.3291 18.5645 55.3652 29.374 82.457c-15.1045 -2.37305 -30.2051 -4.7832 -45.2842 -7.33496c-6.21191 -1.0498 -21.1846 -0.254883 -23.7188 7.67871c-2.6543 8.30859 6.74121 12.3594 13.4678 13.5186c22.0273 3.79883 44.0918 7.34277 66.1738 10.7627
c1.45508 3.09863 2.88086 6.21191 4.41895 9.2666c6.43457 12.7861 47.6426 15.5605 49.5928 -1.28613c32.4365 4.56445 64.9199 8.78223 97.4697 12.5303c6.49707 0.74707 21.7656 0.509766 24.4561 -7.91602c2.64648 -8.29395 -6.85449 -13.1504 -13.8867 -13.9375
c-37.0742 -4.15234 -74.0752 -8.84082 -111.007 -14.0469c-4.06543 -22.9941 -10.3359 -45.5977 -15.9033 -68.2637c-3.60938 -14.7031 -7.22266 -29.4033 -10.832 -44.1064c-0.576172 -2.35547 -1.61914 -5.53418 -2.80762 -9.11426
c1.56738 0.594727 3.13184 1.2002 4.71094 1.76172c22.082 7.84961 45.1416 12.5928 68.5186 14.0293c41.2441 2.53027 84.4062 -6.40918 117.863 -31.5469z" />
    <glyph glyph-name="six" unicode="6" horiz-adv-x="375" 
d="M273.595 160.822c32.6406 -18.1191 51.7627 -53.0107 51.6348 -90.1318c-0.251953 -75.2373 -65.9482 -134.616 -139.976 -131.758c-40.6172 1.56738 -76.9805 19.2676 -100.51 52.7793c-21.9805 31.3066 -32.8232 72.6201 -34.4453 110.441
c-3.44141 80.167 23.3262 160.228 55.0811 232.768c16.3438 37.333 35.9648 74.0059 59.0059 107.667c22.3486 32.6514 45.5391 56.666 83.2178 70.4619c11.459 4.19238 57.126 -1.7832 38.6602 -22.0352c-40.293 -44.1973 -65.0547 -106.572 -87.9971 -160.945
c-23.0049 -54.5146 -42.1416 -111.979 -49.4404 -170.902c40.333 15.6221 84.8877 23.792 124.769 1.65527zM256.857 55.2422c4.47363 26.2529 -1.09863 53.3408 -20.0859 72.6709c-19.8438 20.1904 -44.5332 13.373 -69.5029 6.93066
c-5.70898 -1.47266 -13.6855 -2.46777 -20.6084 -1.03516c-1.10059 -22.5674 -0.046875 -45.124 2.66211 -67.6836c2.94531 -24.5508 9.51172 -52.1055 25.2686 -71.9053c34.3652 -43.1807 77.0605 30.46 82.2666 61.0225z" />
    <glyph glyph-name="seven" unicode="7" horiz-adv-x="351" 
d="M274.847 207.805c7.98047 -0.56543 24.0713 -2.42188 25.7998 -12.9834c1.63379 -10.0439 -10.4443 -15.4219 -18.8115 -16.4248c-9.22363 -1.10449 -18.5312 -1.69141 -27.8643 -2.04883c-0.911133 -4.95801 -1.81152 -9.91602 -2.68652 -14.874
c-12.1006 -68.5693 -23.0049 -136.734 -29.6035 -206.095c-3.89746 -40.9277 -105.924 -38.9668 -102.767 -0.000976562c5.99707 74.0049 22.4355 146.013 40.832 217.608c-7.75098 -0.193359 -15.4912 -0.149414 -23.2021 0.28418
c-7.98047 -0.586914 -16.2236 0.991211 -21.0576 6.55469c-9.21973 10.6055 4.86035 17.2188 13.8145 19.3555c12.3955 2.95996 25.4512 4.20703 38.543 4.93652c8.1084 30.8545 16.3477 61.6797 24.0508 92.5918c7.08008 28.415 13.4678 57.0996 18.8018 85.8906
c4.68457 25.2979 11.7285 56.0576 2.58496 81.1074c-1.57812 4.32422 -3.56836 9.29688 -6.67773 12.7969c-3.17578 3.58398 1.00195 2.98926 -6.00195 1.8623c-10.04 -1.61523 -19.873 -3.10254 -29.6367 -6.05176c-25.1484 -7.59375 -46.9717 -20.8428 -68.4053 -35.75
c-10.6133 -7.37891 -29.25 -6.59863 -40.501 -1.37402c-8.66602 4.02539 -17.4453 14.0732 -7.94434 22.6846c42.335 38.3721 114.036 67.6475 171.771 56.459c69.9219 -13.5479 63.0459 -97.7354 58.416 -152.346c-4.37891 -51.6279 -14.5176 -102.705 -24.3027 -153.673
c4.97266 -0.0332031 9.93066 -0.164062 14.8486 -0.510742z" />
    <glyph glyph-name="eight" unicode="8" horiz-adv-x="371" 
d="M261.785 161.157c3.18262 -3.35449 6.31641 -6.74512 9.33887 -10.2236c30.7012 -35.2256 52.4189 -79.9268 49.2578 -127.617c-2.90527 -43.8623 -24.1416 -91.3115 -64.332 -112.413c-36.5156 -19.1689 -81.709 -16.9346 -114.667 8.44727
c-35.6445 27.4561 -49.6592 73.498 -50.1729 116.974c-0.306641 25.9326 3.82031 51.8428 10.6123 76.8232c6.18359 22.7461 12.5049 47.1797 24.1895 67.7969c-34.7803 31.6455 -61.4893 69.0186 -72.1709 115.823c-10.9121 47.8145 1.99023 93.4336 31.4375 131.776
c51.3105 66.8125 191.537 110.019 222.472 1.80176c12.6543 -44.2637 1.39258 -91.7275 -9.27832 -135.182c-10.9004 -44.3945 -22.2568 -90.1377 -36.6865 -134.007zM157.846 390.238c-11.7754 -44.4561 -3.375 -95.2236 19.1777 -134.78
c13.2305 -23.2012 31.7549 -42.3086 50.9062 -60.8945c4.73535 11.3203 9.41992 22.6621 13.7109 34.1533c11.5752 31.0039 20.292 63.4551 27.2119 95.7998c5.30859 24.8018 9.74512 50.2822 8.15918 75.752c-1.57129 25.2432 -13.209 65.6709 -42.9004 71.1064
c-39.7207 7.26953 -68.2412 -50.8477 -76.2656 -81.1367zM236.052 -67.3848c46.5381 32.1445 35.7158 89.8037 9.71094 131.635c-21.2148 34.1279 -51.4785 59.8711 -82.1357 85.0557c-9.98242 -18.1963 -18.627 -36.4502 -23.4541 -58.0117
c-6.13574 -27.4199 -8.5166 -56.415 -4.47754 -84.3164c6.69336 -46.2354 47.8613 -110.623 100.356 -74.3623z" />
    <glyph glyph-name="nine" unicode="9" horiz-adv-x="468" 
d="M400.495 480.981c11.9111 -18.2324 12.5947 -45.5361 14.3779 -66.4697c1.80078 -21.0869 2.5918 -42.251 2.64648 -63.4111c0.12793 -48.1641 -3.62012 -96.124 -8.85156 -143.971c-10.4375 -95.4863 -20.3135 -192.591 -40.7188 -286.535
c-4.87109 -22.4248 -30.2314 -28.9473 -50.7861 -28.9473c-14.1748 0 -54.2422 6.97461 -50.7861 28.9473c18.9619 120.562 46.1553 239.825 66.5273 360.168c8.26855 48.8311 14.4775 98.5479 14.2041 148.182c-7.30957 -13.2783 -14.123 -26.8301 -20.7471 -40.4648
c-19.8799 -40.9277 -38.0537 -82.9268 -62.4512 -121.463c-23.2529 -36.7275 -52.1055 -75.876 -97.1816 -85.0381c-55.7148 -11.3242 -104.123 18.3086 -114.871 74.333c-8.32324 43.3848 12.6396 97.0283 36.4424 132.771c26.7383 40.1504 63.8232 71.373 110.656 85.0596
c27.792 8.11914 58.6494 11.0322 86.7988 2.62109c5.87012 -1.75391 10.8936 -4.03613 15.4141 -6.77051c11.2725 15.8701 24.4883 27.7734 44.8721 30.9121c19.9863 3.08105 42.8457 -2.1543 54.4541 -19.9238zM242.136 361.137
c12.4902 25.3164 24.6094 51.085 38.5215 75.7598c-31.1973 7.15625 -68.8037 -24.2119 -86.0078 -45.1094c-28.1562 -34.208 -45.6992 -82.0693 -45.2656 -126.201c0.0986328 -10.084 0.226562 -20.668 3.03418 -30.4463
c0.416016 -1.44336 1.28027 -3.06934 2.15527 -4.7207c3.54395 2.68652 7.06543 5.44238 7.94727 6.31055c6.91211 6.81348 13.2627 14.2617 19.3076 21.8408c24.8018 31.0986 42.79 67.0605 60.3076 102.566z" />
    <glyph glyph-name="colon" unicode=":" horiz-adv-x="188" 
d="M119.272 253.811c0.262695 -15.5381 -23.6367 -19.4619 -34.6328 -19.7422c-11.2402 -0.288086 -34.8906 4.62598 -34.6357 19.7412c0.200195 11.7471 0.397461 23.4971 0.597656 35.2441c0.258789 15.3125 22.793 19.1152 34.0361 19.4033
c11.4219 0.291992 33.7852 -4.5166 34.0371 -19.4023c0.200195 -11.7471 0.397461 -23.4971 0.597656 -35.2441zM137.547 42.3193c4.56055 -15.5674 -14.3252 -21.5908 -26.3086 -22.5098c-11.998 -0.918945 -34.3135 1.99023 -35.8486 17.7148
c-0.849609 8.69531 -4.22168 21.835 0.561523 29.6992c9.16211 15.0684 37.4531 14.6963 49.4551 3.68262c7.56836 -6.94531 9.34766 -19.0713 12.1406 -28.5869z" />
    <glyph glyph-name="semicolon" unicode=";" horiz-adv-x="245" 
d="M190.212 298.581c2.89062 -10.5508 4.94727 -21 4.96191 -31.959c0.0107422 -7.88965 -6.2998 -13.0996 -12.3047 -16.9346c-8.58203 -5.4834 -19.7422 -6.75977 -29.7061 -7.01465c-9.50098 -0.240234 -21.3975 2.11816 -29.7061 7.01465
c-5.77148 3.40137 -12.4102 9.49707 -12.3047 16.9346c0.0947266 6.71191 -0.521484 13.3037 -1.7793 19.8701c-1.72852 4.03223 -1.69531 8.06055 0.204102 12.0889c1.40332 1.89551 2.81055 3.79492 4.21387 5.69434c6.04102 6.78516 16.4092 9.34082 24.9873 10.9521
c10 1.88086 22.5811 0.900391 32.2168 -2.40234c5.62207 -1.9248 17.332 -7.36426 19.2168 -14.2441zM129.772 60.8115c5.77441 17.8604 60.6582 16.4199 57.457 -4.43066c-9.39844 -61.2344 -27.9629 -118.567 -56.6406 -173.502
c-15.0859 -28.9033 -94.917 -13.8896 -78.3291 12.3086c32.5781 51.4492 58.7695 107.686 77.5127 165.624z" />
    <glyph glyph-name="less" unicode="&#x3c;" horiz-adv-x="346" 
d="M294.27 132.269c7.72168 -18.0576 -16.542 -28.5918 -30.4541 -30.5713c-39.1191 -5.57422 -80.207 -8.02051 -119.089 0.550781c-29.7568 6.5625 -72.7188 19.6836 -90.4775 46.9863c-12.3447 18.9766 4.64062 31.8535 19.8145 41.1465
c16.0303 9.81836 32.6436 18.7832 49.0898 27.8828c33.4023 18.4766 67.665 40.4609 104.725 50.458c13.1143 3.53613 29.3818 4.4043 41.4893 -3.05176c8.99023 -5.54199 13.584 -14.9736 5.35156 -23.6504c-18.9395 -19.9678 -46.1182 -32.1924 -69.4805 -46.291
c-12.7637 -7.70703 -25.4766 -15.5088 -38.127 -23.4053c-5.84375 -3.64551 -11.6621 -7.33105 -17.4951 -10.9912c-0.182617 -0.116211 -0.422852 -0.276367 -0.685547 -0.455078c3.13184 -1.9248 6.44629 -3.71094 9.54492 -5.11133
c5.99023 -2.70898 12.334 -4.58691 18.7178 -5.9209c20.7881 -4.3418 42.4951 -2.13574 63.4365 -0.214844c15.9541 1.46191 45.7324 1.1377 53.6396 -17.3613z" />
    <glyph glyph-name="equal" unicode="=" horiz-adv-x="350" 
d="M100.466 140.588c-14.0215 -1.61914 -42.6826 -0.900391 -49.2266 15.9316c-6.62793 17.0508 14.875 25.6953 27.9521 28.0576c54.0049 9.76367 108.95 15.3633 163.553 20.6318c14.5869 1.40723 44.0957 1.12305 50.9424 -16.4863
c6.56641 -16.8867 -15.0781 -27.7471 -28.9248 -29.0381c-54.9414 -5.12988 -109.5 -12.7754 -164.296 -19.0967zM298.942 104.471c6.67871 -17.1826 -15.2686 -27.8154 -29.2031 -29.3174c-57.9023 -6.24902 -118.579 -13.2676 -176.867 -10.9746
c-12.4648 0.488281 -34.9697 3.83496 -38.2109 19.2275c-3.14648 14.9512 16.0703 22.6768 27.8682 24.332c54.2637 7.6084 110.317 9.08887 164.979 13.376c14.8018 1.16309 44.4492 1.32324 51.4346 -16.6436z" />
    <glyph glyph-name="greater" unicode="&#x3e;" horiz-adv-x="345" 
d="M291.487 198.982c17.5977 -36.7529 -41.3252 -56.1816 -65.9854 -63.874c-36.5957 -11.4043 -74.0449 -19.6143 -110.171 -32.6113c-17.4961 -6.29297 -45.791 -5.14062 -59.6631 8.91699c-14.4375 14.6309 1.62598 28.4844 15.6436 34.0078
c30.1436 11.8779 61.7197 18.5566 93.1895 25.8994c12.541 2.92773 25.1885 5.58594 37.5146 9.33398c2.50781 0.761719 15.0205 3.57227 15.957 6.79102c0.120117 0.408203 -8.33789 8.02051 -8.14453 7.85254c-39.0098 34.084 -96.3535 29.9092 -140.146 53.6436
c-9.9707 5.40332 -13.4307 15.9619 -5.57031 24.6133c8.96875 9.87305 28.2334 11.5098 40.2393 9.33301c34.2773 -6.21582 70.7354 -16.9668 103.602 -28.6182c27.7148 -9.8252 69.8633 -26.7383 83.5352 -55.2881z" />
    <glyph glyph-name="question" unicode="?" horiz-adv-x="453" 
d="M400.815 432.818c10.4707 -86.5361 -18.041 -178.261 -44.542 -259.579c-27.001 -82.832 -53.8994 -165.193 -60.5127 -252.645c-2.99316 -39.5527 -101.79 -38.124 -99.5771 0c4.75781 81.9385 32.8301 160.147 61.1543 236.468
c24.7871 66.7979 52.1162 133.271 67.8223 202.989c8.0791 35.8633 15.3232 76.6484 5.33789 112.898c-7.66016 27.8066 -27.6904 57.5996 -58.4971 61.1289c-58.6748 6.71875 -119.282 -43.6807 -145.186 -92.1621c-14.9951 -28.0684 -23.041 -61.1133 -17.7441 -92.8896
c3.7627 -22.582 25.9219 -65.7588 54.917 -61.5957c7.2041 1.03516 22.0898 0.320312 25.4365 -8.23242c3.41992 -8.73535 -7.66699 -13.3838 -14.4404 -14.499c-43.1621 -7.09863 -88.3545 7.52441 -110.914 47.1504c-21.5576 37.8613 -15.9756 86.1094 0.831055 124.572
c29.5527 67.6328 97.9434 116.089 170.242 127.132c41.3174 6.31055 82.9707 -0.933594 115.691 -27.9482c30.4863 -25.1699 45.3467 -64.5146 49.9805 -102.788zM243.918 -128.874c10.0225 0.254883 35.1475 -3.82324 38.1992 -16.583
c4.02539 -16.7959 0.929688 -35.3203 0 -52.5469c-1.02051 -18.9365 -27.54 -23.5742 -42.0098 -23.9463c-9.50098 -0.240234 -21.3975 2.12207 -29.7061 7.01465c-5.14746 3.0332 -13.084 9.81836 -12.3037 16.9346c1.82324 16.6211 1.22168 37.0195 7.61621 52.5469
c5.47266 13.292 25.8672 16.2666 38.2041 16.5801z" />
    <glyph glyph-name="at" unicode="@" horiz-adv-x="756" 
d="M637.309 493.462c106.996 -123.008 80.6299 -331.517 -19.5557 -451.05c-28.4951 -34 -72.3135 -53.3369 -116.729 -48.1709c-43.4434 5.0498 -79.3359 31.915 -93.2559 73.6885c-9.81445 29.4609 -11.9258 60.4971 -10.2344 91.333
c-0.881836 -1.7832 -1.74609 -3.57715 -2.6543 -5.34863c-22.6514 -44.2305 -54.249 -93.1162 -109.985 -91.0596c-35.4072 1.30859 -60.2168 23.9453 -64.792 58.3652c-3.63867 27.3799 4.36035 56.1846 13.3945 81.8184c9.67578 27.4521 22.4941 53.7705 38.0723 78.3574
c14.999 23.6758 32.4512 48.8604 57.7236 62.3574c22.7861 12.1621 56.1084 16.1904 77.8701 -0.452148c4.57227 -3.49609 8.65234 -7.99512 12.3018 -13.041c5.46875 22.1445 52.5498 23.2197 61.8867 3.68555c37.2598 -77.9609 -12.8691 -168.791 13.8799 -249.617
c4.88867 -14.7764 12.1396 -29.4873 22.3809 -41.2891c9.76367 -11.2578 18.1895 -11.3926 31.4678 -5.10742c37.0156 17.5176 62.1602 61.4785 79.2588 96.6494c61.2783 126.03 54.5449 302.339 -68.7988 389.017c-119.14 83.7217 -276.655 24.2412 -357.923 -83.4727
c-84.1045 -111.466 -122.859 -279.488 -55.9775 -408.03c27.248 -52.3682 72.8379 -99.8291 128.913 -120.872c68.4893 -25.7031 137.737 -4.20801 202.209 22.7705c11.3379 4.74707 29.7129 3.27734 39.5342 -4.49902c8.73535 -6.91992 8.03125 -17.7109 -2.39551 -22.9385
c-87.5498 -43.9092 -194.039 -61.3359 -286.171 -21.0137c-74.7275 32.7021 -133.6 98.501 -159.703 175.696c-54.5732 161.384 20.7959 345.973 145.091 453.825c64.541 56.0029 148.208 86.999 233.92 78.1543c71.5811 -7.38672 143.111 -45.5361 190.272 -99.7559z
M375.4 194.258c13.1143 28.7871 23.4824 58.6758 35.0391 88.082c-3 1.21387 -5.38477 2.99316 -6.52539 5.36328c-5.08594 10.5723 -10.2959 20.7734 -18.6338 29.1045c-0.433594 0.433594 -0.74707 0.750977 -1.03516 1.0498
c-2.7998 -2.28223 -5.12598 -6.13965 -7.15332 -8.70996c-14.8643 -18.8301 -26.6436 -41.292 -36.7715 -62.9736c-18.2402 -39.042 -42.1641 -96.7803 -24.3066 -139.334c0.15332 -0.364258 0.34668 -0.736328 0.543945 -1.1084
c9.94922 7.86035 18.7207 18.4512 25.9209 28.7324c13.0596 18.6367 23.5049 39.126 32.9219 59.7939z" />
    <glyph glyph-name="A" unicode="A" horiz-adv-x="708" 
d="M255.084 188.106c-4.35352 -30.6826 -8.20898 -61.4365 -11.4609 -92.251c-5.76367 -54.792 -10.5762 -109.96 -2.8291 -164.803c1.99805 -14.127 -34.6016 -15.749 -39.3408 -1.69434c-2.00195 1.02832 -3.66797 2.34473 -4.79492 3.98926
c-11.8232 17.2412 -26.2783 33.0527 -36.0127 51.5146c-9.51562 18.0469 -15.9102 36.9287 -21.918 56.3857c-11.9873 38.8164 -22.0498 76.5537 -40.2422 113.092c-7.21484 14.4844 -13.9307 30.4561 -21.5684 45.9355c-3.08398 0.78418 -6.16113 1.59766 -9.22363 2.47949
c-6.11719 1.76074 -17.5645 8.53809 -24.0537 7.62988c-7.51074 -1.0498 -15.418 -12.0342 -19.9385 -17.335c-11.3125 -13.2637 -20.1387 -24.1465 -39.1328 -23.0127c-14.1094 0.841797 -24.332 7.6416 -25.3457 22.3271c-1.3418 19.4717 3.61621 42.2686 8.47949 61.1133
c3.87207 14.999 8.53906 25.4619 22.5752 33.373c34.9414 19.6982 82.6025 2.43164 107.74 -25.4004c12.7822 -14.1533 22.6699 -30.7305 30.4971 -48.2998c29.6289 -3.68555 59.918 -3.58691 89.7695 -3.43359c6.45312 43.1074 13.9922 86.0547 22.7236 128.75
c22.4219 109.628 51.2822 225.454 107.664 323.16c23.8613 41.3467 60.7051 89.1787 113.259 89.1055c52.1855 -0.0693359 82.7812 -52.1855 99.4385 -95.0596c21.3135 -54.8545 30.3145 -116.668 36.9609 -174.854c6.97461 -61.0596 10.2305 -122.301 12.4619 -183.688
c0.995117 -27.3799 1.81934 -54.7705 2.54883 -82.165c41.2559 -0.412109 82.457 -2.75293 123.577 -6.94238c6.75586 -0.689453 17.7803 -5.98633 14.4404 -14.499c-3.45996 -8.81543 -17.8604 -9.02344 -25.4365 -8.23242
c-37.249 3.88672 -74.5967 5.98633 -111.984 6.44238c2.2207 -91.1152 3.25977 -182.273 4.21484 -273.392c0.441406 -42.2139 -107.882 -41.9951 -107.55 0c0.710938 89.7402 1.70605 179.488 3.60156 269.214c-84.126 0.182617 -168.256 0.368164 -252.382 0.553711
c-2.24609 0.00390625 -4.49219 -0.00292969 -6.73828 -0.00292969zM349.77 575.405c-40.2568 -100.011 -64.5557 -205.565 -82.8359 -311.569c-3.10645 -17.9951 -5.94629 -36.0381 -8.66602 -54.0957c85.4639 -0.15332 170.928 -0.310547 256.392 -0.463867
c0.750977 32.8193 1.62598 65.6348 2.66895 98.4463c3.45605 108.808 8.80469 219.693 -7.21484 327.794c-3.76562 25.4111 -9.48242 52.7686 -23.7812 74.6289c-18.0645 27.6133 -41.8711 15.0205 -61.2588 -4.12012c-35.9365 -35.4805 -56.7539 -84.5342 -75.3037 -130.62
zM26.6055 262.637c-2.04199 1.45801 -1.41504 0.349609 0 0zM20.2002 227.226c14.0361 5.73828 27.1621 4.87988 40.4404 1.75879c-5.80762 8.65137 -12.293 16.6572 -19.8438 23.5078c-3.9668 3.60156 -8.5166 5.52246 -12.5273 8.84766
c-0.0947266 0.0761719 -0.164062 0.126953 -0.251953 0.200195c-4.46289 -5.18457 -10.668 -8.85254 -14.2695 -15.3057c-5.25391 -9.40625 -7.99219 -19.8691 -10.0303 -30.3799c4.7832 4.61914 10.0225 8.73145 16.4824 11.3711zM184.406 48.4209
c4.17773 -9.65723 8.53027 -19.2354 12.9121 -28.8057c1.55273 39.6299 6.49316 79.2881 11.2402 118.374c2.03027 16.709 4.21777 33.4033 6.56934 50.0713c-25.9756 0.0361328 -51.9512 0.499023 -77.8145 2.61328c3.28809 -9.5918 6.11035 -19.2891 8.5498 -28.8955
c9.95312 -39.2246 22.4541 -76.1631 38.543 -113.357z" />
    <glyph glyph-name="A" unicode="&#xc5;" horiz-adv-x="708" 
d="M255.084 188.106c-4.35352 -30.6826 -8.20898 -61.4365 -11.4609 -92.251c-5.76367 -54.792 -10.5762 -109.96 -2.8291 -164.803c1.99805 -14.127 -34.6016 -15.749 -39.3408 -1.69434c-2.00195 1.02832 -3.66797 2.34473 -4.79492 3.98926
c-11.8232 17.2412 -26.2783 33.0527 -36.0127 51.5146c-9.51562 18.0469 -15.9102 36.9287 -21.918 56.3857c-11.9873 38.8164 -22.0498 76.5537 -40.2422 113.092c-7.21484 14.4844 -13.9307 30.4561 -21.5684 45.9355c-3.08398 0.78418 -6.16113 1.59766 -9.22363 2.47949
c-6.11719 1.76074 -17.5645 8.53809 -24.0537 7.62988c-7.51074 -1.0498 -15.418 -12.0342 -19.9385 -17.335c-11.3125 -13.2637 -20.1387 -24.1465 -39.1328 -23.0127c-14.1094 0.841797 -24.332 7.6416 -25.3457 22.3271c-1.3418 19.4717 3.61621 42.2686 8.47949 61.1133
c3.87207 14.999 8.53906 25.4619 22.5752 33.373c34.9414 19.6982 82.6025 2.43164 107.74 -25.4004c12.7822 -14.1533 22.6699 -30.7305 30.4971 -48.2998c29.6289 -3.68555 59.918 -3.58691 89.7695 -3.43359c6.45312 43.1074 13.9922 86.0547 22.7236 128.75
c22.4219 109.628 51.2822 225.454 107.664 323.16c23.8613 41.3467 60.7051 89.1787 113.259 89.1055c52.1855 -0.0693359 82.7812 -52.1855 99.4385 -95.0596c21.3135 -54.8545 30.3145 -116.668 36.9609 -174.854c6.97461 -61.0596 10.2305 -122.301 12.4619 -183.688
c0.995117 -27.3799 1.81934 -54.7705 2.54883 -82.165c41.2559 -0.412109 82.457 -2.75293 123.577 -6.94238c6.75586 -0.689453 17.7803 -5.98633 14.4404 -14.499c-3.45996 -8.81543 -17.8604 -9.02344 -25.4365 -8.23242
c-37.249 3.88672 -74.5967 5.98633 -111.984 6.44238c2.2207 -91.1152 3.25977 -182.273 4.21484 -273.392c0.441406 -42.2139 -107.882 -41.9951 -107.55 0c0.710938 89.7402 1.70605 179.488 3.60156 269.214c-84.126 0.182617 -168.256 0.368164 -252.382 0.553711
c-2.24609 0.00390625 -4.49219 -0.00292969 -6.73828 -0.00292969zM349.77 575.405c-40.2568 -100.011 -64.5557 -205.565 -82.8359 -311.569c-3.10645 -17.9951 -5.94629 -36.0381 -8.66602 -54.0957c85.4639 -0.15332 170.928 -0.310547 256.392 -0.463867
c0.750977 32.8193 1.62598 65.6348 2.66895 98.4463c3.45605 108.808 8.80469 219.693 -7.21484 327.794c-3.76562 25.4111 -9.48242 52.7686 -23.7812 74.6289c-18.0645 27.6133 -41.8711 15.0205 -61.2588 -4.12012c-35.9365 -35.4805 -56.7539 -84.5342 -75.3037 -130.62
zM26.6055 262.637c-2.04199 1.45801 -1.41504 0.349609 0 0zM20.2002 227.226c14.0361 5.73828 27.1621 4.87988 40.4404 1.75879c-5.80762 8.65137 -12.293 16.6572 -19.8438 23.5078c-3.9668 3.60156 -8.5166 5.52246 -12.5273 8.84766
c-0.0947266 0.0761719 -0.164062 0.126953 -0.251953 0.200195c-4.46289 -5.18457 -10.668 -8.85254 -14.2695 -15.3057c-5.25391 -9.40625 -7.99219 -19.8691 -10.0303 -30.3799c4.7832 4.61914 10.0225 8.73145 16.4824 11.3711zM184.406 48.4209
c4.17773 -9.65723 8.53027 -19.2354 12.9121 -28.8057c1.55273 39.6299 6.49316 79.2881 11.2402 118.374c2.03027 16.709 4.21777 33.4033 6.56934 50.0713c-25.9756 0.0361328 -51.9512 0.499023 -77.8145 2.61328c3.28809 -9.5918 6.11035 -19.2891 8.5498 -28.8955
c9.95312 -39.2246 22.4541 -76.1631 38.543 -113.357z" />
    <glyph glyph-name="A" unicode="&#xc4;" horiz-adv-x="708" 
d="M255.084 188.106c-4.35352 -30.6826 -8.20898 -61.4365 -11.4609 -92.251c-5.76367 -54.792 -10.5762 -109.96 -2.8291 -164.803c1.99805 -14.127 -34.6016 -15.749 -39.3408 -1.69434c-2.00195 1.02832 -3.66797 2.34473 -4.79492 3.98926
c-11.8232 17.2412 -26.2783 33.0527 -36.0127 51.5146c-9.51562 18.0469 -15.9102 36.9287 -21.918 56.3857c-11.9873 38.8164 -22.0498 76.5537 -40.2422 113.092c-7.21484 14.4844 -13.9307 30.4561 -21.5684 45.9355c-3.08398 0.78418 -6.16113 1.59766 -9.22363 2.47949
c-6.11719 1.76074 -17.5645 8.53809 -24.0537 7.62988c-7.51074 -1.0498 -15.418 -12.0342 -19.9385 -17.335c-11.3125 -13.2637 -20.1387 -24.1465 -39.1328 -23.0127c-14.1094 0.841797 -24.332 7.6416 -25.3457 22.3271c-1.3418 19.4717 3.61621 42.2686 8.47949 61.1133
c3.87207 14.999 8.53906 25.4619 22.5752 33.373c34.9414 19.6982 82.6025 2.43164 107.74 -25.4004c12.7822 -14.1533 22.6699 -30.7305 30.4971 -48.2998c29.6289 -3.68555 59.918 -3.58691 89.7695 -3.43359c6.45312 43.1074 13.9922 86.0547 22.7236 128.75
c22.4219 109.628 51.2822 225.454 107.664 323.16c23.8613 41.3467 60.7051 89.1787 113.259 89.1055c52.1855 -0.0693359 82.7812 -52.1855 99.4385 -95.0596c21.3135 -54.8545 30.3145 -116.668 36.9609 -174.854c6.97461 -61.0596 10.2305 -122.301 12.4619 -183.688
c0.995117 -27.3799 1.81934 -54.7705 2.54883 -82.165c41.2559 -0.412109 82.457 -2.75293 123.577 -6.94238c6.75586 -0.689453 17.7803 -5.98633 14.4404 -14.499c-3.45996 -8.81543 -17.8604 -9.02344 -25.4365 -8.23242
c-37.249 3.88672 -74.5967 5.98633 -111.984 6.44238c2.2207 -91.1152 3.25977 -182.273 4.21484 -273.392c0.441406 -42.2139 -107.882 -41.9951 -107.55 0c0.710938 89.7402 1.70605 179.488 3.60156 269.214c-84.126 0.182617 -168.256 0.368164 -252.382 0.553711
c-2.24609 0.00390625 -4.49219 -0.00292969 -6.73828 -0.00292969zM349.77 575.405c-40.2568 -100.011 -64.5557 -205.565 -82.8359 -311.569c-3.10645 -17.9951 -5.94629 -36.0381 -8.66602 -54.0957c85.4639 -0.15332 170.928 -0.310547 256.392 -0.463867
c0.750977 32.8193 1.62598 65.6348 2.66895 98.4463c3.45605 108.808 8.80469 219.693 -7.21484 327.794c-3.76562 25.4111 -9.48242 52.7686 -23.7812 74.6289c-18.0645 27.6133 -41.8711 15.0205 -61.2588 -4.12012c-35.9365 -35.4805 -56.7539 -84.5342 -75.3037 -130.62
zM26.6055 262.637c-2.04199 1.45801 -1.41504 0.349609 0 0zM20.2002 227.226c14.0361 5.73828 27.1621 4.87988 40.4404 1.75879c-5.80762 8.65137 -12.293 16.6572 -19.8438 23.5078c-3.9668 3.60156 -8.5166 5.52246 -12.5273 8.84766
c-0.0947266 0.0761719 -0.164062 0.126953 -0.251953 0.200195c-4.46289 -5.18457 -10.668 -8.85254 -14.2695 -15.3057c-5.25391 -9.40625 -7.99219 -19.8691 -10.0303 -30.3799c4.7832 4.61914 10.0225 8.73145 16.4824 11.3711zM184.406 48.4209
c4.17773 -9.65723 8.53027 -19.2354 12.9121 -28.8057c1.55273 39.6299 6.49316 79.2881 11.2402 118.374c2.03027 16.709 4.21777 33.4033 6.56934 50.0713c-25.9756 0.0361328 -51.9512 0.499023 -77.8145 2.61328c3.28809 -9.5918 6.11035 -19.2891 8.5498 -28.8955
c9.95312 -39.2246 22.4541 -76.1631 38.543 -113.357z" />
    <glyph glyph-name="A" unicode="&#xc3;" horiz-adv-x="708" 
d="M255.084 188.106c-4.35352 -30.6826 -8.20898 -61.4365 -11.4609 -92.251c-5.76367 -54.792 -10.5762 -109.96 -2.8291 -164.803c1.99805 -14.127 -34.6016 -15.749 -39.3408 -1.69434c-2.00195 1.02832 -3.66797 2.34473 -4.79492 3.98926
c-11.8232 17.2412 -26.2783 33.0527 -36.0127 51.5146c-9.51562 18.0469 -15.9102 36.9287 -21.918 56.3857c-11.9873 38.8164 -22.0498 76.5537 -40.2422 113.092c-7.21484 14.4844 -13.9307 30.4561 -21.5684 45.9355c-3.08398 0.78418 -6.16113 1.59766 -9.22363 2.47949
c-6.11719 1.76074 -17.5645 8.53809 -24.0537 7.62988c-7.51074 -1.0498 -15.418 -12.0342 -19.9385 -17.335c-11.3125 -13.2637 -20.1387 -24.1465 -39.1328 -23.0127c-14.1094 0.841797 -24.332 7.6416 -25.3457 22.3271c-1.3418 19.4717 3.61621 42.2686 8.47949 61.1133
c3.87207 14.999 8.53906 25.4619 22.5752 33.373c34.9414 19.6982 82.6025 2.43164 107.74 -25.4004c12.7822 -14.1533 22.6699 -30.7305 30.4971 -48.2998c29.6289 -3.68555 59.918 -3.58691 89.7695 -3.43359c6.45312 43.1074 13.9922 86.0547 22.7236 128.75
c22.4219 109.628 51.2822 225.454 107.664 323.16c23.8613 41.3467 60.7051 89.1787 113.259 89.1055c52.1855 -0.0693359 82.7812 -52.1855 99.4385 -95.0596c21.3135 -54.8545 30.3145 -116.668 36.9609 -174.854c6.97461 -61.0596 10.2305 -122.301 12.4619 -183.688
c0.995117 -27.3799 1.81934 -54.7705 2.54883 -82.165c41.2559 -0.412109 82.457 -2.75293 123.577 -6.94238c6.75586 -0.689453 17.7803 -5.98633 14.4404 -14.499c-3.45996 -8.81543 -17.8604 -9.02344 -25.4365 -8.23242
c-37.249 3.88672 -74.5967 5.98633 -111.984 6.44238c2.2207 -91.1152 3.25977 -182.273 4.21484 -273.392c0.441406 -42.2139 -107.882 -41.9951 -107.55 0c0.710938 89.7402 1.70605 179.488 3.60156 269.214c-84.126 0.182617 -168.256 0.368164 -252.382 0.553711
c-2.24609 0.00390625 -4.49219 -0.00292969 -6.73828 -0.00292969zM349.77 575.405c-40.2568 -100.011 -64.5557 -205.565 -82.8359 -311.569c-3.10645 -17.9951 -5.94629 -36.0381 -8.66602 -54.0957c85.4639 -0.15332 170.928 -0.310547 256.392 -0.463867
c0.750977 32.8193 1.62598 65.6348 2.66895 98.4463c3.45605 108.808 8.80469 219.693 -7.21484 327.794c-3.76562 25.4111 -9.48242 52.7686 -23.7812 74.6289c-18.0645 27.6133 -41.8711 15.0205 -61.2588 -4.12012c-35.9365 -35.4805 -56.7539 -84.5342 -75.3037 -130.62
zM26.6055 262.637c-2.04199 1.45801 -1.41504 0.349609 0 0zM20.2002 227.226c14.0361 5.73828 27.1621 4.87988 40.4404 1.75879c-5.80762 8.65137 -12.293 16.6572 -19.8438 23.5078c-3.9668 3.60156 -8.5166 5.52246 -12.5273 8.84766
c-0.0947266 0.0761719 -0.164062 0.126953 -0.251953 0.200195c-4.46289 -5.18457 -10.668 -8.85254 -14.2695 -15.3057c-5.25391 -9.40625 -7.99219 -19.8691 -10.0303 -30.3799c4.7832 4.61914 10.0225 8.73145 16.4824 11.3711zM184.406 48.4209
c4.17773 -9.65723 8.53027 -19.2354 12.9121 -28.8057c1.55273 39.6299 6.49316 79.2881 11.2402 118.374c2.03027 16.709 4.21777 33.4033 6.56934 50.0713c-25.9756 0.0361328 -51.9512 0.499023 -77.8145 2.61328c3.28809 -9.5918 6.11035 -19.2891 8.5498 -28.8955
c9.95312 -39.2246 22.4541 -76.1631 38.543 -113.357z" />
    <glyph glyph-name="A" unicode="&#xc2;" horiz-adv-x="708" 
d="M255.084 188.106c-4.35352 -30.6826 -8.20898 -61.4365 -11.4609 -92.251c-5.76367 -54.792 -10.5762 -109.96 -2.8291 -164.803c1.99805 -14.127 -34.6016 -15.749 -39.3408 -1.69434c-2.00195 1.02832 -3.66797 2.34473 -4.79492 3.98926
c-11.8232 17.2412 -26.2783 33.0527 -36.0127 51.5146c-9.51562 18.0469 -15.9102 36.9287 -21.918 56.3857c-11.9873 38.8164 -22.0498 76.5537 -40.2422 113.092c-7.21484 14.4844 -13.9307 30.4561 -21.5684 45.9355c-3.08398 0.78418 -6.16113 1.59766 -9.22363 2.47949
c-6.11719 1.76074 -17.5645 8.53809 -24.0537 7.62988c-7.51074 -1.0498 -15.418 -12.0342 -19.9385 -17.335c-11.3125 -13.2637 -20.1387 -24.1465 -39.1328 -23.0127c-14.1094 0.841797 -24.332 7.6416 -25.3457 22.3271c-1.3418 19.4717 3.61621 42.2686 8.47949 61.1133
c3.87207 14.999 8.53906 25.4619 22.5752 33.373c34.9414 19.6982 82.6025 2.43164 107.74 -25.4004c12.7822 -14.1533 22.6699 -30.7305 30.4971 -48.2998c29.6289 -3.68555 59.918 -3.58691 89.7695 -3.43359c6.45312 43.1074 13.9922 86.0547 22.7236 128.75
c22.4219 109.628 51.2822 225.454 107.664 323.16c23.8613 41.3467 60.7051 89.1787 113.259 89.1055c52.1855 -0.0693359 82.7812 -52.1855 99.4385 -95.0596c21.3135 -54.8545 30.3145 -116.668 36.9609 -174.854c6.97461 -61.0596 10.2305 -122.301 12.4619 -183.688
c0.995117 -27.3799 1.81934 -54.7705 2.54883 -82.165c41.2559 -0.412109 82.457 -2.75293 123.577 -6.94238c6.75586 -0.689453 17.7803 -5.98633 14.4404 -14.499c-3.45996 -8.81543 -17.8604 -9.02344 -25.4365 -8.23242
c-37.249 3.88672 -74.5967 5.98633 -111.984 6.44238c2.2207 -91.1152 3.25977 -182.273 4.21484 -273.392c0.441406 -42.2139 -107.882 -41.9951 -107.55 0c0.710938 89.7402 1.70605 179.488 3.60156 269.214c-84.126 0.182617 -168.256 0.368164 -252.382 0.553711
c-2.24609 0.00390625 -4.49219 -0.00292969 -6.73828 -0.00292969zM349.77 575.405c-40.2568 -100.011 -64.5557 -205.565 -82.8359 -311.569c-3.10645 -17.9951 -5.94629 -36.0381 -8.66602 -54.0957c85.4639 -0.15332 170.928 -0.310547 256.392 -0.463867
c0.750977 32.8193 1.62598 65.6348 2.66895 98.4463c3.45605 108.808 8.80469 219.693 -7.21484 327.794c-3.76562 25.4111 -9.48242 52.7686 -23.7812 74.6289c-18.0645 27.6133 -41.8711 15.0205 -61.2588 -4.12012c-35.9365 -35.4805 -56.7539 -84.5342 -75.3037 -130.62
zM26.6055 262.637c-2.04199 1.45801 -1.41504 0.349609 0 0zM20.2002 227.226c14.0361 5.73828 27.1621 4.87988 40.4404 1.75879c-5.80762 8.65137 -12.293 16.6572 -19.8438 23.5078c-3.9668 3.60156 -8.5166 5.52246 -12.5273 8.84766
c-0.0947266 0.0761719 -0.164062 0.126953 -0.251953 0.200195c-4.46289 -5.18457 -10.668 -8.85254 -14.2695 -15.3057c-5.25391 -9.40625 -7.99219 -19.8691 -10.0303 -30.3799c4.7832 4.61914 10.0225 8.73145 16.4824 11.3711zM184.406 48.4209
c4.17773 -9.65723 8.53027 -19.2354 12.9121 -28.8057c1.55273 39.6299 6.49316 79.2881 11.2402 118.374c2.03027 16.709 4.21777 33.4033 6.56934 50.0713c-25.9756 0.0361328 -51.9512 0.499023 -77.8145 2.61328c3.28809 -9.5918 6.11035 -19.2891 8.5498 -28.8955
c9.95312 -39.2246 22.4541 -76.1631 38.543 -113.357z" />
    <glyph glyph-name="A" unicode="&#xc1;" horiz-adv-x="708" 
d="M255.084 188.106c-4.35352 -30.6826 -8.20898 -61.4365 -11.4609 -92.251c-5.76367 -54.792 -10.5762 -109.96 -2.8291 -164.803c1.99805 -14.127 -34.6016 -15.749 -39.3408 -1.69434c-2.00195 1.02832 -3.66797 2.34473 -4.79492 3.98926
c-11.8232 17.2412 -26.2783 33.0527 -36.0127 51.5146c-9.51562 18.0469 -15.9102 36.9287 -21.918 56.3857c-11.9873 38.8164 -22.0498 76.5537 -40.2422 113.092c-7.21484 14.4844 -13.9307 30.4561 -21.5684 45.9355c-3.08398 0.78418 -6.16113 1.59766 -9.22363 2.47949
c-6.11719 1.76074 -17.5645 8.53809 -24.0537 7.62988c-7.51074 -1.0498 -15.418 -12.0342 -19.9385 -17.335c-11.3125 -13.2637 -20.1387 -24.1465 -39.1328 -23.0127c-14.1094 0.841797 -24.332 7.6416 -25.3457 22.3271c-1.3418 19.4717 3.61621 42.2686 8.47949 61.1133
c3.87207 14.999 8.53906 25.4619 22.5752 33.373c34.9414 19.6982 82.6025 2.43164 107.74 -25.4004c12.7822 -14.1533 22.6699 -30.7305 30.4971 -48.2998c29.6289 -3.68555 59.918 -3.58691 89.7695 -3.43359c6.45312 43.1074 13.9922 86.0547 22.7236 128.75
c22.4219 109.628 51.2822 225.454 107.664 323.16c23.8613 41.3467 60.7051 89.1787 113.259 89.1055c52.1855 -0.0693359 82.7812 -52.1855 99.4385 -95.0596c21.3135 -54.8545 30.3145 -116.668 36.9609 -174.854c6.97461 -61.0596 10.2305 -122.301 12.4619 -183.688
c0.995117 -27.3799 1.81934 -54.7705 2.54883 -82.165c41.2559 -0.412109 82.457 -2.75293 123.577 -6.94238c6.75586 -0.689453 17.7803 -5.98633 14.4404 -14.499c-3.45996 -8.81543 -17.8604 -9.02344 -25.4365 -8.23242
c-37.249 3.88672 -74.5967 5.98633 -111.984 6.44238c2.2207 -91.1152 3.25977 -182.273 4.21484 -273.392c0.441406 -42.2139 -107.882 -41.9951 -107.55 0c0.710938 89.7402 1.70605 179.488 3.60156 269.214c-84.126 0.182617 -168.256 0.368164 -252.382 0.553711
c-2.24609 0.00390625 -4.49219 -0.00292969 -6.73828 -0.00292969zM349.77 575.405c-40.2568 -100.011 -64.5557 -205.565 -82.8359 -311.569c-3.10645 -17.9951 -5.94629 -36.0381 -8.66602 -54.0957c85.4639 -0.15332 170.928 -0.310547 256.392 -0.463867
c0.750977 32.8193 1.62598 65.6348 2.66895 98.4463c3.45605 108.808 8.80469 219.693 -7.21484 327.794c-3.76562 25.4111 -9.48242 52.7686 -23.7812 74.6289c-18.0645 27.6133 -41.8711 15.0205 -61.2588 -4.12012c-35.9365 -35.4805 -56.7539 -84.5342 -75.3037 -130.62
zM26.6055 262.637c-2.04199 1.45801 -1.41504 0.349609 0 0zM20.2002 227.226c14.0361 5.73828 27.1621 4.87988 40.4404 1.75879c-5.80762 8.65137 -12.293 16.6572 -19.8438 23.5078c-3.9668 3.60156 -8.5166 5.52246 -12.5273 8.84766
c-0.0947266 0.0761719 -0.164062 0.126953 -0.251953 0.200195c-4.46289 -5.18457 -10.668 -8.85254 -14.2695 -15.3057c-5.25391 -9.40625 -7.99219 -19.8691 -10.0303 -30.3799c4.7832 4.61914 10.0225 8.73145 16.4824 11.3711zM184.406 48.4209
c4.17773 -9.65723 8.53027 -19.2354 12.9121 -28.8057c1.55273 39.6299 6.49316 79.2881 11.2402 118.374c2.03027 16.709 4.21777 33.4033 6.56934 50.0713c-25.9756 0.0361328 -51.9512 0.499023 -77.8145 2.61328c3.28809 -9.5918 6.11035 -19.2891 8.5498 -28.8955
c9.95312 -39.2246 22.4541 -76.1631 38.543 -113.357z" />
    <glyph glyph-name="B" unicode="B" horiz-adv-x="485" 
d="M284.189 -68.5254c-85.6826 -2.10742 -158.979 53.0977 -199.64 125.131c0.0693359 -4.01758 0.120117 -8.03906 0.196289 -12.0566c0.540039 -27.9189 4.99121 -58.5693 0.149414 -86.124c-4.95117 -28.1777 -67.9131 -32.2686 -78.2158 -6.0332
c-11.1309 28.3496 -12.7461 62.1025 -16.2314 92.1582c-3.33203 28.7285 -5.80371 57.4023 -7.30957 86.2842c-3.00781 57.6357 -3.71191 115.191 -2.70898 172.89c2.04199 117.496 6.34082 236.188 19.3965 353.023c4.52832 40.5518 104.991 40.249 103.562 0
c-3.42676 -96.5693 -11.8301 -192.854 -16.3584 -289.383c4.95801 2.37305 9.89453 4.7793 14.8125 7.22559c20.46 82.54 45.3643 167.632 93.6084 237.576c23.3984 33.9238 54.0811 67.0205 94.8809 78.9385c35.7686 10.4492 76.9473 2.6875 98.0088 -30.2588
c21.0508 -32.9326 13.1865 -76.5908 -1.7793 -110.311c-16.9453 -38.1709 -43.665 -72.9258 -71.4863 -103.787c-33.0674 -36.6768 -72.0479 -68.4492 -114.164 -95.2422c50.0742 -10.1064 97.7939 -30.916 138.148 -62.8965
c34.6416 -27.4492 62.3389 -64.2383 79.8311 -105.217c30.7373 1.74609 61.46 3.78809 92.0693 5.26855c21.5576 1.04297 20.7666 -18.5127 0 -19.9346c-27.8867 -1.90625 -55.9521 -4.35645 -84.0752 -6.51074c7.83105 -23.752 12.2715 -48.5508 12.6904 -73.499
c0.645508 -38.3428 -11.3125 -76.4229 -35.7461 -106.184c-28.6152 -34.8535 -75.8281 -49.9795 -119.64 -51.0586zM335.979 121.908c-2.02344 11.8926 -5.24609 23.7275 -9.41699 35.3174c-17.4453 -0.160156 -34.8574 0.149414 -52.2148 1.19238
c-50.1074 3.00781 -105.523 13.0879 -152.284 36.4678c7.04395 -39.9287 17.4238 -79.0078 36.334 -115.677c13.9854 -27.1172 31.9375 -51.4854 55.3799 -71.1982c18.8525 -15.8516 47.8105 -33.0195 73.582 -26.96c56.3018 13.2373 56.0684 97.0537 48.6201 140.857z
M316.92 179.982c-16.4355 33.501 -41.2441 63.418 -71.2236 83.8994c-23.3984 15.9863 -51.6572 28.1924 -77.3564 33.0234c-16.4639 3.0957 -29.9863 4.27734 -43.8076 3.7373c-2.82227 -12.8877 -5.56348 -25.7686 -8.23535 -38.6123
c-0.80957 -3.88281 -1.55371 -7.78027 -2.34082 -11.667c0.324219 -2.56641 0.652344 -5.12891 0.984375 -7.69531c4.27637 -1.26855 8.29785 -3.22266 11.6924 -5.99023c24.7295 -20.1533 48.0547 -35.2686 78.9199 -44.2549
c31.2295 -9.09277 64.0957 -11.915 96.4922 -12.4033c4.95508 -0.0732422 9.91699 -0.0332031 14.875 -0.0371094zM187.233 515.094c-15.2939 -37.5371 -27.8193 -76.3604 -38.6543 -115.705c40.8613 23.2051 79.751 49.6621 115.523 80.9424
c29.4902 25.7861 60.5664 55.0801 81.2197 88.6172c17.5977 28.5723 24.3135 70.9688 -4.80859 95.5342c-32.1592 27.1279 -76.3682 -20.5693 -95.1113 -43.8984c-25.1377 -31.292 -43.1006 -68.5039 -58.1689 -105.49z" />
    <glyph glyph-name="C" unicode="C" horiz-adv-x="340" 
d="M135.143 460.361c41.0039 14.1348 74.8633 44.9023 93.9492 83.7988c9.67188 19.7129 17.7109 43.2422 15.0244 65.416c-1.73145 14.2803 -6.58008 22.9648 -15.8369 33.2607c-5.81152 6.46387 -5.87305 3.17871 -13.5508 -2.57031
c-2.70898 -2.02734 -5.16992 -4.09766 -7.71094 -6.37598c-30.9746 -27.7803 -50.3301 -66.7646 -68.085 -103.711c-18.9072 -39.3418 -33.9209 -79.8496 -45.292 -122.009c-22.4688 -83.3203 -39.5781 -174.348 -32.0244 -260.861
c5.93164 -67.9502 31.9111 -183.444 124.779 -154.194c40.4385 12.7383 72.6924 45.2734 96.915 78.8877c25.3311 35.1523 46.5352 74.4248 57.8262 116.388c3.57324 13.2852 41.1279 10.5254 36.8037 -5.78223c-15.0713 -56.8516 -48.2256 -113.24 -89.2803 -155.399
c-38.499 -39.5342 -84.7852 -59.4111 -139.453 -62.3096c-51.7148 -2.74121 -100.455 13.8359 -131.283 57.0059c-32.0859 44.9336 -44.1641 103.528 -46.4863 157.811c-2.47168 57.8076 5.84766 115.151 17.1572 171.687c10.6201 53.1006 23.9668 106.016 44.4121 156.266
c20.2773 49.8379 50.2676 98.4326 90.5713 134.683c36.2676 32.6182 108.126 60.4316 143.938 11.6914c28.1709 -38.3428 10.2373 -96.9736 -12.9824 -133.533c-23.5771 -37.1211 -58.9082 -64.3223 -100.328 -78.7373c-14.6777 -5.10742 -42.3857 10.5508 -19.0635 18.5898
z" />
    <glyph glyph-name="D" unicode="D" horiz-adv-x="470" 
d="M52.4326 697.066c12.8223 0 47.7119 -6.10059 44.9922 -25.6494c-9.10352 -65.5693 -15.9834 -131.419 -20.7119 -197.426c3.25195 7.80176 6.60254 15.5674 10.0693 23.2852c24.6709 54.9346 55.2041 112.61 102.865 151.193
c39.8994 32.3018 94.9062 31.8242 133.504 -2.95605c18.79 -16.9307 30.0303 -40.7119 41.668 -62.6924c14.3135 -27.0332 24.2412 -55.667 31.0117 -85.4307c13.8506 -60.9062 15.6592 -124.131 13.5596 -186.354c-1.40039 -41.4775 -5.66211 -83.7178 -13.1543 -125.075
c29.1738 -3.90137 60.9902 -5.74219 85.4424 7.10156c6.7959 3.56934 18.0908 4.61914 24.7334 0c5.74219 -3.99219 6.82129 -10.3213 0 -14.0986c-34.7227 -19.2314 -75.8574 -17.0879 -114.262 -13.9199c-2.63574 -12.5195 -5.50879 -24.959 -8.79395 -37.209
c-13.5771 -50.6396 -35.8633 -108.942 -86.415 -133.14c-54.584 -26.126 -118.604 -9.96387 -162.473 28.7363c-26.5664 23.4346 -45.6885 53.6328 -60.6797 85.7852c0.921875 -12.541 2.08105 -25.0605 3.65234 -37.5547
c3.27051 -26.042 11.2549 -50.6514 15.3818 -76.3428c2.62891 -16.3516 -25.5605 -22.4658 -36.2539 -23.4062c-15.498 -1.36035 -37.4453 1.93555 -45.8779 17.0732c-13.2998 23.876 -18.2686 55.8496 -22.0674 82.6748c-3.68945 26.0527 -4.97266 52.459 -6.08105 78.7227
c-2.41309 57.1914 -3.08789 114.459 -2.11426 171.693c1.9873 116.872 11.1523 233.533 27 349.337c2.73828 20.0078 28.1201 25.6514 45.0039 25.6514zM221.905 27.6953c14.4629 9.66895 25.6914 25.5566 33.4785 40.7119c18.127 35.2803 29.4141 73.9805 37.6611 112.815
c-9.35547 2.18359 -18.6846 4.4873 -27.9707 6.91895c-66.0869 17.292 -130.996 39.7969 -195.767 62.0068c0.00390625 -0.546875 0 -1.09375 0.00390625 -1.64062c5.99316 -27.4521 13.7773 -54.5215 23.5332 -81.0771c17.2666 -46.9971 39.3672 -103.339 84.1484 -130.777
c13.3398 -8.17383 31.1348 -18.1631 44.9121 -8.95801zM172.107 580.067c-48.4883 -70.8154 -80.4277 -156.005 -101.894 -239.948c-0.124023 -4.81934 -0.306641 -9.64258 -0.405273 -14.4658c-0.324219 -15.9648 -0.492188 -31.9336 -0.557617 -47.9023
c61.5332 -19.3408 121.732 -43.1553 183.608 -61.4316c14.8203 -4.375 29.7275 -8.46582 44.7227 -12.1807c9.13281 49.0723 15.3857 98.9795 19.8447 148.671c4.59375 51.2158 9.55566 103.219 8.84082 154.683c-0.645508 46.3086 -0.860352 99.4385 -41.3682 130.453
c-23.0303 17.6309 -44.8066 13.6348 -66.167 -4.56152c-17.9258 -15.2725 -33.3545 -33.9316 -46.625 -53.3164z" />
    <glyph glyph-name="E" unicode="E" horiz-adv-x="367" 
d="M-8.78418 301.341c-17.7842 -3.66797 -32.7988 14.8604 -9.50195 19.665c18.71 3.85352 37.4824 7.30273 56.2979 10.4746c-0.353516 26.373 0.211914 52.7793 1.56836 79.1855c3.57324 69.6191 10.7373 140.489 25.543 208.738
c-19.4316 -2.09668 -38.8525 -4.29492 -58.252 -6.72266c-11.8926 -1.4873 -36.334 -0.681641 -41.8682 13.5518c-5.42871 13.9668 12.4248 22.6689 23.7744 23.8652c59.0107 6.21973 118.102 11.8564 177.269 16.3877c58.7773 4.50293 118.487 10.373 177.472 9.93555
c10.2227 -0.0761719 28.8447 -3.37207 31.4697 -15.8369c2.51562 -11.958 -13.1611 -19.1875 -22.9541 -20.041c-57.4648 -5.0127 -115.338 -6.06641 -172.883 -10.5322c-5.34082 -0.416016 -10.6777 -0.893555 -16.0156 -1.33105
c0.116211 -1.19629 0.0947266 -2.4502 -0.0878906 -3.75879c-9.5625 -69.0908 -21.0615 -137.424 -25.167 -207.186c-1.42871 -24.2627 -2.1543 -48.5693 -2.22363 -72.876c35.1055 3.71875 70.335 6.35059 105.662 7.80176c21.9072 0.900391 21.4658 -19.5088 0 -20.3906
c-35.3125 -1.45117 -70.5127 -4.21484 -105.578 -8.10156c0.408203 -31.1494 1.93164 -62.2881 4.58203 -93.3242c4.73242 -55.4443 10.3945 -114.607 35.9873 -164.912c10.6641 -20.9629 26.3223 -40.6533 45.8379 -54.0625
c9.23145 -6.34375 20.0264 -12.7461 31.4668 -10.5479c13.5254 2.59961 26.0381 13.0225 35.6191 22.3809c39.4365 38.5215 64.1553 96.3438 81.4541 147.778c3.98145 11.834 37.4863 9.07422 32.958 -5.18066c-11.3643 -35.7686 -26.3301 -70.082 -45.2002 -102.536
c-16.4785 -28.3389 -35.6768 -56.6445 -64.8281 -73.1963c-58.4922 -33.209 -122.118 -13.0117 -168.974 30.333c-49.9648 46.2207 -65.7764 109.927 -75.7549 174.901c-5.83691 37.9961 -9.125 76.1855 -10.3828 114.466
c-15.7939 -2.76367 -31.5693 -5.6875 -47.29 -8.92871z" />
    <glyph glyph-name="E" unicode="&#xcb;" horiz-adv-x="367" 
d="M-8.78418 301.341c-17.7842 -3.66797 -32.7988 14.8604 -9.50195 19.665c18.71 3.85352 37.4824 7.30273 56.2979 10.4746c-0.353516 26.373 0.211914 52.7793 1.56836 79.1855c3.57324 69.6191 10.7373 140.489 25.543 208.738
c-19.4316 -2.09668 -38.8525 -4.29492 -58.252 -6.72266c-11.8926 -1.4873 -36.334 -0.681641 -41.8682 13.5518c-5.42871 13.9668 12.4248 22.6689 23.7744 23.8652c59.0107 6.21973 118.102 11.8564 177.269 16.3877c58.7773 4.50293 118.487 10.373 177.472 9.93555
c10.2227 -0.0761719 28.8447 -3.37207 31.4697 -15.8369c2.51562 -11.958 -13.1611 -19.1875 -22.9541 -20.041c-57.4648 -5.0127 -115.338 -6.06641 -172.883 -10.5322c-5.34082 -0.416016 -10.6777 -0.893555 -16.0156 -1.33105
c0.116211 -1.19629 0.0947266 -2.4502 -0.0878906 -3.75879c-9.5625 -69.0908 -21.0615 -137.424 -25.167 -207.186c-1.42871 -24.2627 -2.1543 -48.5693 -2.22363 -72.876c35.1055 3.71875 70.335 6.35059 105.662 7.80176c21.9072 0.900391 21.4658 -19.5088 0 -20.3906
c-35.3125 -1.45117 -70.5127 -4.21484 -105.578 -8.10156c0.408203 -31.1494 1.93164 -62.2881 4.58203 -93.3242c4.73242 -55.4443 10.3945 -114.607 35.9873 -164.912c10.6641 -20.9629 26.3223 -40.6533 45.8379 -54.0625
c9.23145 -6.34375 20.0264 -12.7461 31.4668 -10.5479c13.5254 2.59961 26.0381 13.0225 35.6191 22.3809c39.4365 38.5215 64.1553 96.3438 81.4541 147.778c3.98145 11.834 37.4863 9.07422 32.958 -5.18066c-11.3643 -35.7686 -26.3301 -70.082 -45.2002 -102.536
c-16.4785 -28.3389 -35.6768 -56.6445 -64.8281 -73.1963c-58.4922 -33.209 -122.118 -13.0117 -168.974 30.333c-49.9648 46.2207 -65.7764 109.927 -75.7549 174.901c-5.83691 37.9961 -9.125 76.1855 -10.3828 114.466
c-15.7939 -2.76367 -31.5693 -5.6875 -47.29 -8.92871z" />
    <glyph glyph-name="E" unicode="&#xca;" horiz-adv-x="367" 
d="M-8.78418 301.341c-17.7842 -3.66797 -32.7988 14.8604 -9.50195 19.665c18.71 3.85352 37.4824 7.30273 56.2979 10.4746c-0.353516 26.373 0.211914 52.7793 1.56836 79.1855c3.57324 69.6191 10.7373 140.489 25.543 208.738
c-19.4316 -2.09668 -38.8525 -4.29492 -58.252 -6.72266c-11.8926 -1.4873 -36.334 -0.681641 -41.8682 13.5518c-5.42871 13.9668 12.4248 22.6689 23.7744 23.8652c59.0107 6.21973 118.102 11.8564 177.269 16.3877c58.7773 4.50293 118.487 10.373 177.472 9.93555
c10.2227 -0.0761719 28.8447 -3.37207 31.4697 -15.8369c2.51562 -11.958 -13.1611 -19.1875 -22.9541 -20.041c-57.4648 -5.0127 -115.338 -6.06641 -172.883 -10.5322c-5.34082 -0.416016 -10.6777 -0.893555 -16.0156 -1.33105
c0.116211 -1.19629 0.0947266 -2.4502 -0.0878906 -3.75879c-9.5625 -69.0908 -21.0615 -137.424 -25.167 -207.186c-1.42871 -24.2627 -2.1543 -48.5693 -2.22363 -72.876c35.1055 3.71875 70.335 6.35059 105.662 7.80176c21.9072 0.900391 21.4658 -19.5088 0 -20.3906
c-35.3125 -1.45117 -70.5127 -4.21484 -105.578 -8.10156c0.408203 -31.1494 1.93164 -62.2881 4.58203 -93.3242c4.73242 -55.4443 10.3945 -114.607 35.9873 -164.912c10.6641 -20.9629 26.3223 -40.6533 45.8379 -54.0625
c9.23145 -6.34375 20.0264 -12.7461 31.4668 -10.5479c13.5254 2.59961 26.0381 13.0225 35.6191 22.3809c39.4365 38.5215 64.1553 96.3438 81.4541 147.778c3.98145 11.834 37.4863 9.07422 32.958 -5.18066c-11.3643 -35.7686 -26.3301 -70.082 -45.2002 -102.536
c-16.4785 -28.3389 -35.6768 -56.6445 -64.8281 -73.1963c-58.4922 -33.209 -122.118 -13.0117 -168.974 30.333c-49.9648 46.2207 -65.7764 109.927 -75.7549 174.901c-5.83691 37.9961 -9.125 76.1855 -10.3828 114.466
c-15.7939 -2.76367 -31.5693 -5.6875 -47.29 -8.92871z" />
    <glyph glyph-name="E" unicode="&#xc9;" horiz-adv-x="367" 
d="M-8.78418 301.341c-17.7842 -3.66797 -32.7988 14.8604 -9.50195 19.665c18.71 3.85352 37.4824 7.30273 56.2979 10.4746c-0.353516 26.373 0.211914 52.7793 1.56836 79.1855c3.57324 69.6191 10.7373 140.489 25.543 208.738
c-19.4316 -2.09668 -38.8525 -4.29492 -58.252 -6.72266c-11.8926 -1.4873 -36.334 -0.681641 -41.8682 13.5518c-5.42871 13.9668 12.4248 22.6689 23.7744 23.8652c59.0107 6.21973 118.102 11.8564 177.269 16.3877c58.7773 4.50293 118.487 10.373 177.472 9.93555
c10.2227 -0.0761719 28.8447 -3.37207 31.4697 -15.8369c2.51562 -11.958 -13.1611 -19.1875 -22.9541 -20.041c-57.4648 -5.0127 -115.338 -6.06641 -172.883 -10.5322c-5.34082 -0.416016 -10.6777 -0.893555 -16.0156 -1.33105
c0.116211 -1.19629 0.0947266 -2.4502 -0.0878906 -3.75879c-9.5625 -69.0908 -21.0615 -137.424 -25.167 -207.186c-1.42871 -24.2627 -2.1543 -48.5693 -2.22363 -72.876c35.1055 3.71875 70.335 6.35059 105.662 7.80176c21.9072 0.900391 21.4658 -19.5088 0 -20.3906
c-35.3125 -1.45117 -70.5127 -4.21484 -105.578 -8.10156c0.408203 -31.1494 1.93164 -62.2881 4.58203 -93.3242c4.73242 -55.4443 10.3945 -114.607 35.9873 -164.912c10.6641 -20.9629 26.3223 -40.6533 45.8379 -54.0625
c9.23145 -6.34375 20.0264 -12.7461 31.4668 -10.5479c13.5254 2.59961 26.0381 13.0225 35.6191 22.3809c39.4365 38.5215 64.1553 96.3438 81.4541 147.778c3.98145 11.834 37.4863 9.07422 32.958 -5.18066c-11.3643 -35.7686 -26.3301 -70.082 -45.2002 -102.536
c-16.4785 -28.3389 -35.6768 -56.6445 -64.8281 -73.1963c-58.4922 -33.209 -122.118 -13.0117 -168.974 30.333c-49.9648 46.2207 -65.7764 109.927 -75.7549 174.901c-5.83691 37.9961 -9.125 76.1855 -10.3828 114.466
c-15.7939 -2.76367 -31.5693 -5.6875 -47.29 -8.92871z" />
    <glyph glyph-name="F" unicode="F" horiz-adv-x="287" 
d="M181.192 675.429c-12.166 -106.861 -12.6318 -216.601 -10.6484 -324.26c36.377 5.74219 75.0654 11.0762 110.896 7.37891c7.79785 -0.805664 21.0352 -6.15039 21.0352 -15.75c0 -10.1211 -13.3359 -14.2012 -21.0361 -15.751
c-20.0264 -4.02539 -41.3945 -3.28906 -61.7451 -5.2793c-16.1543 -1.58203 -32.2832 -3.54688 -48.3682 -5.75977c2.89453 -116.668 13.0439 -232.818 21.4072 -349.169c1.97266 -27.4268 -65.3389 -26.749 -70.0674 0c-19.4863 110.255 -27.2842 222.476 -30.5801 334.368
c-14.4375 -2.25684 -28.8232 -3.48535 -42.9502 -2.37012c-7.09082 0.561523 -23.3945 9.81836 -13.0732 18.3164c15.1338 12.458 36.3994 15.4805 55.1201 19.5742c0.0214844 0.00390625 0.0400391 0.0078125 0.0585938 0.0117188
c-1.16309 55.9658 -1.04297 111.961 0.466797 167.92c1.61523 59.8818 6.63867 119.552 8.82227 179.379c0.0400391 1.16699 0.210938 2.2793 0.448242 3.3584c-40.5449 -0.302734 -78.5918 -13.1797 -104.939 -51.5332
c-8.12305 -11.8232 -45.2227 -6.51172 -36.8047 5.78223c40.7158 59.4766 115.075 75.3389 183.065 66.3633c0.433594 -0.0585938 0.860352 -0.149414 1.29395 -0.208008c7.88965 -0.193359 15.6553 -1.5459 22.1484 -3.97754
c30.3584 -6.5332 59.7363 -17.0479 89.5078 -25.8818c29.0059 -8.60742 89.6426 -27.6309 111.546 3.71875c8.41113 12.0381 46.2285 6.44531 37.5732 -5.90332c-41.0771 -58.6055 -139.542 -26.2969 -193.795 -8.99414c-9.46777 3.01855 -19.3154 5.97168 -29.3818 8.66602
z" />
    <glyph glyph-name="G" unicode="G" horiz-adv-x="539" 
d="M43.2646 24.8896c-50.4863 38.2695 -69.04 98.5059 -72.4492 159.646c-3.82812 68.7041 6.23828 139.654 22.4727 206.266c14.1016 57.8623 34.3066 114.619 64.249 166.276c30.584 52.7646 71.0225 103.466 125.221 133.321
c55.04 30.3223 129.326 36.7676 177.498 -9.81836c41.3574 -39.998 51.7588 -105.392 46.3594 -160.268c-6.21973 -63.2324 -35.0215 -120.948 -68.7051 -173.801c-8.29395 -13.0117 -48.2334 -7.51074 -39.4941 6.20508c35.2578 55.3242 65.835 116.256 68.2744 183.068
c1.14453 31.3242 -4.81641 64.3477 -19.6074 92.1865c-6.74121 12.6904 -16.0342 25.1338 -27.3838 34.1133c-13.4053 10.6055 -20.6426 11.6846 -35.6963 8.64746c-20.1572 -4.06836 -37.2266 -19.085 -51.7988 -32.7197
c-18.8525 -17.6416 -36.8193 -37.0186 -52.3105 -57.6904c-31.7471 -42.3633 -54.5947 -91.6689 -71.6826 -141.562c-19.5518 -57.0889 -31.9727 -116.781 -37.9521 -176.802c-5.57422 -55.959 -9.80371 -117.404 10.4561 -171.016
c15.9062 -42.0977 51.5361 -82.7041 100.947 -68.8652c54.5039 15.2646 98.833 58.7334 139.858 95.4717c17.2812 15.4727 35.04 31.7949 53.9365 46.4873c2.75586 36.8008 7.72852 73.2188 16.6201 108.393c5.16602 20.4346 62.6631 18.291 62.9404 -4.85547
c0.240234 -20.2891 -0.708008 -40.6211 -1.89648 -60.957c0.641602 0.189453 1.26855 0.418945 1.91406 0.601562c42.9941 12.082 96.2002 6.23438 124.907 -31.459c10.332 -13.5654 -21.2363 -18.3379 -28.8232 -9.60254c-29.0312 33.4277 -65.3213 29.9277 -99.624 13.416
c-0.973633 -16.0781 -1.85547 -32.1523 -2.17969 -48.2051c-0.915039 -45.543 -0.258789 -91.2246 3.42383 -136.64c2.47559 -30.5479 -79.7764 -31.9043 -80.0352 0c-0.338867 42.0684 -1.00977 85.3584 0.532227 128.531
c-0.102539 -0.0908203 -0.208008 -0.185547 -0.310547 -0.273438c-49.8486 -44.0449 -98.7568 -94.1191 -162.652 -117.266c-57.7158 -20.9082 -116.941 -18.7832 -167.009 19.1689z" />
    <glyph glyph-name="H" unicode="H" horiz-adv-x="541" 
d="M480.111 345.367c-1.86621 -54.6787 -2.66797 -109.39 -2.55469 -164.102c3.2373 -0.94043 6.48926 -1.80469 9.7627 -2.51953c14.8711 -3.24121 28.6885 2.03418 42.666 6.87207c14.6523 5.06738 42.4004 -10.4932 19.0635 -18.5908
c-18.75 -6.50781 -37.752 -12.0898 -57.8105 -11.0361c-4.59375 0.240234 -9.125 0.867188 -13.6094 1.75684c0.0107422 -1.15527 0 -2.31055 0.0107422 -3.46582c0.258789 -30.8428 -0.0332031 -61.7002 0.429688 -92.54
c0.204102 -13.5918 0.845703 -27.1719 1.21777 -40.7598c0.4375 -16.0049 3.95215 -29.2939 -8.92871 -40.5957c-10.0918 -8.85547 -27.3145 -8.88086 -38.7402 -2.84668c-27.1318 14.3281 -26.9609 56.7793 -28.8604 84.2031
c-2.13281 30.8174 -3.3291 61.6572 -3.80273 92.54c-0.134766 8.83691 -0.185547 17.6738 -0.269531 26.5107c-28.2988 7.48438 -56.918 13.7002 -85.8037 18.5635c-48.6963 8.19922 -100.207 14.9658 -150.767 13.748c0.481445 -21.5723 1.12305 -43.1406 2.08887 -64.6875
c1.25781 -28.0654 2.7959 -56.1523 6.05566 -84.0645c3.17578 -27.1973 11.1855 -54.1143 13.4746 -81.2676c1.32324 -15.6729 -23.2021 -21.1016 -34.1797 -22.0674c-14.3457 -1.26172 -35.6113 1.75 -43.249 16.0957c-3.38281 6.35059 -6.16113 13.1025 -8.50195 20.0986
c-0.488281 0.845703 -0.852539 1.76074 -1.0459 2.75586c-0.0878906 0.466797 -0.186523 0.933594 -0.277344 1.40039c-4.14551 13.5439 -6.7666 27.8496 -8.88086 41.8311c-11.4072 49.5205 -26.1436 98.749 -45.5352 145.542
c-13.3945 -6.63184 -25.6738 -17.5469 -40.1621 -21.3896c-11.4766 -3.04395 -26.3691 -2.40234 -35.9287 5.50879c-10.1973 8.43945 -6.86523 21.7393 -4.50293 33.1836c5.43555 26.3301 14.8594 58.2891 46.6797 58.8428
c26.6064 0.462891 45.4658 -20.165 57.2451 -42.1123c2.71289 0.700195 5.43262 1.375 8.16309 2.00195c-0.977539 31.8789 -1.33887 63.7725 -1.01074 95.6875c0.612305 59.7539 3.2627 119.493 7.94434 179.064c4.64844 59.123 8.37402 120.27 21.9141 178.095
c4.45898 19.0381 25.459 24.627 43.21 24.627c13.4014 0 44.3682 -5.61426 43.209 -24.627c-3.62012 -59.4619 -13.9453 -118.633 -18.7832 -178.095c-4.75 -58.3799 -7.55371 -116.916 -8.41016 -175.481c-0.4375 -29.917 -0.426758 -59.8564 0.0253906 -89.7881
c5.65137 0.0546875 11.2949 0.0400391 16.9199 -0.0585938c59.6631 -1.06055 119.549 -8.2207 177.976 -20.1973c14.0361 -2.87695 28.0176 -6.05273 41.9336 -9.49414c-0.193359 45.7539 0.291992 91.5117 1.48828 137.251
c3.33203 127.361 12.2168 254.504 26.3838 381.114c3.7041 33.1104 86.0107 30.6094 82.4268 0c-14.6816 -125.378 -24.3682 -251.339 -28.6738 -377.508zM-1.73047 196.982c8.3125 4.92188 20.2158 9.0791 25.5566 11.4492c2.62891 1.16699 5.2832 2.26758 7.94434 3.33984
c-5.21387 9.61035 -11.5068 17.4268 -18.2334 26.5811c-0.302734 0.416016 -1.08301 0.933594 -1.96484 1.48438c-0.0146484 -0.0361328 -0.0292969 -0.0615234 -0.0400391 -0.0976562c-2.11816 -6.25586 -5.47949 -12.1514 -7.58301 -18.4873
c-2.625 -7.89648 -4.56055 -16.0195 -5.67969 -24.2695z" />
    <glyph glyph-name="I" unicode="I" horiz-adv-x="233" 
d="M169.369 685.356c5.45801 -14.0361 -12.2979 -21.5332 -23.2207 -23.3086c-6.60645 -1.0752 -13.2129 -2.16211 -19.8193 -3.24512c0.00390625 -0.225586 0.0439453 -0.433594 0.0400391 -0.663086c-1.7793 -104.064 -8.95801 -207.899 -9.00879 -312.037
c-0.0400391 -89.4775 6.12109 -180.436 -2.46094 -269.654c-0.52832 -5.50488 -1.03516 -11.0645 -1.55273 -16.6611c49.1885 33.4355 96.9775 69.1309 125.852 122.629c6.31836 11.707 41.3691 7.80566 34.4971 -5.4209
c-34.3828 -66.1738 -96.5391 -108.017 -156.312 -149.203c-2.71289 -1.86621 -5.41797 -3.74707 -8.12305 -5.625c-3.62012 -26.8477 -9.38086 -53.3525 -21.2842 -77.0869c-12.4209 -24.7656 -20.792 -51.1611 -53.5488 -51.3906
c-29.0098 -0.204102 -53.1777 25.2363 -46.3564 54.4678c5.26074 22.5527 23.8291 40.3662 43.5713 55.2988c-0.120117 1.60449 -0.244141 3.19043 -0.349609 4.82324c-1.15918 17.9229 -1.7207 35.8818 -2.8291 53.8115c-2.43945 39.4512 -3.70117 79.0732 -4.80176 118.59
c-4.29102 153.964 -6.0625 308.125 4.46289 461.903c-15.7607 -2.11426 -31.5908 -2.50098 -46.5967 3.09863c-11.5459 4.30957 -23.001 14.7471 -12.21 26.5449c9.34766 10.2158 29.0234 11.7979 42.5674 8.21387c2.24219 0.342773 4.48047 0.681641 6.72266 1.02441
c5.91016 0.900391 11.8203 1.80078 17.7305 2.70898c9.45703 1.45117 18.9102 2.90918 28.3633 4.375c21.2656 3.2998 42.5352 6.5957 63.7793 10.041c11.4805 1.86328 35.5977 0.37207 40.8877 -13.2344zM34.377 -82.9346c-2.08203 0.794922 -1.29395 -0.761719 0 0z
M40.7324 -72.5186c2.38477 6.64648 1.36523 12.9062 -0.348633 19.6768c-1.43652 5.67969 -2.64648 11.21 -3.7002 16.6934c-2.03027 -2.62109 -3.92578 -5.33398 -5.50488 -8.22852c-6.0957 -11.1777 -8.05371 -29.501 3.48926 -38.3564
c0.412109 0.34668 0.853516 0.944336 1.25488 1.92871c1.19629 2.93457 3.70117 5.19824 4.80957 8.28613z" />
    <glyph glyph-name="I" unicode="&#xcf;" horiz-adv-x="233" 
d="M169.369 685.356c5.45801 -14.0361 -12.2979 -21.5332 -23.2207 -23.3086c-6.60645 -1.0752 -13.2129 -2.16211 -19.8193 -3.24512c0.00390625 -0.225586 0.0439453 -0.433594 0.0400391 -0.663086c-1.7793 -104.064 -8.95801 -207.899 -9.00879 -312.037
c-0.0400391 -89.4775 6.12109 -180.436 -2.46094 -269.654c-0.52832 -5.50488 -1.03516 -11.0645 -1.55273 -16.6611c49.1885 33.4355 96.9775 69.1309 125.852 122.629c6.31836 11.707 41.3691 7.80566 34.4971 -5.4209
c-34.3828 -66.1738 -96.5391 -108.017 -156.312 -149.203c-2.71289 -1.86621 -5.41797 -3.74707 -8.12305 -5.625c-3.62012 -26.8477 -9.38086 -53.3525 -21.2842 -77.0869c-12.4209 -24.7656 -20.792 -51.1611 -53.5488 -51.3906
c-29.0098 -0.204102 -53.1777 25.2363 -46.3564 54.4678c5.26074 22.5527 23.8291 40.3662 43.5713 55.2988c-0.120117 1.60449 -0.244141 3.19043 -0.349609 4.82324c-1.15918 17.9229 -1.7207 35.8818 -2.8291 53.8115c-2.43945 39.4512 -3.70117 79.0732 -4.80176 118.59
c-4.29102 153.964 -6.0625 308.125 4.46289 461.903c-15.7607 -2.11426 -31.5908 -2.50098 -46.5967 3.09863c-11.5459 4.30957 -23.001 14.7471 -12.21 26.5449c9.34766 10.2158 29.0234 11.7979 42.5674 8.21387c2.24219 0.342773 4.48047 0.681641 6.72266 1.02441
c5.91016 0.900391 11.8203 1.80078 17.7305 2.70898c9.45703 1.45117 18.9102 2.90918 28.3633 4.375c21.2656 3.2998 42.5352 6.5957 63.7793 10.041c11.4805 1.86328 35.5977 0.37207 40.8877 -13.2344zM34.377 -82.9346c-2.08203 0.794922 -1.29395 -0.761719 0 0z
M40.7324 -72.5186c2.38477 6.64648 1.36523 12.9062 -0.348633 19.6768c-1.43652 5.67969 -2.64648 11.21 -3.7002 16.6934c-2.03027 -2.62109 -3.92578 -5.33398 -5.50488 -8.22852c-6.0957 -11.1777 -8.05371 -29.501 3.48926 -38.3564
c0.412109 0.34668 0.853516 0.944336 1.25488 1.92871c1.19629 2.93457 3.70117 5.19824 4.80957 8.28613z" />
    <glyph glyph-name="I" unicode="&#xce;" horiz-adv-x="233" 
d="M169.369 685.356c5.45801 -14.0361 -12.2979 -21.5332 -23.2207 -23.3086c-6.60645 -1.0752 -13.2129 -2.16211 -19.8193 -3.24512c0.00390625 -0.225586 0.0439453 -0.433594 0.0400391 -0.663086c-1.7793 -104.064 -8.95801 -207.899 -9.00879 -312.037
c-0.0400391 -89.4775 6.12109 -180.436 -2.46094 -269.654c-0.52832 -5.50488 -1.03516 -11.0645 -1.55273 -16.6611c49.1885 33.4355 96.9775 69.1309 125.852 122.629c6.31836 11.707 41.3691 7.80566 34.4971 -5.4209
c-34.3828 -66.1738 -96.5391 -108.017 -156.312 -149.203c-2.71289 -1.86621 -5.41797 -3.74707 -8.12305 -5.625c-3.62012 -26.8477 -9.38086 -53.3525 -21.2842 -77.0869c-12.4209 -24.7656 -20.792 -51.1611 -53.5488 -51.3906
c-29.0098 -0.204102 -53.1777 25.2363 -46.3564 54.4678c5.26074 22.5527 23.8291 40.3662 43.5713 55.2988c-0.120117 1.60449 -0.244141 3.19043 -0.349609 4.82324c-1.15918 17.9229 -1.7207 35.8818 -2.8291 53.8115c-2.43945 39.4512 -3.70117 79.0732 -4.80176 118.59
c-4.29102 153.964 -6.0625 308.125 4.46289 461.903c-15.7607 -2.11426 -31.5908 -2.50098 -46.5967 3.09863c-11.5459 4.30957 -23.001 14.7471 -12.21 26.5449c9.34766 10.2158 29.0234 11.7979 42.5674 8.21387c2.24219 0.342773 4.48047 0.681641 6.72266 1.02441
c5.91016 0.900391 11.8203 1.80078 17.7305 2.70898c9.45703 1.45117 18.9102 2.90918 28.3633 4.375c21.2656 3.2998 42.5352 6.5957 63.7793 10.041c11.4805 1.86328 35.5977 0.37207 40.8877 -13.2344zM34.377 -82.9346c-2.08203 0.794922 -1.29395 -0.761719 0 0z
M40.7324 -72.5186c2.38477 6.64648 1.36523 12.9062 -0.348633 19.6768c-1.43652 5.67969 -2.64648 11.21 -3.7002 16.6934c-2.03027 -2.62109 -3.92578 -5.33398 -5.50488 -8.22852c-6.0957 -11.1777 -8.05371 -29.501 3.48926 -38.3564
c0.412109 0.34668 0.853516 0.944336 1.25488 1.92871c1.19629 2.93457 3.70117 5.19824 4.80957 8.28613z" />
    <glyph glyph-name="I" unicode="&#xcd;" horiz-adv-x="233" 
d="M169.369 685.356c5.45801 -14.0361 -12.2979 -21.5332 -23.2207 -23.3086c-6.60645 -1.0752 -13.2129 -2.16211 -19.8193 -3.24512c0.00390625 -0.225586 0.0439453 -0.433594 0.0400391 -0.663086c-1.7793 -104.064 -8.95801 -207.899 -9.00879 -312.037
c-0.0400391 -89.4775 6.12109 -180.436 -2.46094 -269.654c-0.52832 -5.50488 -1.03516 -11.0645 -1.55273 -16.6611c49.1885 33.4355 96.9775 69.1309 125.852 122.629c6.31836 11.707 41.3691 7.80566 34.4971 -5.4209
c-34.3828 -66.1738 -96.5391 -108.017 -156.312 -149.203c-2.71289 -1.86621 -5.41797 -3.74707 -8.12305 -5.625c-3.62012 -26.8477 -9.38086 -53.3525 -21.2842 -77.0869c-12.4209 -24.7656 -20.792 -51.1611 -53.5488 -51.3906
c-29.0098 -0.204102 -53.1777 25.2363 -46.3564 54.4678c5.26074 22.5527 23.8291 40.3662 43.5713 55.2988c-0.120117 1.60449 -0.244141 3.19043 -0.349609 4.82324c-1.15918 17.9229 -1.7207 35.8818 -2.8291 53.8115c-2.43945 39.4512 -3.70117 79.0732 -4.80176 118.59
c-4.29102 153.964 -6.0625 308.125 4.46289 461.903c-15.7607 -2.11426 -31.5908 -2.50098 -46.5967 3.09863c-11.5459 4.30957 -23.001 14.7471 -12.21 26.5449c9.34766 10.2158 29.0234 11.7979 42.5674 8.21387c2.24219 0.342773 4.48047 0.681641 6.72266 1.02441
c5.91016 0.900391 11.8203 1.80078 17.7305 2.70898c9.45703 1.45117 18.9102 2.90918 28.3633 4.375c21.2656 3.2998 42.5352 6.5957 63.7793 10.041c11.4805 1.86328 35.5977 0.37207 40.8877 -13.2344zM34.377 -82.9346c-2.08203 0.794922 -1.29395 -0.761719 0 0z
M40.7324 -72.5186c2.38477 6.64648 1.36523 12.9062 -0.348633 19.6768c-1.43652 5.67969 -2.64648 11.21 -3.7002 16.6934c-2.03027 -2.62109 -3.92578 -5.33398 -5.50488 -8.22852c-6.0957 -11.1777 -8.05371 -29.501 3.48926 -38.3564
c0.412109 0.34668 0.853516 0.944336 1.25488 1.92871c1.19629 2.93457 3.70117 5.19824 4.80957 8.28613z" />
    <glyph glyph-name="J" unicode="J" horiz-adv-x="513" 
d="M-4.04785 613.414c-9.19824 -3.98438 -50.1445 4.55664 -32.6562 18.6182c26.2461 21.0947 62.416 21.0547 94.4912 23.6836c38.3428 3.14258 76.707 5.99023 115.086 8.61914c47.5078 3.25586 95.041 6.1543 142.578 8.93945
c13.6787 14.459 47.5146 15.9971 63.6582 3.68164c8.11523 0.462891 16.2305 0.929688 24.3457 1.39258c8.69141 0.496094 27.4561 -3.86816 27.4561 -15.6514c0 -12.4941 -18.3965 -15.1592 -27.4561 -15.6514c-4.72852 -0.254883 -9.45312 -0.513672 -14.1816 -0.772461
c4.1416 -53.7754 0.72168 -109.206 0.944336 -162.93c0.237305 -57.2754 -0.849609 -114.521 -1.69531 -171.789c-0.616211 -41.5723 -1.25781 -83.1777 -4.48828 -124.634c49.1338 -1.18457 98.1953 1.40039 147.453 -0.280273
c7.11328 -0.244141 21.5469 -2.33691 23.0527 -11.6006c1.44043 -8.84863 -9.31055 -13.9678 -16.8096 -14.6787c-51.2451 -4.84863 -104.152 -5.36621 -156.371 -2.29688c-4.85938 -44.4277 -13.0879 -90.7031 -34.0215 -130.471
c-21.6162 -41.0586 -57.7744 -68.0732 -104.506 -72.707c-42.5752 -4.22168 -84.6289 8.76465 -118.681 34.2959c-32.9395 24.6924 -56.4912 61.5586 -71.2168 99.6025c-14.8232 38.2949 -27.3789 84.8076 -17.8086 125.651c9.4502 40.3438 45.2695 71.6904 88.3584 65.9082
c15.4688 -2.07812 31.9473 -10.3105 34.627 -27.1064c0.96582 -6.07715 0.385742 -11.2471 -1.48047 -15.6406c41.1172 -18.75 82.5693 -32.25 126.396 -40.5879c0.113281 1.5498 0.248047 3.0957 0.350586 4.64844c5.0459 75.8496 6.95605 152.05 10.2373 227.998
c1.64746 38.1934 4.64746 76.3682 7.05762 114.524c2.04199 32.2871 2.57031 65.2559 6.2959 97.5391c-37.5039 -2.11816 -75.0039 -4.31641 -112.489 -6.71484c-33.6143 -2.15137 -67.2168 -4.45215 -100.806 -6.98633
c-32.5088 -2.45312 -67.4209 -1.47949 -97.7207 -14.6045zM115.9 245.942c-0.200195 -0.258789 -0.408203 -0.503906 -0.612305 -0.758789c0.328125 0.142578 0.65625 0.288086 0.988281 0.416016c-0.157227 0.0761719 -0.273438 0.200195 -0.375977 0.342773z
M239.415 8.38672c18.998 21.251 24.2803 55.9307 29.457 82.9824c4.91406 25.6807 8.83301 51.3721 11.6035 77.2607c-58.7695 9.27148 -119.544 25.75 -170.093 55.7578c-3.64941 2.16602 -5.58203 4.42285 -6.33691 6.64355
c-0.200195 -0.342773 -0.415039 -0.664062 -0.608398 -1.01758c-9.23145 -17.0371 -10.8906 -35.9697 -9.33789 -55.0293c2.8877 -35.4443 14.5654 -71.5342 31.0625 -102.946c13.5479 -25.8008 33.6875 -51.8135 59.9082 -65.7656
c18.415 -9.7959 39.0977 -14.9404 54.3447 2.11426z" />
    <glyph glyph-name="K" unicode="K" horiz-adv-x="402" 
d="M83.9238 663.686c-7.54688 -102.522 -12.3555 -204.599 -9.60254 -307.264c59.2764 -3.12109 91.9424 70.0088 107.232 116.252c10.7256 32.4326 18.9688 65.6162 26.833 98.8359c7.25488 30.6426 14.5205 60.2207 16.9707 91.6504
c-0.0107422 14.1348 33.7852 13.7227 35.626 0c2.55566 -19.0459 -2.17285 -38.4336 -6.11035 -57.0195c-4.13086 -19.4971 -8.42969 -38.9473 -13.1182 -58.3213c-8.93555 -36.9316 -18.3779 -74.3809 -32.8955 -109.588
c-18.6191 -45.1523 -51.0225 -82.9043 -94.4912 -97.4805c12.1221 -4.4082 23.373 -11.3428 33.1768 -20.8506c20.4678 -19.8516 38.6562 -38.8682 49.5537 -65.6934c22.3633 -55.0586 18.4043 -116.188 41.1396 -170.866
c9.98535 -24.0107 24.0654 -45.5459 40.2529 -65.7803c4.42188 -5.53027 11.5566 -17.6084 19.3477 -18.9502c6.13184 -1.05762 21.251 12.3115 26.625 18.1191c18.7832 20.2959 31.6924 47.7812 43.5088 72.5137c13.3184 27.8721 23.7783 57.0049 32.3711 86.6484
c4.25098 14.6631 45.4883 11.5566 40.6504 -6.3877c-15.5527 -57.6611 -38.2295 -121.75 -75.5654 -169.262c-40.7412 -51.8467 -111.578 -48.832 -158.619 -6.57031c-46.3301 41.627 -62.9219 105.136 -71.1064 164.296
c-4.22559 30.5693 -8.65137 60.6836 -18.5566 90.0029c-7.4082 21.9297 -10.6963 66.251 -41.2402 66.1709c5.37402 -111.48 20.832 -221.568 34.3252 -332.25c3.62793 -29.7529 -75.8682 -32.9463 -82.5215 -6.36523c-28.0068 111.852 -39.7861 227.659 -45.3936 342.65
c-5.59668 114.739 -4.85254 231.254 8.01367 345.509c4.16309 36.9902 96.2256 35.7471 93.5938 0z" />
    <glyph glyph-name="L" unicode="L" horiz-adv-x="356" 
d="M216.003 146.476c-5.61816 -49.1562 -9.42969 -104.55 -38.0088 -146.633c-3.11719 -4.59375 -6.52637 -8.88867 -10.1064 -12.9863c9.07031 -2.23145 18.2686 -3.72266 27.6123 -4.12695c100.182 -4.34961 158.688 100.451 160.005 188.267
c0.233398 15.6768 39.9502 15.4648 39.7607 -0.000976562c-1.0791 -87.7168 -48.4668 -171.755 -134.171 -201.209c-37.3545 -12.8408 -76.7393 -12.7021 -114.356 -2.4209c-28.0977 -20.7002 -63.666 -29.6943 -99.708 -23.7148
c-34.7148 5.76074 -102.949 41.0332 -89.2373 86.3496c7.33887 24.2588 39.4033 28.2002 60.5303 21.791c12.2861 -3.72559 3.67871 -1.67676 0.999023 -0.808594c4.97266 -1.60742 9.44629 -2.83594 14.3174 -4.77539c10.4014 -4.14551 20.6748 -8.56445 30.7773 -13.3984
c8.80078 -4.21094 17.7041 -8.82324 26.7129 -13.4902c2.99316 7.39746 5.18457 14.9512 6.76367 21.6084c15.6768 66.127 20.5254 135.491 25.4941 203.091c5.21387 70.9316 9.79297 141.94 14.1865 212.924c4.5498 73.5273 10.7148 147.033 11.4189 220.736
c0.225586 23.5264 52.6406 21.0654 57.3076 0c27.2373 -122.938 26.8691 -245.458 20.5986 -370.537c-2.68652 -53.582 -4.80078 -107.339 -10.8965 -160.665zM64.4902 -13.46c4.7793 2.20605 8.96094 5.42773 12.5996 9.36133
c-2.06738 1.01758 -4.1377 2.03516 -6.20117 3.05273c-12.2754 6.04785 -28.0615 15.9639 -43.3154 21.4141c0.948242 -6.86523 6.17676 -13.1104 10.8691 -17.7656c5.09277 -5.05273 11.1846 -9.06641 17.5645 -12.3037c2.65039 -1.67676 5.48633 -2.90918 8.4834 -3.75879
z" />
    <glyph glyph-name="M" unicode="M" horiz-adv-x="710" 
d="M714.679 179.427c3.56934 12.3076 38.293 9.66504 34.1074 -5.35547c-13.96 -50.0967 -32.2578 -98.8555 -55.3613 -145.467c-16.4424 -33.1729 -36.8984 -69.4629 -76.6045 -76.875c-42.0723 -7.85645 -75.46 10.2119 -103.58 39.7861
c-29.5703 31.0986 -38.7031 81.5889 -40.3291 123.169c-1.79395 45.8232 4.06445 91.2061 8.21289 136.745c4.39355 48.2295 8.24316 96.4922 12.7529 144.707c4.43359 47.3623 10.165 94.498 15.7246 141.729c2.72363 23.125 3.65332 47.249 7.48828 70.1484
c1.64746 9.83984 6.68945 18.498 4.93945 28.8301c-1.73535 10.2373 -12.1436 24.3867 -24.7324 21.7549c-16.0703 -3.36523 -27.04 -32.3271 -33.4746 -45.0947c-9.89453 -19.6289 -19.0928 -39.6152 -27.5908 -59.8896
c-12.1514 -28.9912 -22.75 -58.5654 -31.9775 -88.585c3.86426 -17.3359 6.79199 -34.876 8.89551 -52.4229c8.31641 -69.3975 7.21875 -147.73 -16.9238 -214.178c-21.8926 -60.2646 -81.6143 -127.435 -152.116 -94.3457
c-56.0605 26.3154 -35.4365 117.598 -20.8682 163.017c19.625 61.1836 57.8545 114.306 100.692 161.493c-1.08301 15.874 -2.62109 31.7109 -4.69141 47.4678c-6.77734 51.5625 -13.9854 109.986 -43.5156 154.318c-34.4199 51.6748 -100.875 43.0127 -142.765 7.14551
c-40.2275 -34.4453 -65.1025 -85.748 -83.2256 -134.554c-19.7598 -53.2139 -30.5332 -109.297 -35.1855 -165.773c-4.53906 -55.1201 -3.99609 -111.221 1.89551 -166.221c2.98926 -27.9375 7.83105 -55.8018 16.8506 -82.4746
c4.28027 -12.665 9.48242 -24.9873 15.6582 -36.8438c1.7793 -3.41602 5.76367 -12.3193 10.4453 -19.8115c2.58105 43.9316 5.54102 87.8154 6.78027 131.831c0.714844 25.3418 1.88184 50.6611 2.40723 76.0098c0.251953 12.0566 0.0986328 24.1426 0.5 36.1914
c0.477539 14.4404 2.27148 21.623 11.8457 32.3633c13.6611 15.3271 50.0498 14.2588 63.9434 0c18.0391 -18.5137 14.0361 -47.7676 15.0391 -72.1719c0.991211 -24.1055 1.90234 -48.2588 1.70898 -72.3896c-0.393555 -49.4111 -1.52051 -99.0078 -6.00488 -148.229
c-2.91309 -31.9883 -69.623 -36.5527 -90.79 -15.7139c-31.915 4.21094 -48.5107 34.7041 -60.6289 62.8271c-14.3428 33.2861 -21.5977 69.4189 -25.6484 105.297c-8.57812 75.9775 -7.48438 154.521 5.12305 229.971c18.502 110.726 72.1348 274.23 203.284 290.986
c64.501 8.23926 117.908 -29.6475 154.727 -79.875c19.1875 -26.1768 34.0078 -55.0146 45.2881 -85.2705c6.72266 18.0898 13.9883 35.9873 21.834 53.6475c14.4268 32.4658 30.3008 81.7529 65.6279 97.3535c37.1318 16.3984 68.7402 -5.87012 91.4756 -33.833
c6.68262 -8.21777 15.1738 -17.8027 19.5742 -27.5547c3.79883 -8.42188 4.81641 -20.3584 6.49316 -29.3711c4.15234 -22.3301 6.78125 -44.7295 9.09961 -67.3115c9.73438 -94.8047 -0.378906 -192.237 -8.05664 -286.859
c-3.64258 -44.8682 -8.96582 -89.9336 -7.81348 -134.999c0.576172 -22.498 1.29785 -44.8613 6.15039 -66.9365c3.42383 -15.5752 5.44727 -30.793 15.0029 -44.1035c1.25781 -1.75 2.46484 -4.01758 4.21484 -5.4248
c0.174805 0.280273 2.43555 0.00292969 4.39355 0.808594c8.05371 3.31738 15.0684 11.8008 20.541 18.4287c13.3584 16.1758 22.2031 36.1943 31.1641 54.9922c19.5117 40.9199 35.3779 83.3936 48.0029 126.917zM321.842 301.433
c2.78906 26.7998 4.00098 53.7842 3.82227 80.7627c-27.7549 -35.5391 -51.0332 -74.3076 -65.1787 -117.619c-9.91992 -30.373 -16.373 -64.8369 -12.9131 -96.9346c0.834961 -7.76172 2.65039 -15.5459 5.73145 -22.7393
c2.3916 -5.58496 10.2412 -11.4473 11.7979 -15.9102c0.0654297 -0.0253906 0.105469 -0.046875 0.166992 -0.0761719c1.31641 0.532227 2.74512 0.951172 3.88574 1.68359c4.87402 3.13184 8.61816 7.45215 11.7207 12.3154c13.3652 20.9668 18.8301 49.375 25.0098 73.083
c7.34961 28.207 12.9385 56.4033 15.957 85.4346z" />
    <glyph glyph-name="N" unicode="N" horiz-adv-x="482" 
d="M-9.27246 671.973c3.25586 35.2578 91.0068 34.3115 89.1982 -0.00585938c-5.95312 -113.317 -11.1191 -226.395 -9.51172 -339.913c0.641602 -45.335 1.97949 -90.7031 4.35254 -135.998c10.8135 67.6621 21.7803 135.287 36.3018 202.281
c11.6377 53.6875 25.3818 106.952 43.4795 158.854c14.7139 42.2109 32.3633 108.531 79.2656 126.147c48.2549 18.123 86.1494 -33.0742 101.892 -72.4482c20.5439 -51.3867 23.5371 -108.002 24.9922 -162.634c3.28516 -123.424 -0.612305 -247.303 8.77539 -370.54
c1.82617 -23.9932 3.68945 -50.4248 14.915 -72.1826c2.69043 -5.21387 5.54102 -10.1064 9.74121 -14.208c0.744141 -0.725586 1.78711 -1.52051 2.77832 -2.11816c11.4697 2.89453 21.667 11.8926 29.4873 20.4053c34.2451 37.2744 42.7979 93.9482 62.0361 139.214
c5.17676 12.1729 40.293 8.80371 34.4961 -5.42188c-20.6641 -50.709 -29.5156 -106.216 -65.2803 -149.546c-37.3066 -45.2002 -109.58 -49.6045 -151.236 -7.06934c-19.0166 19.417 -27.4824 43.8652 -33.9648 69.6006c-7.54297 29.9463 -12.6357 59.918 -15.6436 90.6406
c-5.89844 60.2314 -4.09375 122.385 -1.67285 182.78c2.41699 60.2715 7.77637 120.048 13.2891 180.094c2.43945 26.5635 3.67188 53.582 2.30078 80.2402c-0.740234 14.4268 -1.28711 28.8418 -2.34082 43.2314c-0.696289 9.48633 -0.787109 27.0879 -12.6318 29.4248
c-11.4336 2.25684 -24.6709 -20.4521 -29.585 -28.7754c-6.79199 -11.4951 -12.0459 -23.8838 -17.1279 -36.1992c-10.5215 -25.4912 -19.8691 -51.4639 -28.2578 -77.7354c-17.4854 -54.7744 -30.7373 -110.773 -41.5469 -167.217
c-19.2207 -100.356 -32.0283 -201.796 -49.9912 -302.364c2.70898 -15.1113 5.05273 -30.3037 4.46973 -45.0908c-1.20703 -30.6064 -62.9551 -25.8633 -74.6904 -5.76074c-13.5371 23.1836 -17.4639 53.2461 -21.8857 79.4043
c-4.58301 27.1104 -7.38281 54.3408 -9.31543 81.7568c-3.92676 55.7725 -5.90625 111.728 -6.96387 167.624c-2.16602 114.386 -0.65332 229.556 9.87598 343.529z" />
    <glyph glyph-name="O" unicode="O" horiz-adv-x="560" 
d="M-14.2549 150.756c-12.6182 46.9287 -28.0381 136.669 5.53906 178.733c-9.07031 83.4912 2.32617 171.354 37.3145 246.924c37.4785 80.9434 115.793 144.565 209.077 134.839c38.9004 -4.05371 72.2441 -22.7197 100.491 -49.0312
c31.8057 -29.6289 58.8203 -60.917 78.7666 -99.9922c40.4355 -79.2119 47.6318 -168.205 45.2295 -255.743c-1.26172 -45.9297 -5.93945 -93.1094 -15.1523 -138.219c37.6133 -2.6543 78.8721 1.9502 108.126 26.665c8.36719 7.06934 20.6865 8.40723 31.0518 5.80078
c5.24219 -1.31934 20.5762 -8.33398 14.3965 -16.7197c-25.5244 -34.6348 -66.6338 -45.1602 -107.823 -48.5869c-17.7881 -1.48047 -35.5469 -1.57129 -53.207 -0.444336c-8.54199 -34.5586 -19.9092 -68.9531 -37.9629 -99.3809
c-51.7949 -87.2939 -165.587 -113.944 -257.767 -77.8662c-84.3008 32.9941 -135.199 107.907 -158.08 193.021zM260.062 16.6797c27.2051 20.4561 43 52.7158 54.9834 83.6357c7.00391 18.0898 12.9395 36.6504 18.0654 55.5098
c-83.3818 27.0186 -157.14 76.5029 -229.136 125.455c-9.31152 6.33301 -18.6045 12.6914 -27.9629 18.9551c-6.71582 4.49512 -18.6953 9.17676 -25.0059 14.4854c0.328125 0.513672 0.608398 1.30078 0.793945 2.45996
c0.0185547 0.124023 -0.666992 -0.736328 -1.52344 -1.85938c-0.113281 0.105469 -0.258789 0.204102 -0.368164 0.306641c-4.91406 4.70703 -2.85742 -0.841797 -0.615234 -1.61426c-1.03516 -1.39258 -2.05957 -2.81055 -2.31445 -3.24805
c-3.96289 -6.7666 -5.40625 -14.8418 -6.18262 -22.5088c-4.21484 -41.6162 6.57617 -86.3682 18.9971 -125.866c20.3291 -64.6396 64.3916 -140.114 135.142 -158.361c7.62305 -1.96484 12.9492 -2.5918 17.8564 -2.63965
c2.98242 -0.0292969 6.02637 -0.0332031 9.03027 0.109375c0.714844 0.200195 5.0459 0.801758 5.50879 0.896484c8.20703 1.66992 20.5693 5.14062 32.7314 14.2842zM45.9873 525.977c-17.7588 -56.5273 -24.6318 -116.431 -20.9277 -175.602
c9.10742 2.05957 19.6074 2.53711 31.6895 1.11523c45.9766 -5.41016 86.3242 -43.7412 123.395 -68.6641c39.126 -26.3076 79.0107 -51.7773 121.411 -72.54c13.2051 -6.46777 26.7129 -12.3955 40.4756 -17.6641c10.8936 50.8037 16.7412 103.073 21.0137 153.972
c6.26367 74.6328 5.84473 153.229 -16.6865 225.316c-10.2881 32.9248 -25.1006 68.3867 -52.2178 90.8154c-28.5576 23.6211 -64.1113 33.7822 -100.602 25.918c-78.4971 -16.916 -125.061 -91.082 -147.551 -162.667z" />
    <glyph glyph-name="O" unicode="&#xd6;" horiz-adv-x="560" 
d="M-14.2549 150.756c-12.6182 46.9287 -28.0381 136.669 5.53906 178.733c-9.07031 83.4912 2.32617 171.354 37.3145 246.924c37.4785 80.9434 115.793 144.565 209.077 134.839c38.9004 -4.05371 72.2441 -22.7197 100.491 -49.0312
c31.8057 -29.6289 58.8203 -60.917 78.7666 -99.9922c40.4355 -79.2119 47.6318 -168.205 45.2295 -255.743c-1.26172 -45.9297 -5.93945 -93.1094 -15.1523 -138.219c37.6133 -2.6543 78.8721 1.9502 108.126 26.665c8.36719 7.06934 20.6865 8.40723 31.0518 5.80078
c5.24219 -1.31934 20.5762 -8.33398 14.3965 -16.7197c-25.5244 -34.6348 -66.6338 -45.1602 -107.823 -48.5869c-17.7881 -1.48047 -35.5469 -1.57129 -53.207 -0.444336c-8.54199 -34.5586 -19.9092 -68.9531 -37.9629 -99.3809
c-51.7949 -87.2939 -165.587 -113.944 -257.767 -77.8662c-84.3008 32.9941 -135.199 107.907 -158.08 193.021zM260.062 16.6797c27.2051 20.4561 43 52.7158 54.9834 83.6357c7.00391 18.0898 12.9395 36.6504 18.0654 55.5098
c-83.3818 27.0186 -157.14 76.5029 -229.136 125.455c-9.31152 6.33301 -18.6045 12.6914 -27.9629 18.9551c-6.71582 4.49512 -18.6953 9.17676 -25.0059 14.4854c0.328125 0.513672 0.608398 1.30078 0.793945 2.45996
c0.0185547 0.124023 -0.666992 -0.736328 -1.52344 -1.85938c-0.113281 0.105469 -0.258789 0.204102 -0.368164 0.306641c-4.91406 4.70703 -2.85742 -0.841797 -0.615234 -1.61426c-1.03516 -1.39258 -2.05957 -2.81055 -2.31445 -3.24805
c-3.96289 -6.7666 -5.40625 -14.8418 -6.18262 -22.5088c-4.21484 -41.6162 6.57617 -86.3682 18.9971 -125.866c20.3291 -64.6396 64.3916 -140.114 135.142 -158.361c7.62305 -1.96484 12.9492 -2.5918 17.8564 -2.63965
c2.98242 -0.0292969 6.02637 -0.0332031 9.03027 0.109375c0.714844 0.200195 5.0459 0.801758 5.50879 0.896484c8.20703 1.66992 20.5693 5.14062 32.7314 14.2842zM45.9873 525.977c-17.7588 -56.5273 -24.6318 -116.431 -20.9277 -175.602
c9.10742 2.05957 19.6074 2.53711 31.6895 1.11523c45.9766 -5.41016 86.3242 -43.7412 123.395 -68.6641c39.126 -26.3076 79.0107 -51.7773 121.411 -72.54c13.2051 -6.46777 26.7129 -12.3955 40.4756 -17.6641c10.8936 50.8037 16.7412 103.073 21.0137 153.972
c6.26367 74.6328 5.84473 153.229 -16.6865 225.316c-10.2881 32.9248 -25.1006 68.3867 -52.2178 90.8154c-28.5576 23.6211 -64.1113 33.7822 -100.602 25.918c-78.4971 -16.916 -125.061 -91.082 -147.551 -162.667z" />
    <glyph glyph-name="O" unicode="&#xd5;" horiz-adv-x="560" 
d="M-14.2549 150.756c-12.6182 46.9287 -28.0381 136.669 5.53906 178.733c-9.07031 83.4912 2.32617 171.354 37.3145 246.924c37.4785 80.9434 115.793 144.565 209.077 134.839c38.9004 -4.05371 72.2441 -22.7197 100.491 -49.0312
c31.8057 -29.6289 58.8203 -60.917 78.7666 -99.9922c40.4355 -79.2119 47.6318 -168.205 45.2295 -255.743c-1.26172 -45.9297 -5.93945 -93.1094 -15.1523 -138.219c37.6133 -2.6543 78.8721 1.9502 108.126 26.665c8.36719 7.06934 20.6865 8.40723 31.0518 5.80078
c5.24219 -1.31934 20.5762 -8.33398 14.3965 -16.7197c-25.5244 -34.6348 -66.6338 -45.1602 -107.823 -48.5869c-17.7881 -1.48047 -35.5469 -1.57129 -53.207 -0.444336c-8.54199 -34.5586 -19.9092 -68.9531 -37.9629 -99.3809
c-51.7949 -87.2939 -165.587 -113.944 -257.767 -77.8662c-84.3008 32.9941 -135.199 107.907 -158.08 193.021zM260.062 16.6797c27.2051 20.4561 43 52.7158 54.9834 83.6357c7.00391 18.0898 12.9395 36.6504 18.0654 55.5098
c-83.3818 27.0186 -157.14 76.5029 -229.136 125.455c-9.31152 6.33301 -18.6045 12.6914 -27.9629 18.9551c-6.71582 4.49512 -18.6953 9.17676 -25.0059 14.4854c0.328125 0.513672 0.608398 1.30078 0.793945 2.45996
c0.0185547 0.124023 -0.666992 -0.736328 -1.52344 -1.85938c-0.113281 0.105469 -0.258789 0.204102 -0.368164 0.306641c-4.91406 4.70703 -2.85742 -0.841797 -0.615234 -1.61426c-1.03516 -1.39258 -2.05957 -2.81055 -2.31445 -3.24805
c-3.96289 -6.7666 -5.40625 -14.8418 -6.18262 -22.5088c-4.21484 -41.6162 6.57617 -86.3682 18.9971 -125.866c20.3291 -64.6396 64.3916 -140.114 135.142 -158.361c7.62305 -1.96484 12.9492 -2.5918 17.8564 -2.63965
c2.98242 -0.0292969 6.02637 -0.0332031 9.03027 0.109375c0.714844 0.200195 5.0459 0.801758 5.50879 0.896484c8.20703 1.66992 20.5693 5.14062 32.7314 14.2842zM45.9873 525.977c-17.7588 -56.5273 -24.6318 -116.431 -20.9277 -175.602
c9.10742 2.05957 19.6074 2.53711 31.6895 1.11523c45.9766 -5.41016 86.3242 -43.7412 123.395 -68.6641c39.126 -26.3076 79.0107 -51.7773 121.411 -72.54c13.2051 -6.46777 26.7129 -12.3955 40.4756 -17.6641c10.8936 50.8037 16.7412 103.073 21.0137 153.972
c6.26367 74.6328 5.84473 153.229 -16.6865 225.316c-10.2881 32.9248 -25.1006 68.3867 -52.2178 90.8154c-28.5576 23.6211 -64.1113 33.7822 -100.602 25.918c-78.4971 -16.916 -125.061 -91.082 -147.551 -162.667z" />
    <glyph glyph-name="O" unicode="&#xd4;" horiz-adv-x="560" 
d="M-14.2549 150.756c-12.6182 46.9287 -28.0381 136.669 5.53906 178.733c-9.07031 83.4912 2.32617 171.354 37.3145 246.924c37.4785 80.9434 115.793 144.565 209.077 134.839c38.9004 -4.05371 72.2441 -22.7197 100.491 -49.0312
c31.8057 -29.6289 58.8203 -60.917 78.7666 -99.9922c40.4355 -79.2119 47.6318 -168.205 45.2295 -255.743c-1.26172 -45.9297 -5.93945 -93.1094 -15.1523 -138.219c37.6133 -2.6543 78.8721 1.9502 108.126 26.665c8.36719 7.06934 20.6865 8.40723 31.0518 5.80078
c5.24219 -1.31934 20.5762 -8.33398 14.3965 -16.7197c-25.5244 -34.6348 -66.6338 -45.1602 -107.823 -48.5869c-17.7881 -1.48047 -35.5469 -1.57129 -53.207 -0.444336c-8.54199 -34.5586 -19.9092 -68.9531 -37.9629 -99.3809
c-51.7949 -87.2939 -165.587 -113.944 -257.767 -77.8662c-84.3008 32.9941 -135.199 107.907 -158.08 193.021zM260.062 16.6797c27.2051 20.4561 43 52.7158 54.9834 83.6357c7.00391 18.0898 12.9395 36.6504 18.0654 55.5098
c-83.3818 27.0186 -157.14 76.5029 -229.136 125.455c-9.31152 6.33301 -18.6045 12.6914 -27.9629 18.9551c-6.71582 4.49512 -18.6953 9.17676 -25.0059 14.4854c0.328125 0.513672 0.608398 1.30078 0.793945 2.45996
c0.0185547 0.124023 -0.666992 -0.736328 -1.52344 -1.85938c-0.113281 0.105469 -0.258789 0.204102 -0.368164 0.306641c-4.91406 4.70703 -2.85742 -0.841797 -0.615234 -1.61426c-1.03516 -1.39258 -2.05957 -2.81055 -2.31445 -3.24805
c-3.96289 -6.7666 -5.40625 -14.8418 -6.18262 -22.5088c-4.21484 -41.6162 6.57617 -86.3682 18.9971 -125.866c20.3291 -64.6396 64.3916 -140.114 135.142 -158.361c7.62305 -1.96484 12.9492 -2.5918 17.8564 -2.63965
c2.98242 -0.0292969 6.02637 -0.0332031 9.03027 0.109375c0.714844 0.200195 5.0459 0.801758 5.50879 0.896484c8.20703 1.66992 20.5693 5.14062 32.7314 14.2842zM45.9873 525.977c-17.7588 -56.5273 -24.6318 -116.431 -20.9277 -175.602
c9.10742 2.05957 19.6074 2.53711 31.6895 1.11523c45.9766 -5.41016 86.3242 -43.7412 123.395 -68.6641c39.126 -26.3076 79.0107 -51.7773 121.411 -72.54c13.2051 -6.46777 26.7129 -12.3955 40.4756 -17.6641c10.8936 50.8037 16.7412 103.073 21.0137 153.972
c6.26367 74.6328 5.84473 153.229 -16.6865 225.316c-10.2881 32.9248 -25.1006 68.3867 -52.2178 90.8154c-28.5576 23.6211 -64.1113 33.7822 -100.602 25.918c-78.4971 -16.916 -125.061 -91.082 -147.551 -162.667z" />
    <glyph glyph-name="O" unicode="&#xd3;" horiz-adv-x="560" 
d="M-14.2549 150.756c-12.6182 46.9287 -28.0381 136.669 5.53906 178.733c-9.07031 83.4912 2.32617 171.354 37.3145 246.924c37.4785 80.9434 115.793 144.565 209.077 134.839c38.9004 -4.05371 72.2441 -22.7197 100.491 -49.0312
c31.8057 -29.6289 58.8203 -60.917 78.7666 -99.9922c40.4355 -79.2119 47.6318 -168.205 45.2295 -255.743c-1.26172 -45.9297 -5.93945 -93.1094 -15.1523 -138.219c37.6133 -2.6543 78.8721 1.9502 108.126 26.665c8.36719 7.06934 20.6865 8.40723 31.0518 5.80078
c5.24219 -1.31934 20.5762 -8.33398 14.3965 -16.7197c-25.5244 -34.6348 -66.6338 -45.1602 -107.823 -48.5869c-17.7881 -1.48047 -35.5469 -1.57129 -53.207 -0.444336c-8.54199 -34.5586 -19.9092 -68.9531 -37.9629 -99.3809
c-51.7949 -87.2939 -165.587 -113.944 -257.767 -77.8662c-84.3008 32.9941 -135.199 107.907 -158.08 193.021zM260.062 16.6797c27.2051 20.4561 43 52.7158 54.9834 83.6357c7.00391 18.0898 12.9395 36.6504 18.0654 55.5098
c-83.3818 27.0186 -157.14 76.5029 -229.136 125.455c-9.31152 6.33301 -18.6045 12.6914 -27.9629 18.9551c-6.71582 4.49512 -18.6953 9.17676 -25.0059 14.4854c0.328125 0.513672 0.608398 1.30078 0.793945 2.45996
c0.0185547 0.124023 -0.666992 -0.736328 -1.52344 -1.85938c-0.113281 0.105469 -0.258789 0.204102 -0.368164 0.306641c-4.91406 4.70703 -2.85742 -0.841797 -0.615234 -1.61426c-1.03516 -1.39258 -2.05957 -2.81055 -2.31445 -3.24805
c-3.96289 -6.7666 -5.40625 -14.8418 -6.18262 -22.5088c-4.21484 -41.6162 6.57617 -86.3682 18.9971 -125.866c20.3291 -64.6396 64.3916 -140.114 135.142 -158.361c7.62305 -1.96484 12.9492 -2.5918 17.8564 -2.63965
c2.98242 -0.0292969 6.02637 -0.0332031 9.03027 0.109375c0.714844 0.200195 5.0459 0.801758 5.50879 0.896484c8.20703 1.66992 20.5693 5.14062 32.7314 14.2842zM45.9873 525.977c-17.7588 -56.5273 -24.6318 -116.431 -20.9277 -175.602
c9.10742 2.05957 19.6074 2.53711 31.6895 1.11523c45.9766 -5.41016 86.3242 -43.7412 123.395 -68.6641c39.126 -26.3076 79.0107 -51.7773 121.411 -72.54c13.2051 -6.46777 26.7129 -12.3955 40.4756 -17.6641c10.8936 50.8037 16.7412 103.073 21.0137 153.972
c6.26367 74.6328 5.84473 153.229 -16.6865 225.316c-10.2881 32.9248 -25.1006 68.3867 -52.2178 90.8154c-28.5576 23.6211 -64.1113 33.7822 -100.602 25.918c-78.4971 -16.916 -125.061 -91.082 -147.551 -162.667z" />
    <glyph glyph-name="P" unicode="P" 
d="M67.8955 638.358c73.3818 66.2285 200.974 89.0352 282.493 23.5752c33.6943 -27.0557 58.0332 -70.9619 67.4541 -112.567c10.8535 -47.9199 6.03027 -99.5332 -11.0869 -145.514c-33.377 -89.6455 -113.395 -151.183 -201.942 -181.384
c30.9346 -11.2432 62.0801 -21.9033 93.8672 -30.4893c40.377 -10.9082 85.9121 -20.6426 123.938 2.21289c11.6299 6.99219 45.04 -3.82129 26.4248 -15.0615c-42.1416 -25.4404 -93.2256 -23.3438 -139.742 -13.0703c-49.2178 10.875 -96.8203 27.6895 -144.059 45.1123
c-1.11914 -0.258789 -2.23828 -0.542969 -3.36133 -0.791016c-2.07812 -0.462891 -4.31641 -0.801758 -6.63184 -1.05371c-0.124023 -19.9492 -0.185547 -39.8984 -0.0615234 -59.8662c0.200195 -32.3857 0.74707 -64.7598 1.85156 -97.127
c1.06836 -31.3027 1.7832 -62.5801 -4.66602 -93.3906c-4.87109 -23.2783 -57.8809 -28.1309 -66.4668 -5.12598c-11.0762 29.666 -16.2568 61.4609 -18.9619 93.6709c-16.5996 40.6797 -39.043 79.2881 -54.9131 120.161c-22.6807 58.416 -36.6582 120.544 -40.873 183.076
c-6.99219 103.715 16.7383 215.432 96.7373 287.632zM333.986 634.627c-14.9805 17.3135 -34.2656 29.627 -56.0889 36.5361c-94.7168 29.9648 -186.991 -31.6592 -230.981 -112.931c-47.3662 -87.5059 -46.3486 -194.301 -26.8223 -289.47
c9.22754 -44.9746 24.1279 -88.2822 42.9365 -130.033c-0.0800781 2.38477 -0.15625 4.77246 -0.244141 7.14258c-2.44629 64.5518 -2.37012 129.851 1.35938 194.348c2.11816 36.6143 93.375 36.0381 92.7949 0c-0.334961 -20.8721 -0.663086 -41.7256 -0.961914 -62.5762
c33.5771 12.6182 64.9521 29.3408 92.9111 53.1807c38.1387 32.5166 68.4531 73.1309 88.5889 119.031c17.2266 39.2686 25.5752 82.9336 19.3809 125.673c-3.24805 22.4072 -7.67383 41.5293 -22.873 59.0986z" />
    <glyph glyph-name="Q" unicode="Q" horiz-adv-x="560" 
d="M401.584 35.5977c-30.9922 -52.2295 -84.1865 -82.7314 -141.654 -91.0986c3.65332 -5.38477 7.45996 -10.6602 11.4961 -15.7676c10.9297 -13.8281 42.7861 -54.6787 62.4297 -37.5439c10.0518 8.76855 46.1924 1.12305 32.6123 -10.8643
c-41.8936 -36.9863 -95.6797 -2.29004 -124.718 32.9062c-7.60547 9.2168 -14.4629 18.9805 -20.9014 29.0205c-26.1543 0.710938 -52.3633 5.83008 -77.0234 15.4805c-84.3008 32.9941 -135.195 107.907 -158.08 193.021
c-12.6182 46.9248 -28.0361 136.669 5.53418 178.733c-9.07031 83.4912 2.32617 171.354 37.3145 246.924c37.4785 80.9434 115.793 144.565 209.077 134.839c38.8965 -4.05371 72.2441 -22.7197 100.491 -49.0312c31.8057 -29.6289 58.8203 -60.917 78.7666 -99.9922
c40.4316 -79.2119 47.6318 -168.205 45.2256 -255.743c-1.26172 -45.9297 -5.93945 -93.1094 -15.1523 -138.219c37.6133 -2.6543 78.8691 1.9502 108.126 26.665c8.36719 7.06934 20.6865 8.40723 31.0518 5.80078c5.24219 -1.31934 20.5762 -8.33398 14.3965 -16.7188
c-25.5273 -34.6348 -66.6338 -45.1602 -107.823 -48.5869c-17.791 -1.48047 -35.5459 -1.57129 -53.2061 -0.444336c-8.54199 -34.5586 -19.9092 -68.9531 -37.9629 -99.3809zM45.9805 525.977c-17.7588 -56.5273 -24.6299 -116.431 -20.9219 -175.602
c9.10352 2.05957 19.6035 2.53711 31.6855 1.11523c45.9766 -5.41016 86.3242 -43.7412 123.395 -68.6641c39.126 -26.3076 79.0107 -51.7773 121.411 -72.54c13.2012 -6.46777 26.7119 -12.3955 40.4746 -17.6641c10.8936 50.8037 16.7412 103.073 21.0137 153.972
c6.26367 74.6328 5.84473 153.229 -16.6865 225.316c-10.292 32.9248 -25.1016 68.3867 -52.2188 90.8154c-28.5576 23.6211 -64.1113 33.7822 -100.602 25.918c-78.4971 -16.916 -125.061 -91.082 -147.551 -162.667zM128.037 43.5439
c16.2637 -16.0264 35.0615 -28.8301 56.4844 -36.3184c-11.0576 20.1104 -25.3564 42.1924 -34.3291 38.1709c-6.2959 -2.82227 -15.1553 -4.43359 -22.1553 -1.85254zM260.054 16.6787c27.2051 20.4561 42.999 52.7148 54.9756 83.6348
c7.00391 18.0898 12.9395 36.6504 18.0654 55.5098c-83.3818 27.0186 -157.136 76.5029 -229.136 125.454c-9.31152 6.33301 -18.6045 12.6914 -27.9629 18.9551c-6.71875 4.49512 -18.6982 9.17676 -25.0059 14.4854c0.332031 0.513672 0.609375 1.30078 0.794922 2.45996
c0.0214844 0.124023 -0.664062 -0.736328 -1.52051 -1.85938c-0.113281 0.105469 -0.258789 0.204102 -0.368164 0.306641c-4.91406 4.70703 -2.85449 -0.841797 -0.616211 -1.61426c-1.03516 -1.39258 -2.05957 -2.81055 -2.31445 -3.24805
c-3.96289 -6.7666 -5.40625 -14.8418 -6.18262 -22.5088c-4.21484 -41.6162 6.57617 -86.3682 18.9971 -125.866c11.7578 -37.3838 31.4668 -78.3662 59.667 -109.829c-0.408203 2.89062 0.929688 5.76758 4.88574 7.57227
c20.3652 9.28613 43.0195 8.42578 61.8496 -4.37402c18.1777 -12.3594 29.1191 -34.3799 39.6406 -53.5967c0.744141 0.113281 1.3457 0.201172 1.49902 0.234375c8.20703 1.66992 20.5693 5.14062 32.7314 14.2842z" />
    <glyph glyph-name="R" unicode="R" horiz-adv-x="483" 
d="M317.71 -27.6963c-51.0557 13.7373 -81.2246 53.3506 -103.573 98.8096c-18.5352 37.7012 -34.7734 75.8105 -58.9707 109.577c-0.0107422 -10.4053 -0.0439453 -20.8105 0.0214844 -31.2266c0.200195 -32.3857 0.74707 -64.7598 1.85156 -97.127
c1.06836 -31.3027 1.7832 -62.5801 -4.66602 -93.3906c-4.87109 -23.2783 -57.8809 -28.1309 -66.4668 -5.12598c-11.0762 29.666 -16.2568 61.4609 -18.9619 93.6709c-16.5996 40.6797 -39.0469 79.2881 -54.9131 120.161
c-22.6768 58.416 -36.6582 120.544 -40.873 183.076c-6.99219 103.715 16.7383 215.432 96.7373 287.633c73.3818 66.2285 200.973 89.0293 282.492 23.5811c33.6943 -27.0557 58.0332 -70.9619 67.4541 -112.567c10.8535 -47.9199 6.03027 -99.5332 -11.0869 -145.514
c-34.4561 -92.5547 -118.633 -155.148 -210.583 -184.224c30.2705 -28.8672 57.2783 -61.0703 76.9395 -98.1445c19.3047 -36.4062 34.2236 -72.8018 65.0957 -101.297c9.98926 -9.21973 21.0723 -17.8564 35.2656 -16.2305c18.3311 2.09961 36.3262 13.4707 49.29 26.0156
c30.2344 29.2539 44.5293 70.0205 58.6895 108.625c5.27148 14.375 46.1445 10.8965 40.2637 -6.32617c-15.7529 -46.1152 -33.1436 -93.7764 -70.0352 -127.434c-36.709 -33.4902 -85.7773 -45.5068 -133.971 -32.543zM20.0947 268.761
c9.22754 -44.9746 24.1289 -88.2832 42.9414 -130.031c-0.0800781 2.38477 -0.15332 4.77246 -0.244141 7.14258c-2.44629 64.5518 -2.37305 129.851 1.36035 194.348c2.11816 36.6143 93.3721 36.0381 92.7959 0c-0.334961 -20.8721 -0.65918 -41.7256 -0.961914 -62.5762
c33.5771 12.6182 64.9521 29.3408 92.9111 53.1807c38.1387 32.5166 68.4531 73.1309 88.5889 119.031c17.2266 39.2686 25.5752 82.9336 19.3809 125.673c-3.24512 22.4072 -7.6709 41.5293 -22.874 59.0986c-14.9844 17.3135 -34.2705 29.6289 -56.0908 36.5342
c-94.7207 29.9648 -186.995 -31.6592 -230.985 -112.931c-47.3662 -87.5059 -46.3525 -194.301 -26.8223 -289.47z" />
    <glyph glyph-name="S" unicode="S" horiz-adv-x="407" 
d="M-22.2656 375.011c-40.7666 125.108 27.6934 277.731 158.843 313.981c56.4951 15.6152 132.841 12.5459 168.321 -41.9473c35.4736 -54.4824 7.41211 -118.998 -36.5449 -158.303c-6.93457 -6.19824 -18.9951 -7.23047 -27.4756 -4.10645
c-6.18652 2.27832 -14.2148 9.28516 -7.2041 15.6582c29.2461 26.5889 50.873 62.9883 44.5801 103.89c-5.53418 35.9727 -40.1143 65.7588 -77.4727 60.3848c-31.7002 -4.56055 -61.3252 -30.3213 -82.7949 -52.458c-23.6934 -24.4307 -42.7168 -56.2803 -50.4863 -89.6426
c-15.5967 -66.9658 4.76172 -136.965 48.5332 -188.906c32.6299 -38.7178 72.8535 -68.8828 111.102 -101.374c28.335 14.1387 58.8096 23.5049 88.8213 25.7617c54.5078 4.10156 120.886 -21.9873 130.966 -81.8184c2.11426 -12.5449 -31.6094 -13.7773 -35.1348 -2.70898
c-10.0078 31.416 -35.1162 55.5508 -68.0596 61.3252c-32.7354 5.73828 -65.9814 -5.93164 -95.0342 -21.4629c4.26172 -3.875 8.49414 -7.79102 12.6426 -11.8018c45.7725 -44.2412 89.4414 -100.995 86.5684 -168.117
c-2.40625 -56.2393 -40.3184 -116.285 -99.1504 -123.624c-60.1846 -7.50684 -123.268 27.6602 -145.744 84.5557c-23.5586 59.6406 -2.61719 126.176 38.3281 172.626c3.69336 4.19238 7.63477 8.27246 11.6816 12.29c-19.9209 16.6279 -40.3477 32.749 -60.5234 49.3809
c-48.2402 39.7676 -94.8955 85.4521 -114.762 146.417zM269.206 -55.1562c43.9092 40.1396 -7.69238 122.807 -36.3955 157.157c-17.1025 20.4746 -35.8965 38.8926 -55.5361 56.3633c-31.7324 -35.6191 -51.1826 -80.8701 -43.9453 -130.591
c4.58594 -31.5029 21.5098 -60.6768 47.8213 -78.9453c25.458 -17.6748 62.7539 -27.1133 88.0557 -3.98438z" />
    <glyph glyph-name="T" unicode="T" horiz-adv-x="481" 
d="M155.068 580.318c16.5225 -3.92676 33.6104 -6.1084 50.9609 -6.99805c1.40039 26.042 3.0625 52.0547 5.2207 77.998c3.21875 38.7285 99.3027 38.2002 98.377 0c-0.568359 -23.5332 -1.55664 -47.0664 -2.70898 -70.5957
c7.97363 1.41113 15.8809 2.97168 23.7158 4.65234c30.5225 55.875 76.3574 109.348 141.223 108.542c15.4873 -0.193359 35.4189 -4.20703 43.0098 -19.5557c7.74023 -15.6553 -0.743164 -34.3037 -11.1484 -46.3418c-27.1426 -31.4121 -77.8408 -44.457 -115.688 -57.0312
c-11.2402 -3.7334 -22.6807 -7.27344 -34.2744 -10.5547c-17.6562 -35.8672 -30.3545 -74.6475 -40.9014 -111.794c-6.12109 -21.5576 -11.3672 -43.3809 -15.5596 -65.3721c-1.89941 -54.0664 -3.24805 -108.173 -3.79102 -162.262
c-0.332031 -32.9434 0.546875 -65.748 1.96875 -98.6543c1.26855 -29.3848 3.2041 -60.5449 12.2383 -88.7412c6.77051 -21.1309 18.1963 -45.3857 38.9229 -55.8896c23.3916 -11.8564 43.5527 18.1592 54.2529 35.8486c31.6348 52.3018 49.8604 113.82 57.8223 174.062
c1.88477 14.248 37.3184 13.3584 35.7764 0c-4.63379 -40.1328 -13.6719 -79.6816 -27.668 -117.608c-11.7285 -31.7871 -25.8379 -65.9004 -49.1963 -91.1074c-43.7383 -47.2021 -117.856 -39.6152 -162.765 1.46484c-24.416 22.334 -36.1113 55.8643 -43.374 87.2217
c-8.76465 37.832 -12.6436 75.8467 -13.9082 114.598c-2.54883 78.0049 -0.660156 156.126 2.12109 234.098c1.43262 40.2168 2.74121 80.543 4.5459 120.84c-35.0283 -0.306641 -69.8311 3.60547 -103.354 13.2451c-77.126 22.1807 -147.715 90.1377 -143.727 175.113
c1.30176 27.7002 70.6992 27.1426 70.0684 0c-1.7207 -73.8848 60.0205 -129.06 127.839 -145.178zM408.175 639.607c-13.0557 -13.2598 -24.4531 -28.0273 -34.5518 -43.7773c1.49512 0.404297 3.01562 0.797852 4.49902 1.20605
c30.5986 8.44043 80.1846 19.0312 98.2607 48.1172c5.54492 8.9248 9.82129 25.2617 -4.52441 28.2617c-6.82129 1.42871 -16.4902 -2.11816 -22.6514 -4.56836c-15.7383 -6.26367 -29.2568 -17.2812 -41.0322 -29.2393zM313.373 550.266
c-2.69824 -0.594727 -5.40234 -1.17578 -8.11133 -1.72949c-0.364258 -6.75879 -0.732422 -13.5215 -1.1084 -20.2803c0.430664 1.08301 0.853516 2.17676 1.28711 3.25586c2.44238 6.07422 5.09277 12.3594 7.93262 18.7539z" />
    <glyph glyph-name="U" unicode="U" horiz-adv-x="528" 
d="M232.796 39.9688c-24.8057 -33.3184 -63.127 -58.0957 -105.731 -56.6191c-45.667 1.5752 -83.667 29.3125 -105.906 67.9688c-23.7812 41.3359 -32.0166 96.6025 -37.584 143.326c-5.87695 49.3232 -7.51758 99.2188 -6.0918 148.849
c2.90918 101.382 12.9639 202.381 15.5127 303.803c0.958984 38.2695 97.0723 37.8936 97.1816 -0.000976562c0.294922 -102.628 -13.4971 -204.778 -17.0479 -307.282c-1.5166 -43.873 -2.26367 -87.7793 0.758789 -131.608
c2.90234 -42.1123 6.14746 -86.4229 18.8926 -126.876c8.77539 -27.8428 29.4902 -74.9932 66.4141 -64.0342c39.626 11.7607 61.2744 66.1738 74.6182 101.097c31.5791 82.6562 43.9346 173.567 62.1162 259.852c3.45605 16.417 6.91602 32.8379 10.376 49.2549
c1.21387 9.28613 2.44238 18.5605 3.66406 27.8203c8.85938 67.1367 17.332 134.307 26.0342 201.45c2.98242 23.0342 32.4951 29.5166 51.7812 29.5166c16.4062 0 52.707 -6.67578 51.7812 -29.5166c-3.01172 -74.3447 -17.0078 -148.747 -27.8027 -222.268
c-10.4629 -71.2344 -18.9609 -142.994 -21.2363 -215.013c-1.12988 -35.8232 -1.81543 -72.5469 2.50879 -108.188c3.40137 -28.0537 9.69043 -56.3086 30.5479 -76.5791c24.5977 -23.9053 59.7061 29.042 70.9756 47.2705c18.0684 29.2246 29.4287 61.8506 35.5459 95.5664
c2.64648 14.6016 39.3047 14.4189 37.7666 0c-3.63477 -34.0811 -14.2842 -66.623 -31.4922 -96.3145c-14.7139 -25.3857 -34.0439 -52.1133 -60.5117 -66.1641c-51.9922 -27.6025 -119.413 -0.878906 -150.009 45.6006c-17.2412 26.1943 -22.1484 58.9629 -26.6982 89.4453
c-1.87793 12.5742 -3.31445 25.1816 -4.38672 37.8105c-12.6104 -53.3262 -30.1064 -105.362 -61.9775 -148.167z" />
    <glyph glyph-name="U" unicode="&#xdc;" horiz-adv-x="528" 
d="M232.796 39.9688c-24.8057 -33.3184 -63.127 -58.0957 -105.731 -56.6191c-45.667 1.5752 -83.667 29.3125 -105.906 67.9688c-23.7812 41.3359 -32.0166 96.6025 -37.584 143.326c-5.87695 49.3232 -7.51758 99.2188 -6.0918 148.849
c2.90918 101.382 12.9639 202.381 15.5127 303.803c0.958984 38.2695 97.0723 37.8936 97.1816 -0.000976562c0.294922 -102.628 -13.4971 -204.778 -17.0479 -307.282c-1.5166 -43.873 -2.26367 -87.7793 0.758789 -131.608
c2.90234 -42.1123 6.14746 -86.4229 18.8926 -126.876c8.77539 -27.8428 29.4902 -74.9932 66.4141 -64.0342c39.626 11.7607 61.2744 66.1738 74.6182 101.097c31.5791 82.6562 43.9346 173.567 62.1162 259.852c3.45605 16.417 6.91602 32.8379 10.376 49.2549
c1.21387 9.28613 2.44238 18.5605 3.66406 27.8203c8.85938 67.1367 17.332 134.307 26.0342 201.45c2.98242 23.0342 32.4951 29.5166 51.7812 29.5166c16.4062 0 52.707 -6.67578 51.7812 -29.5166c-3.01172 -74.3447 -17.0078 -148.747 -27.8027 -222.268
c-10.4629 -71.2344 -18.9609 -142.994 -21.2363 -215.013c-1.12988 -35.8232 -1.81543 -72.5469 2.50879 -108.188c3.40137 -28.0537 9.69043 -56.3086 30.5479 -76.5791c24.5977 -23.9053 59.7061 29.042 70.9756 47.2705c18.0684 29.2246 29.4287 61.8506 35.5459 95.5664
c2.64648 14.6016 39.3047 14.4189 37.7666 0c-3.63477 -34.0811 -14.2842 -66.623 -31.4922 -96.3145c-14.7139 -25.3857 -34.0439 -52.1133 -60.5117 -66.1641c-51.9922 -27.6025 -119.413 -0.878906 -150.009 45.6006c-17.2412 26.1943 -22.1484 58.9629 -26.6982 89.4453
c-1.87793 12.5742 -3.31445 25.1816 -4.38672 37.8105c-12.6104 -53.3262 -30.1064 -105.362 -61.9775 -148.167z" />
    <glyph glyph-name="U" unicode="&#xdb;" horiz-adv-x="528" 
d="M232.796 39.9688c-24.8057 -33.3184 -63.127 -58.0957 -105.731 -56.6191c-45.667 1.5752 -83.667 29.3125 -105.906 67.9688c-23.7812 41.3359 -32.0166 96.6025 -37.584 143.326c-5.87695 49.3232 -7.51758 99.2188 -6.0918 148.849
c2.90918 101.382 12.9639 202.381 15.5127 303.803c0.958984 38.2695 97.0723 37.8936 97.1816 -0.000976562c0.294922 -102.628 -13.4971 -204.778 -17.0479 -307.282c-1.5166 -43.873 -2.26367 -87.7793 0.758789 -131.608
c2.90234 -42.1123 6.14746 -86.4229 18.8926 -126.876c8.77539 -27.8428 29.4902 -74.9932 66.4141 -64.0342c39.626 11.7607 61.2744 66.1738 74.6182 101.097c31.5791 82.6562 43.9346 173.567 62.1162 259.852c3.45605 16.417 6.91602 32.8379 10.376 49.2549
c1.21387 9.28613 2.44238 18.5605 3.66406 27.8203c8.85938 67.1367 17.332 134.307 26.0342 201.45c2.98242 23.0342 32.4951 29.5166 51.7812 29.5166c16.4062 0 52.707 -6.67578 51.7812 -29.5166c-3.01172 -74.3447 -17.0078 -148.747 -27.8027 -222.268
c-10.4629 -71.2344 -18.9609 -142.994 -21.2363 -215.013c-1.12988 -35.8232 -1.81543 -72.5469 2.50879 -108.188c3.40137 -28.0537 9.69043 -56.3086 30.5479 -76.5791c24.5977 -23.9053 59.7061 29.042 70.9756 47.2705c18.0684 29.2246 29.4287 61.8506 35.5459 95.5664
c2.64648 14.6016 39.3047 14.4189 37.7666 0c-3.63477 -34.0811 -14.2842 -66.623 -31.4922 -96.3145c-14.7139 -25.3857 -34.0439 -52.1133 -60.5117 -66.1641c-51.9922 -27.6025 -119.413 -0.878906 -150.009 45.6006c-17.2412 26.1943 -22.1484 58.9629 -26.6982 89.4453
c-1.87793 12.5742 -3.31445 25.1816 -4.38672 37.8105c-12.6104 -53.3262 -30.1064 -105.362 -61.9775 -148.167z" />
    <glyph glyph-name="U" unicode="&#xda;" horiz-adv-x="528" 
d="M232.796 39.9688c-24.8057 -33.3184 -63.127 -58.0957 -105.731 -56.6191c-45.667 1.5752 -83.667 29.3125 -105.906 67.9688c-23.7812 41.3359 -32.0166 96.6025 -37.584 143.326c-5.87695 49.3232 -7.51758 99.2188 -6.0918 148.849
c2.90918 101.382 12.9639 202.381 15.5127 303.803c0.958984 38.2695 97.0723 37.8936 97.1816 -0.000976562c0.294922 -102.628 -13.4971 -204.778 -17.0479 -307.282c-1.5166 -43.873 -2.26367 -87.7793 0.758789 -131.608
c2.90234 -42.1123 6.14746 -86.4229 18.8926 -126.876c8.77539 -27.8428 29.4902 -74.9932 66.4141 -64.0342c39.626 11.7607 61.2744 66.1738 74.6182 101.097c31.5791 82.6562 43.9346 173.567 62.1162 259.852c3.45605 16.417 6.91602 32.8379 10.376 49.2549
c1.21387 9.28613 2.44238 18.5605 3.66406 27.8203c8.85938 67.1367 17.332 134.307 26.0342 201.45c2.98242 23.0342 32.4951 29.5166 51.7812 29.5166c16.4062 0 52.707 -6.67578 51.7812 -29.5166c-3.01172 -74.3447 -17.0078 -148.747 -27.8027 -222.268
c-10.4629 -71.2344 -18.9609 -142.994 -21.2363 -215.013c-1.12988 -35.8232 -1.81543 -72.5469 2.50879 -108.188c3.40137 -28.0537 9.69043 -56.3086 30.5479 -76.5791c24.5977 -23.9053 59.7061 29.042 70.9756 47.2705c18.0684 29.2246 29.4287 61.8506 35.5459 95.5664
c2.64648 14.6016 39.3047 14.4189 37.7666 0c-3.63477 -34.0811 -14.2842 -66.623 -31.4922 -96.3145c-14.7139 -25.3857 -34.0439 -52.1133 -60.5117 -66.1641c-51.9922 -27.6025 -119.413 -0.878906 -150.009 45.6006c-17.2412 26.1943 -22.1484 58.9629 -26.6982 89.4453
c-1.87793 12.5742 -3.31445 25.1816 -4.38672 37.8105c-12.6104 -53.3262 -30.1064 -105.362 -61.9775 -148.167z" />
    <glyph glyph-name="V" unicode="V" horiz-adv-x="527" 
d="M307.259 72.376c15.793 32.6221 27.3633 67.0723 37.4004 101.846c4.78711 16.585 9.33008 33.25 13.7197 49.9619c-6.27051 4.31641 -12.3301 8.85938 -18.127 13.6357c-67.9131 55.959 -89.1279 148.404 -89.4414 232.837
c-0.288086 77.334 18.0352 157.501 62.1484 221.937c22.3555 32.6514 55.0693 57.3115 96.9375 47.6572c37.8682 -8.73535 49.4541 -49.4805 54.6748 -83.4736c13.6465 -88.8545 -9.9668 -181.938 -23.2334 -269.437c-7.97363 -52.583 -16.7451 -105.286 -28.1855 -157.348
c39.2871 -25.4844 85.3291 -35.6738 133.169 -30.2266c17.6494 2.0127 33.6357 -14.9004 9.61719 -19.8809c-49.498 -10.2627 -102.905 -2.36621 -150.194 18.123c-5.73145 -23.501 -12.0791 -46.8486 -19.2578 -69.9482
c-22.5195 -72.4482 -60.9678 -163.271 -151.503 -158.303c-81.7852 4.48828 -141.025 88.8545 -170.425 157.198c-33.917 78.8359 -53.1152 164.727 -67.7861 248.973c-15.2607 87.6299 -29.3223 179.438 -28.7539 268.536c0.240234 37.6387 89.9551 36.5195 94.7891 0
c11.2178 -84.7344 13.9736 -170.224 27.1934 -254.878c12.4863 -79.9658 27.9775 -161.729 55.2803 -238.126c10.8428 -30.3398 23.2598 -60.3115 40.6611 -87.5381c11.3018 -17.6816 35.3926 -59.7979 60.4102 -58.9814c29.334 0.958984 50.3223 45.5723 60.9062 67.4355z
M309.025 424.839c5.30078 -57.9238 22.6465 -113.34 60.4492 -156.769c10.4814 43.0234 19.9746 86.3135 28.9326 129.593c15.542 75.0918 28.0723 153.829 24.1162 230.726c-0.969727 18.8701 -3.14258 37.708 -10.3066 55.3428
c-2.94238 7.24023 -6.5957 16.8398 -12.5459 22.2393c-6.41309 5.81836 -8.15625 4.19629 -15.0977 -1.32324c-23.6025 -18.7725 -38.9697 -54.2207 -50.0488 -81.4541c-25.4365 -62.5244 -31.6162 -131.517 -25.499 -198.354z" />
    <glyph glyph-name="W" unicode="W" horiz-adv-x="604" 
d="M626.505 181.657c-28.9072 1.84082 -57.4561 5.30566 -85.0293 11.5586c-4.14844 -19.3047 -8.74609 -38.5215 -13.8281 -57.6328c-16.9092 -63.5781 -33.4277 -141.354 -102.712 -166.973c-73.6768 -27.2412 -150.992 17.9043 -181.012 85.9668
c-9.54785 21.6484 -15.8115 44.2158 -20.084 67.2646c-5.90625 -23.541 -13.4053 -46.9141 -24.8203 -67.8154c-29.1221 -53.3262 -92.9561 -73.5889 -146.669 -42.7969c-60.8916 34.9082 -71.4785 113.686 -75.9414 177.49
c-10.3027 147.296 14.1055 294.825 41.0986 439.11c3.54688 18.9648 25.9502 24.4004 42.8086 24.4004c11.5137 0 46.3018 -6.01953 42.8096 -24.4014c-13.3691 -70.3525 -25.8154 -140.927 -34.2041 -212.066c-7.24414 -61.4346 -11.8818 -123.343 -11.4375 -185.233
c0.416016 -57.833 2.03516 -121.386 23.6221 -175.806c9.01953 -22.7354 26.6035 -43.3525 51.4492 -27.6719c24.5801 15.5127 36.3818 44.7041 45.4492 71.0488c18.1484 52.7432 26.5117 108.057 34.04 163.166c-0.332031 5.71289 -0.689453 11.4072 -1.10547 17.0654
c-1.60059 21.7539 34.7402 28.1523 49.3887 28.1523c17.3242 0 48.04 -6.23438 49.3887 -28.1523c4.29492 -69.7578 -0.458984 -143.038 24.0811 -209.632c8.97266 -24.3496 23.873 -56.1553 49.4258 -67.125c24.1133 -10.3535 52.5869 22.0391 64.3301 39.1709
c31.9551 46.6143 46.4502 106.751 57.3877 162.714c-34.3213 11.666 -66.5059 28.9219 -95.1729 54.3799c-54.8213 48.6855 -88.2637 116.431 -100.312 188.197c-11.4766 68.3613 -5.27148 144.266 21.3496 208.639c22.5928 54.6318 74.3447 115.611 140.84 95.9531
c62.4697 -18.4658 80.0166 -102.322 88.5146 -157.793c11.7178 -76.4922 10.5801 -156.258 5.10742 -233.26c-3.40918 -47.9414 -9.77148 -95.54 -18.9189 -142.629c27.3398 -7.1709 55.8281 -11.1553 84.9648 -15.042c20.6748 -2.75586 12.2607 -21.3379 -4.80859 -20.248z
M365.698 386.725c18.9502 -50.9238 51.2949 -96.9365 94.8145 -129.814c15.7168 -11.8711 32.1846 -20.8652 49.25 -27.8867c11.4111 62.1533 17.54 125.236 19.1729 188.392c1.62207 62.623 1.00195 126.836 -10.2637 188.628
c-6.78809 37.2266 -33.5479 152.933 -92.8828 117.995c-50.5303 -29.7529 -69.6162 -101.279 -77.1738 -155.189c-8.53125 -60.8291 -4.4375 -124.291 17.083 -182.124z" />
    <glyph glyph-name="X" unicode="X" horiz-adv-x="453" 
d="M491.483 181.745c-12.5889 -64.9424 -46.1279 -139.568 -109.674 -168.439c-53.6582 -24.3721 -124.266 -12.6582 -173.199 17.8311c-56.6045 35.2695 -88.29 94.7178 -108.849 156.258c-2.55566 7.64844 -4.98047 15.334 -7.32422 23.0488
c-6.70801 -9.18359 -13.3066 -18.4434 -19.6465 -27.9004c-32.2539 -48.1201 -75.7109 -111.315 -54.248 -171.664c7.27344 -20.4453 -37.9199 -21.5537 -46.0322 -7.2334c-15.8447 27.9736 -7.01074 59.7686 5.71289 87.3594
c13.1904 28.6045 29.1445 56.4619 46.1846 82.9297c17.3828 27.0039 36.4463 52.8848 56.4248 78.0547c-31.3896 122.789 -40.3145 252.134 -51.3613 377.435c-2.08496 23.6357 38.1172 30.6543 53.7754 30.6543c19.1475 0 51.9297 -6.78809 53.7744 -30.6533
c5.66211 -73.1484 11.335 -146.337 20.4453 -219.157c2.45703 -19.6396 5.13672 -39.2754 8.0498 -58.8857c31.6709 35.8711 63.3018 71.7969 92.6104 109.644c40.6279 52.4629 83.6807 111.979 93.251 179.232c1.89258 13.3037 34.96 12.3848 33.3818 0
c-8.14062 -63.834 -44.0625 -119.578 -81.0596 -170.67c-35.2979 -48.7471 -74.7158 -94.2314 -113.937 -139.818c-5.84766 -6.7998 -11.6992 -13.6064 -17.543 -20.4238c4.98047 -29.1367 10.6465 -58.1494 17.3291 -86.8994
c11.8818 -51.1172 25.043 -105.118 57.1553 -147.817c13.7812 -18.3232 31.5322 -36.4863 53.1006 -45.2803c25.2979 -10.3174 50.5225 -5.17676 72.8711 9.83691c50.5117 33.9277 61.5908 92.9521 83.2793 145.302c4.32031 10.4229 38.0469 10.2549 35.5273 -2.74219z" />
    <glyph glyph-name="Y" unicode="Y" horiz-adv-x="584" 
d="M130.656 -17.4453c-124.787 56.8887 -158.325 206.178 -161.493 330.943c-1.42871 56.1553 5.24707 159.433 80.9697 160.953c30.6533 0.616211 56.0244 -17.8242 78.2744 -36.7891c17.5908 -14.999 35.2725 -29.8916 53.0127 -44.7119
c-9.69434 15.5342 -14.416 34.0732 -16.3633 52.9512c-6.7998 65.9883 0.170898 132.83 6.75195 198.523c3.60938 36.0459 93.3242 33.3447 89.6055 0.000976562c-5.78613 -51.8789 -11.875 -104.01 -12.0576 -156.275
c-0.0986328 -28.3125 -3.86133 -105.941 36.7598 -102.441c49.7578 4.28711 63.7246 67.6582 75.8906 106.58c12.4434 39.8115 21.4961 80.4688 27.585 121.658c0.15332 12.9756 0.28418 25.9395 0.368164 38.875c0.214844 32.6045 74.6143 30.0967 80.4365 0.000976562
c16.6758 -86.2227 14.415 -174.848 10.2295 -262.182c-2.78906 -58.1465 -7.6123 -117 -18.2217 -174.577c43.6143 -13.5586 89.1387 -19.7676 136.406 -14.8965c7.56836 0.780273 22.8555 0.546875 26.417 -8.54883c3.43066 -8.76074 -7.83887 -14.3711 -14.999 -15.0566
c-52.915 -5.06055 -103.807 1.02832 -152.547 14.9297c-3.78027 -17.624 -8.11914 -35.1094 -13.209 -52.3789c-18.6514 -63.3193 -55.9727 -123.729 -116.128 -154.806c-62.168 -32.1191 -134.435 -31.5908 -197.688 -2.75293zM286.585 359.485
c-21.6299 -6.00488 -45.6143 -6.55469 -66.5957 1.52441c44.9375 -36.5996 93.6846 -73.3818 145.862 -102.588c9.32227 62.3242 15.0566 125.458 18.582 188.748c-7.04395 -20.46 -15.4033 -41.3652 -30.8174 -56.5752
c-18.1123 -17.875 -43.2568 -24.5107 -67.0312 -31.1094zM37.6865 384.168c-6.00488 -31.7578 -5.4209 -64.5449 -2.77441 -96.6201c4.93262 -59.75 14.8711 -120.671 41.4482 -174.975c23.3545 -47.7197 64.2969 -93.9375 118.087 -106.778
c45.9551 -10.9736 83.9043 22.8408 108.914 57.8984c34.1611 47.8838 48.4453 109.621 58.0879 166.914c-47.1943 23.7705 -91.9824 53.498 -134.182 85.6104c-26.5957 20.2344 -52.4551 41.416 -78.2197 62.6895c-24.252 20.0225 -48.584 44.1797 -76.1865 59.5176
c-6.7373 3.74414 -7.87109 5.86914 -12.6582 2.86523c-4.01367 -2.52637 -6.9707 -10.0986 -8.9873 -14.3135c-6.43848 -13.4531 -10.7695 -28.1963 -13.5293 -42.8086z" />
    <glyph glyph-name="Y" unicode="&#x178;" horiz-adv-x="584" 
d="M130.656 -17.4453c-124.787 56.8887 -158.325 206.178 -161.493 330.943c-1.42871 56.1553 5.24707 159.433 80.9697 160.953c30.6533 0.616211 56.0244 -17.8242 78.2744 -36.7891c17.5908 -14.999 35.2725 -29.8916 53.0127 -44.7119
c-9.69434 15.5342 -14.416 34.0732 -16.3633 52.9512c-6.7998 65.9883 0.170898 132.83 6.75195 198.523c3.60938 36.0459 93.3242 33.3447 89.6055 0.000976562c-5.78613 -51.8789 -11.875 -104.01 -12.0576 -156.275
c-0.0986328 -28.3125 -3.86133 -105.941 36.7598 -102.441c49.7578 4.28711 63.7246 67.6582 75.8906 106.58c12.4434 39.8115 21.4961 80.4688 27.585 121.658c0.15332 12.9756 0.28418 25.9395 0.368164 38.875c0.214844 32.6045 74.6143 30.0967 80.4365 0.000976562
c16.6758 -86.2227 14.415 -174.848 10.2295 -262.182c-2.78906 -58.1465 -7.6123 -117 -18.2217 -174.577c43.6143 -13.5586 89.1387 -19.7676 136.406 -14.8965c7.56836 0.780273 22.8555 0.546875 26.417 -8.54883c3.43066 -8.76074 -7.83887 -14.3711 -14.999 -15.0566
c-52.915 -5.06055 -103.807 1.02832 -152.547 14.9297c-3.78027 -17.624 -8.11914 -35.1094 -13.209 -52.3789c-18.6514 -63.3193 -55.9727 -123.729 -116.128 -154.806c-62.168 -32.1191 -134.435 -31.5908 -197.688 -2.75293zM286.585 359.485
c-21.6299 -6.00488 -45.6143 -6.55469 -66.5957 1.52441c44.9375 -36.5996 93.6846 -73.3818 145.862 -102.588c9.32227 62.3242 15.0566 125.458 18.582 188.748c-7.04395 -20.46 -15.4033 -41.3652 -30.8174 -56.5752
c-18.1123 -17.875 -43.2568 -24.5107 -67.0312 -31.1094zM37.6865 384.168c-6.00488 -31.7578 -5.4209 -64.5449 -2.77441 -96.6201c4.93262 -59.75 14.8711 -120.671 41.4482 -174.975c23.3545 -47.7197 64.2969 -93.9375 118.087 -106.778
c45.9551 -10.9736 83.9043 22.8408 108.914 57.8984c34.1611 47.8838 48.4453 109.621 58.0879 166.914c-47.1943 23.7705 -91.9824 53.498 -134.182 85.6104c-26.5957 20.2344 -52.4551 41.416 -78.2197 62.6895c-24.252 20.0225 -48.584 44.1797 -76.1865 59.5176
c-6.7373 3.74414 -7.87109 5.86914 -12.6582 2.86523c-4.01367 -2.52637 -6.9707 -10.0986 -8.9873 -14.3135c-6.43848 -13.4531 -10.7695 -28.1963 -13.5293 -42.8086z" />
    <glyph glyph-name="Y" unicode="&#xdd;" horiz-adv-x="584" 
d="M130.656 -17.4453c-124.787 56.8887 -158.325 206.178 -161.493 330.943c-1.42871 56.1553 5.24707 159.433 80.9697 160.953c30.6533 0.616211 56.0244 -17.8242 78.2744 -36.7891c17.5908 -14.999 35.2725 -29.8916 53.0127 -44.7119
c-9.69434 15.5342 -14.416 34.0732 -16.3633 52.9512c-6.7998 65.9883 0.170898 132.83 6.75195 198.523c3.60938 36.0459 93.3242 33.3447 89.6055 0.000976562c-5.78613 -51.8789 -11.875 -104.01 -12.0576 -156.275
c-0.0986328 -28.3125 -3.86133 -105.941 36.7598 -102.441c49.7578 4.28711 63.7246 67.6582 75.8906 106.58c12.4434 39.8115 21.4961 80.4688 27.585 121.658c0.15332 12.9756 0.28418 25.9395 0.368164 38.875c0.214844 32.6045 74.6143 30.0967 80.4365 0.000976562
c16.6758 -86.2227 14.415 -174.848 10.2295 -262.182c-2.78906 -58.1465 -7.6123 -117 -18.2217 -174.577c43.6143 -13.5586 89.1387 -19.7676 136.406 -14.8965c7.56836 0.780273 22.8555 0.546875 26.417 -8.54883c3.43066 -8.76074 -7.83887 -14.3711 -14.999 -15.0566
c-52.915 -5.06055 -103.807 1.02832 -152.547 14.9297c-3.78027 -17.624 -8.11914 -35.1094 -13.209 -52.3789c-18.6514 -63.3193 -55.9727 -123.729 -116.128 -154.806c-62.168 -32.1191 -134.435 -31.5908 -197.688 -2.75293zM286.585 359.485
c-21.6299 -6.00488 -45.6143 -6.55469 -66.5957 1.52441c44.9375 -36.5996 93.6846 -73.3818 145.862 -102.588c9.32227 62.3242 15.0566 125.458 18.582 188.748c-7.04395 -20.46 -15.4033 -41.3652 -30.8174 -56.5752
c-18.1123 -17.875 -43.2568 -24.5107 -67.0312 -31.1094zM37.6865 384.168c-6.00488 -31.7578 -5.4209 -64.5449 -2.77441 -96.6201c4.93262 -59.75 14.8711 -120.671 41.4482 -174.975c23.3545 -47.7197 64.2969 -93.9375 118.087 -106.778
c45.9551 -10.9736 83.9043 22.8408 108.914 57.8984c34.1611 47.8838 48.4453 109.621 58.0879 166.914c-47.1943 23.7705 -91.9824 53.498 -134.182 85.6104c-26.5957 20.2344 -52.4551 41.416 -78.2197 62.6895c-24.252 20.0225 -48.584 44.1797 -76.1865 59.5176
c-6.7373 3.74414 -7.87109 5.86914 -12.6582 2.86523c-4.01367 -2.52637 -6.9707 -10.0986 -8.9873 -14.3135c-6.43848 -13.4531 -10.7695 -28.1963 -13.5293 -42.8086z" />
    <glyph glyph-name="Z" unicode="Z" horiz-adv-x="281" 
d="M280.471 522.519c-11.874 -35.4951 -27.8262 -69.3633 -46.1572 -101.938c-24.5977 -43.7129 -52.1455 -85.6758 -78.4355 -128.375c19.2275 -5.59277 38.7686 -9.8252 58.999 -11.0283c6.93066 -0.412109 21.875 -2.49707 21.875 -12.4678
c0 -9.91309 -14.6523 -12.1338 -21.875 -12.4688c-25.7686 -1.19922 -50.3008 3.49316 -74.3047 10.6611c-7.10938 -11.9541 -14.1055 -23.9775 -20.7959 -36.1797c-18.3779 -33.5342 -35.5098 -68.5264 -46.5527 -105.235
c-5.77832 -19.2061 -8.97559 -39.6367 -10.4336 -59.6299c-1.00586 -13.7773 -1.91406 -30.2129 6.50391 -42.1016c14.9443 -21.1123 54.5664 -11.8809 75.7188 -9.5293c40.6064 4.50977 79.1494 14.8379 118.688 24.4805c14.9951 3.65625 32.9033 4.64746 45.9658 -5.23242
c9.99707 -7.56152 9.57812 -21.2109 -2.78418 -26.6689c-43.2207 -19.0713 -90.6777 -29.4688 -137.388 -35.7764c-43.0273 -5.81152 -89.5186 -10.7402 -131.62 2.84766c-35.4805 11.4512 -60.25 38.7979 -69.1787 74.7812
c-9.62891 38.8018 1.0166 77.8223 14.9795 114.342c18.1377 47.4424 43.1299 91.9463 70.2031 135.035c-8.67285 2.99316 -17.3896 5.77148 -26.1865 8.16309c-8.25 2.24219 -13.7402 9.5957 -7.77539 16.9053c6.43848 7.89355 21.0693 6.7666 29.6553 4.43359
c6.52246 -1.77148 13.001 -3.73633 19.458 -5.80664c7.90039 12.166 15.8994 24.2412 23.8838 36.2578c42.1123 63.3525 84.3672 128.028 112.778 198.92c6.72266 16.7744 14.627 36.4873 12.4648 54.9346c-2.0166 17.1895 -15.207 23.9707 -30.6211 28.3857
c-34.8496 9.98535 -72.0615 -8.54199 -104.852 -18.5713c-9.63574 -2.94922 -23.8066 -3.28125 -32.0752 3.64941c-7.24023 6.07031 -6.2666 13.7959 1.94336 18.6084c37.4092 21.9297 81.4648 32.167 124.518 33.6729c37.6279 1.31641 91.3369 -9.01953 109.603 -46.7754
c15.1592 -31.3389 4.22168 -77.1328 -6.20117 -108.293z" />
    <glyph glyph-name="bracketleft" unicode="[" 
d="M354.669 -155.805c9.62109 -4.28418 20.2734 -16.4736 9.07324 -25.9053c-72.2666 -60.8662 -188.942 -87.8672 -266.703 -19.666c-33.3037 29.2139 -40.5547 72.876 -44.0879 114.78c-3.87891 46.0391 -3.32129 92.2969 -1.80078 138.427
c3.07715 93.3857 8.89258 186.655 17.9561 279.647c9.22363 94.6436 21.3457 188.872 36.9639 282.678c3.9707 23.8359 7.9082 47.6826 12.0537 71.4893c3.41992 19.6504 5.33398 40.5625 11.0723 59.71c13.3066 44.416 70.3086 32.042 104.36 27.1133
c21.3789 -3.0957 12.2832 -20.9199 -4.91406 -20.6973c-7.89355 0.102539 -29.25 1.24707 -36.5967 -2.70508c-0.254883 1.9248 -0.59375 1.5459 -1.0127 -1.1377c-0.948242 -2.30762 -1.29102 -4.72852 -1.02441 -7.2627
c-0.357422 -3.89355 -0.189453 -8.33398 -0.320312 -12.1367c-0.729492 -21.4482 -1.59375 -42.8926 -2.53027 -64.3301c-1.87402 -42.8965 -3.11035 -85.8613 -5.82324 -128.714c-9.96387 -157.522 -21.9258 -315.209 -26.4463 -473.005
c-1.11523 -39.0566 -1.74219 -78.168 0.251953 -117.207c1.70215 -33.2822 1.20996 -74.6943 20.0107 -103.784c6.46387 -10.0078 16.1211 -18.0537 26.8145 -23.3037c6.83984 -3.35742 17.6787 -5.28613 21.1934 -5.40625c30.2891 -1.02441 59.7686 15.2578 85.249 29.8447
c13.416 7.68164 32.3232 7.77246 46.2607 1.57129z" />
    <glyph glyph-name="backslash" unicode="\" horiz-adv-x="357" 
d="M305.963 -195.54c10.624 -41.8027 -82.8945 -48.2852 -94.0947 -14.792c-46.166 138.065 -68.4854 285.427 -90.4697 428.949c-10.9551 71.5225 -21.2139 143.147 -33.0332 214.535c-11.9473 72.168 -25.8633 143.945 -38.1826 216.022
c-3.97754 23.2705 58.0732 25.2246 64.8984 5.00879c46.4033 -137.427 69.3857 -283.301 96.915 -425.34c13.6201 -70.2793 26.4062 -140.689 41.6201 -210.651c15.6006 -71.7373 34.2744 -142.607 52.3467 -213.732z" />
    <glyph glyph-name="bracketright" unicode="]" horiz-adv-x="354" 
d="M294.075 371.843c9.13672 -92.9121 11.9404 -186.825 9.0752 -280.131c-2.70898 -88.0273 -5.73535 -182.172 -35.667 -265.991c-12.9277 -36.2061 -36.8516 -69.5645 -71.125 -88.0918c-39.5273 -21.3643 -95.1875 -27.8535 -134.602 -2.89062
c-13.7266 8.69141 -16.1943 21.5898 -3.33203 31.8887c14.835 11.8818 37.6943 11.0977 54.9678 6.25586c0.692383 -0.193359 1.24609 -0.332031 1.79688 -0.466797c1.17773 0.0947266 3.36133 0.237305 4.11621 0.426758
c0.109375 0.185547 8.22168 4.29785 10.1025 5.62109c11.7646 8.26172 20.0332 20.4932 26.4756 33.1436c17 33.3877 24.9883 71.7051 31.1201 108.367c12.4502 74.4102 14.7363 150.344 16.4824 225.629c1.7793 76.6816 0.838867 153.188 -2.3252 229.825
c-3.13867 76.0908 -7.46973 153.305 -17.7656 228.798c-4.68457 34.3135 -10.8135 69.6846 -26.4102 100.922c-6.61328 13.252 -30.7119 53.6182 -50.7783 44.3291c-13.3184 -6.16113 -31.9268 -8.34082 -45.0371 0.000976562
c-10.4199 6.63184 -12.6113 19.5557 -0.000976562 25.6699c40.4717 19.6211 90.2842 14.0791 124.938 -15.1377c33.6172 -28.3496 49.1406 -76.2363 61.5361 -116.879c26.7344 -87.6406 37.4971 -180.411 46.4326 -271.289zM115.743 -227.723
c4.58594 -1.0752 3.62402 -0.0224609 0.962891 -0.0078125c-0.37207 0 -0.689453 0.00390625 -0.962891 0.0078125z" />
    <glyph glyph-name="asciicircum" unicode="^" horiz-adv-x="283" 
d="M231.14 445.487c4.36426 -36.0088 1.24609 -72.3916 -1.79102 -108.368c-2.63574 -31.2148 -80.5674 -29.4727 -78.041 0c2.12891 24.8164 4.29492 49.71 3.99219 74.6396c-0.0615234 4.97656 0.167969 11.9512 0.0947266 19.5049
c-1.24707 -1.96094 -2.47168 -3.93652 -3.66797 -5.93457c-11.1162 -18.5713 -19.5635 -38.3389 -25.9541 -58.9922c-8.35938 -27.0146 -84.8984 -20.7842 -74.8691 11.7686c17.0693 55.416 59.2109 139.098 128.604 130.741
c37.832 -4.55762 47.5703 -29.8516 51.6318 -63.3594zM184.075 466.773c1.49512 0.893555 1.5498 1.27246 0 0z" />
    <glyph glyph-name="underscore" unicode="_" horiz-adv-x="400" 
d="M325.065 -82.3027c10.3652 -1.05762 27.3906 -8.58301 24.6641 -21.5332c-2.85059 -13.5439 -22.5488 -16.7559 -33.8213 -17.0186c-38.707 -0.896484 -77.4033 0.613281 -116.125 0.186523c-38.4736 -0.426758 -77.6543 -4.64844 -116.044 -2.87988
c-10.9121 0.50293 -30.5811 3.30664 -33.4287 16.8213c-2.81055 13.3584 14.1387 19.4434 24.3828 21.2881c40.5186 7.29492 83.9941 6.34375 125.093 6.92383c41.8574 0.59082 83.6123 0.466797 125.279 -3.78809z" />
    <glyph glyph-name="grave" unicode="`" horiz-adv-x="181" 
d="M130.078 412.398c9.98535 -23.6387 -50.3838 -30.2051 -57.9492 -9.10352c-9.75977 27.2051 -48.252 113.132 7.07617 112.421c8.0166 -0.102539 20.9482 -5.97949 17.6748 -13.1689c9.17969 -30.7305 20.7188 -60.6035 33.1982 -90.1484z" />
    <glyph glyph-name="a" unicode="a" horiz-adv-x="390" 
d="M383.266 177.787c3.48926 12.5928 39.0469 9.93945 34.8799 -5.47852c-13.8613 -51.2891 -27.5879 -108.557 -58.9854 -152.444c-28.7832 -40.2314 -86.3789 -40.7305 -119.884 -5.25391c-17.8604 18.9141 -25.5488 46.5166 -31.7939 71.1689
c-6.10254 24.084 -9.80664 48.6816 -11.6592 73.4258c-5.27539 -20.7988 -10.8174 -41.5322 -16.9277 -62.1016c-9.1582 -30.8359 -17.6094 -66.502 -44.8613 -86.6885c-25.6221 -18.9766 -56.9102 -22.1738 -86.9727 -12.3926
c-73.5645 23.9385 -74.6943 117.813 -64.4463 181.545c10.5908 65.8604 43.2021 133.584 102.989 168.197c31.5537 18.2686 78.6572 22.9502 116.143 9.97461c22.4941 16.6572 78.4785 10.9512 80.75 -17.0996c7.2373 -89.4346 -4.11523 -178.916 11.332 -268.029
c2.89062 -16.6904 6.83203 -38.7432 18.6191 -51.6748c1.76074 -1.93555 3.55859 -3.02246 4.32031 -3.58789c0.765625 1.96191 7.1709 9.07812 8.15137 10.4414c5.95703 8.27637 10.6494 17.752 15.1807 26.8447c19.4717 39.0713 31.5498 81.2383 43.165 123.153z
M150.481 129.894c15.75 54.0596 32.1895 109.473 42.2773 165.384c-0.0107422 2.66504 -0.0214844 5.33398 -0.0322266 7.99902c-12.5449 12.6035 -27.8975 23.6611 -42.4111 13.6172c-22.3008 -15.4326 -37.9121 -40.709 -50.1943 -64.2354
c-28.5137 -54.6211 -39.7969 -130.209 -23.6895 -190.167c3.31738 -12.3486 8.44727 -25.6924 16.9824 -35.499c8.10059 -9.30371 11.8193 -2.93066 20.1357 7.36133c20.5439 25.418 28.0215 64.9561 36.9316 95.54z" />
    <glyph glyph-name="a" unicode="&#xe5;" horiz-adv-x="390" 
d="M383.266 177.787c3.48926 12.5928 39.0469 9.93945 34.8799 -5.47852c-13.8613 -51.2891 -27.5879 -108.557 -58.9854 -152.444c-28.7832 -40.2314 -86.3789 -40.7305 -119.884 -5.25391c-17.8604 18.9141 -25.5488 46.5166 -31.7939 71.1689
c-6.10254 24.084 -9.80664 48.6816 -11.6592 73.4258c-5.27539 -20.7988 -10.8174 -41.5322 -16.9277 -62.1016c-9.1582 -30.8359 -17.6094 -66.502 -44.8613 -86.6885c-25.6221 -18.9766 -56.9102 -22.1738 -86.9727 -12.3926
c-73.5645 23.9385 -74.6943 117.813 -64.4463 181.545c10.5908 65.8604 43.2021 133.584 102.989 168.197c31.5537 18.2686 78.6572 22.9502 116.143 9.97461c22.4941 16.6572 78.4785 10.9512 80.75 -17.0996c7.2373 -89.4346 -4.11523 -178.916 11.332 -268.029
c2.89062 -16.6904 6.83203 -38.7432 18.6191 -51.6748c1.76074 -1.93555 3.55859 -3.02246 4.32031 -3.58789c0.765625 1.96191 7.1709 9.07812 8.15137 10.4414c5.95703 8.27637 10.6494 17.752 15.1807 26.8447c19.4717 39.0713 31.5498 81.2383 43.165 123.153z
M150.481 129.894c15.75 54.0596 32.1895 109.473 42.2773 165.384c-0.0107422 2.66504 -0.0214844 5.33398 -0.0322266 7.99902c-12.5449 12.6035 -27.8975 23.6611 -42.4111 13.6172c-22.3008 -15.4326 -37.9121 -40.709 -50.1943 -64.2354
c-28.5137 -54.6211 -39.7969 -130.209 -23.6895 -190.167c3.31738 -12.3486 8.44727 -25.6924 16.9824 -35.499c8.10059 -9.30371 11.8193 -2.93066 20.1357 7.36133c20.5439 25.418 28.0215 64.9561 36.9316 95.54z" />
    <glyph glyph-name="a" unicode="&#xe4;" horiz-adv-x="390" 
d="M383.266 177.787c3.48926 12.5928 39.0469 9.93945 34.8799 -5.47852c-13.8613 -51.2891 -27.5879 -108.557 -58.9854 -152.444c-28.7832 -40.2314 -86.3789 -40.7305 -119.884 -5.25391c-17.8604 18.9141 -25.5488 46.5166 -31.7939 71.1689
c-6.10254 24.084 -9.80664 48.6816 -11.6592 73.4258c-5.27539 -20.7988 -10.8174 -41.5322 -16.9277 -62.1016c-9.1582 -30.8359 -17.6094 -66.502 -44.8613 -86.6885c-25.6221 -18.9766 -56.9102 -22.1738 -86.9727 -12.3926
c-73.5645 23.9385 -74.6943 117.813 -64.4463 181.545c10.5908 65.8604 43.2021 133.584 102.989 168.197c31.5537 18.2686 78.6572 22.9502 116.143 9.97461c22.4941 16.6572 78.4785 10.9512 80.75 -17.0996c7.2373 -89.4346 -4.11523 -178.916 11.332 -268.029
c2.89062 -16.6904 6.83203 -38.7432 18.6191 -51.6748c1.76074 -1.93555 3.55859 -3.02246 4.32031 -3.58789c0.765625 1.96191 7.1709 9.07812 8.15137 10.4414c5.95703 8.27637 10.6494 17.752 15.1807 26.8447c19.4717 39.0713 31.5498 81.2383 43.165 123.153z
M150.481 129.894c15.75 54.0596 32.1895 109.473 42.2773 165.384c-0.0107422 2.66504 -0.0214844 5.33398 -0.0322266 7.99902c-12.5449 12.6035 -27.8975 23.6611 -42.4111 13.6172c-22.3008 -15.4326 -37.9121 -40.709 -50.1943 -64.2354
c-28.5137 -54.6211 -39.7969 -130.209 -23.6895 -190.167c3.31738 -12.3486 8.44727 -25.6924 16.9824 -35.499c8.10059 -9.30371 11.8193 -2.93066 20.1357 7.36133c20.5439 25.418 28.0215 64.9561 36.9316 95.54z" />
    <glyph glyph-name="a" unicode="&#xe3;" horiz-adv-x="390" 
d="M383.266 177.787c3.48926 12.5928 39.0469 9.93945 34.8799 -5.47852c-13.8613 -51.2891 -27.5879 -108.557 -58.9854 -152.444c-28.7832 -40.2314 -86.3789 -40.7305 -119.884 -5.25391c-17.8604 18.9141 -25.5488 46.5166 -31.7939 71.1689
c-6.10254 24.084 -9.80664 48.6816 -11.6592 73.4258c-5.27539 -20.7988 -10.8174 -41.5322 -16.9277 -62.1016c-9.1582 -30.8359 -17.6094 -66.502 -44.8613 -86.6885c-25.6221 -18.9766 -56.9102 -22.1738 -86.9727 -12.3926
c-73.5645 23.9385 -74.6943 117.813 -64.4463 181.545c10.5908 65.8604 43.2021 133.584 102.989 168.197c31.5537 18.2686 78.6572 22.9502 116.143 9.97461c22.4941 16.6572 78.4785 10.9512 80.75 -17.0996c7.2373 -89.4346 -4.11523 -178.916 11.332 -268.029
c2.89062 -16.6904 6.83203 -38.7432 18.6191 -51.6748c1.76074 -1.93555 3.55859 -3.02246 4.32031 -3.58789c0.765625 1.96191 7.1709 9.07812 8.15137 10.4414c5.95703 8.27637 10.6494 17.752 15.1807 26.8447c19.4717 39.0713 31.5498 81.2383 43.165 123.153z
M150.481 129.894c15.75 54.0596 32.1895 109.473 42.2773 165.384c-0.0107422 2.66504 -0.0214844 5.33398 -0.0322266 7.99902c-12.5449 12.6035 -27.8975 23.6611 -42.4111 13.6172c-22.3008 -15.4326 -37.9121 -40.709 -50.1943 -64.2354
c-28.5137 -54.6211 -39.7969 -130.209 -23.6895 -190.167c3.31738 -12.3486 8.44727 -25.6924 16.9824 -35.499c8.10059 -9.30371 11.8193 -2.93066 20.1357 7.36133c20.5439 25.418 28.0215 64.9561 36.9316 95.54z" />
    <glyph glyph-name="a" unicode="&#xe2;" horiz-adv-x="390" 
d="M383.266 177.787c3.48926 12.5928 39.0469 9.93945 34.8799 -5.47852c-13.8613 -51.2891 -27.5879 -108.557 -58.9854 -152.444c-28.7832 -40.2314 -86.3789 -40.7305 -119.884 -5.25391c-17.8604 18.9141 -25.5488 46.5166 -31.7939 71.1689
c-6.10254 24.084 -9.80664 48.6816 -11.6592 73.4258c-5.27539 -20.7988 -10.8174 -41.5322 -16.9277 -62.1016c-9.1582 -30.8359 -17.6094 -66.502 -44.8613 -86.6885c-25.6221 -18.9766 -56.9102 -22.1738 -86.9727 -12.3926
c-73.5645 23.9385 -74.6943 117.813 -64.4463 181.545c10.5908 65.8604 43.2021 133.584 102.989 168.197c31.5537 18.2686 78.6572 22.9502 116.143 9.97461c22.4941 16.6572 78.4785 10.9512 80.75 -17.0996c7.2373 -89.4346 -4.11523 -178.916 11.332 -268.029
c2.89062 -16.6904 6.83203 -38.7432 18.6191 -51.6748c1.76074 -1.93555 3.55859 -3.02246 4.32031 -3.58789c0.765625 1.96191 7.1709 9.07812 8.15137 10.4414c5.95703 8.27637 10.6494 17.752 15.1807 26.8447c19.4717 39.0713 31.5498 81.2383 43.165 123.153z
M150.481 129.894c15.75 54.0596 32.1895 109.473 42.2773 165.384c-0.0107422 2.66504 -0.0214844 5.33398 -0.0322266 7.99902c-12.5449 12.6035 -27.8975 23.6611 -42.4111 13.6172c-22.3008 -15.4326 -37.9121 -40.709 -50.1943 -64.2354
c-28.5137 -54.6211 -39.7969 -130.209 -23.6895 -190.167c3.31738 -12.3486 8.44727 -25.6924 16.9824 -35.499c8.10059 -9.30371 11.8193 -2.93066 20.1357 7.36133c20.5439 25.418 28.0215 64.9561 36.9316 95.54z" />
    <glyph glyph-name="a" unicode="&#xe1;" horiz-adv-x="390" 
d="M383.266 177.787c3.48926 12.5928 39.0469 9.93945 34.8799 -5.47852c-13.8613 -51.2891 -27.5879 -108.557 -58.9854 -152.444c-28.7832 -40.2314 -86.3789 -40.7305 -119.884 -5.25391c-17.8604 18.9141 -25.5488 46.5166 -31.7939 71.1689
c-6.10254 24.084 -9.80664 48.6816 -11.6592 73.4258c-5.27539 -20.7988 -10.8174 -41.5322 -16.9277 -62.1016c-9.1582 -30.8359 -17.6094 -66.502 -44.8613 -86.6885c-25.6221 -18.9766 -56.9102 -22.1738 -86.9727 -12.3926
c-73.5645 23.9385 -74.6943 117.813 -64.4463 181.545c10.5908 65.8604 43.2021 133.584 102.989 168.197c31.5537 18.2686 78.6572 22.9502 116.143 9.97461c22.4941 16.6572 78.4785 10.9512 80.75 -17.0996c7.2373 -89.4346 -4.11523 -178.916 11.332 -268.029
c2.89062 -16.6904 6.83203 -38.7432 18.6191 -51.6748c1.76074 -1.93555 3.55859 -3.02246 4.32031 -3.58789c0.765625 1.96191 7.1709 9.07812 8.15137 10.4414c5.95703 8.27637 10.6494 17.752 15.1807 26.8447c19.4717 39.0713 31.5498 81.2383 43.165 123.153z
M150.481 129.894c15.75 54.0596 32.1895 109.473 42.2773 165.384c-0.0107422 2.66504 -0.0214844 5.33398 -0.0322266 7.99902c-12.5449 12.6035 -27.8975 23.6611 -42.4111 13.6172c-22.3008 -15.4326 -37.9121 -40.709 -50.1943 -64.2354
c-28.5137 -54.6211 -39.7969 -130.209 -23.6895 -190.167c3.31738 -12.3486 8.44727 -25.6924 16.9824 -35.499c8.10059 -9.30371 11.8193 -2.93066 20.1357 7.36133c20.5439 25.418 28.0215 64.9561 36.9316 95.54z" />
    <glyph glyph-name="b" unicode="b" horiz-adv-x="407" 
d="M403.721 184.743c8.94336 10.6709 46.0742 3.79297 33.6455 -11.2207c-29.5742 -35.7178 -67.5264 -63.1738 -109.693 -80.998c-3.97754 -24.0693 -10.5439 -47.7227 -19.5166 -70.29c-20.1465 -50.6758 -63.7021 -85.5947 -118.407 -91.6543
c-47.0381 -5.20996 -110.241 12.1289 -114.974 67.8037c-0.00683594 0.0732422 -0.00292969 0.146484 -0.00976562 0.219727c-13.1689 -16.0381 -53.5459 -13.2158 -62.4453 4.06543c-18.623 36.166 -20.3291 84.0127 -22.4688 123.923
c-2.21289 41.2334 -3.5293 82.5947 -3.78418 123.887c-0.4375 70.6807 0.594727 149.666 25.3789 216.824c11.7354 31.7979 36.3008 59.0498 68.7773 70.0166c29.9824 10.1279 63.4102 6.85059 85.9844 -16.4785c45.1455 -46.6582 11.8232 -125.312 -10.376 -174.963
c-22.8594 -51.1279 -50.9648 -99.5 -83.1865 -145.159c0.0761719 -4.73926 0.145508 -9.47852 0.240234 -14.2148c0.422852 -21.4697 1.19238 -42.9141 2.02344 -64.3623c20.3691 64.96 45.3682 129.02 90.2549 178.397c28.5029 31.3535 76.4121 40.9092 108.691 9.04883
c16.2783 -16.0664 28.8379 -39.3887 38.251 -60.0566c11.1455 -24.4629 16.8438 -51.248 19.0166 -77.9277c1.29102 -15.8193 1.35254 -31.7695 0.254883 -47.6611c27.4746 15.6328 51.8574 36.3594 72.3428 60.8008zM78.6924 370.916
c-4.06543 -34.8643 -5.73438 -69.9531 -6.23047 -105.065c16.7305 27.7695 31.9043 56.4795 45.3643 86.0068c12.0898 26.5225 23.3154 53.8652 27.9346 82.8086c2.26074 14.167 3.67578 29.4248 0.649414 43.585c-1.82324 8.53125 -8.1084 25.7031 -17.9268 29.1377
c0.00390625 -0.145508 -1.38184 -0.141602 -2.69043 -0.557617c-1.9502 -0.620117 -3.74414 -2.66895 -5.21387 -3.91992c-3.99219 -3.39746 -6.74805 -7.70996 -9.46094 -12.1396c-7.0293 -11.4844 -11.6816 -23.8906 -15.9619 -36.6182
c-9.03027 -26.8623 -13.1904 -55.1611 -16.4639 -83.2373zM171.813 -18.4385c25.3418 23.7373 41.8467 54.4463 52.9404 87.7578c-31.6777 -1.0498 -80.7422 1.44043 -84.5049 -38.667c-1.64062 -17.46 3.83496 -38.332 18.71 -48.9307
c7.36035 -5.24219 7.52441 -5.15137 12.8545 -0.160156zM252.394 260.216c0.536133 17.2959 -3.61133 42.6445 -24.6182 46.8408c-18.4619 3.69727 -37.0703 -25.2607 -46.0977 -38.127c-10.292 -14.6631 -19.3477 -30.1943 -27.4854 -46.1406
c-29.1514 -57.125 -45.751 -119.176 -65.8867 -179.823c15.5166 21.4297 41.6855 37.0732 65.3652 42.9141c24.959 6.15723 50.2861 4.85156 75.7012 6.67773c0.744141 0.0546875 1.48828 0.138672 2.23242 0.200195c8.97266 35.0869 13.1074 71.8438 16.0098 105.607
c1.76855 20.5693 4.1416 41.1934 4.7793 61.8506z" />
    <glyph glyph-name="c" unicode="c" horiz-adv-x="231" 
d="M224.996 185.709c3.04102 14.2188 38.374 12.626 35.7744 0.00390625c-7.89648 -38.3896 -24.0908 -74.7705 -44.1133 -108.359c-17.6523 -29.6074 -40.7881 -56.4404 -72.6553 -71.0195c-58.7588 -26.8838 -134.81 -11.874 -155.492 55.4014
c-20.1797 65.6348 -8.62988 142.312 12.2314 206.365c20.1396 61.832 70.1377 148.754 149.363 123.521c59.9141 -19.0859 34.3096 -113.854 18.6035 -156.039c-4.64062 -12.4717 -40.1904 -9.29297 -34.8789 5.47949c10.9697 30.5117 17.4775 64.1582 13.5654 96.6963
c-0.375977 4.1748 -1.13477 8.2832 -2.2832 12.3223c-0.561523 1.73145 -1.30859 3.36133 -2.19434 4.91113c-7.76562 -9.31445 -13.6172 -20.1055 -19.2607 -30.8135c-29.6367 -56.2393 -47.8105 -116.5 -52.0283 -180.049
c-1.97949 -29.8115 -3.29883 -60.418 4.6084 -89.5918c2.73828 -10.1094 5.89551 -22.9277 13.1436 -30.9814c10.0947 -11.2178 23.5 -4.7793 35.29 1.29102c27.5215 14.1709 46.4717 40.0117 61.4414 66.3086c16.8213 29.5488 31.7432 61.165 38.8848 94.5527z" />
    <glyph glyph-name="d" unicode="d" horiz-adv-x="442" 
d="M437.182 189.15c3.79492 12.4395 38.9805 9.64355 34.4893 -5.4209c-14.3721 -48.3027 -36.2178 -93.8672 -65.6572 -134.823c-25.5166 -35.502 -56.7314 -64.1211 -103.452 -58.999c-77.7637 8.52344 -103.371 84.9639 -111.151 156.242
c-4.26953 -16.4131 -8.68457 -32.79 -13.5156 -49.0469c-9.1582 -30.8359 -17.6094 -66.502 -44.8613 -86.6885c-25.6221 -18.9766 -56.9102 -22.1738 -86.9727 -12.3926c-73.5645 23.9385 -74.6943 117.813 -64.4463 181.545
c10.5869 65.8643 43.1982 133.584 102.985 168.2c31.2803 18.1084 77.8369 22.8662 115.162 10.3066c7.00684 43.1914 17.4922 85.6465 32.3672 125.418c15.7676 42.1592 42.7969 85.7842 91.293 92.4453c41.168 5.6543 74.0781 -18.251 73.3779 -61.4424
c-1.02832 -63.6768 -46.9609 -124.299 -98.8799 -161.38c-9.44238 -56.0752 -14.0576 -113.376 -14.2217 -169.947c-0.102539 -35.2549 2.71973 -70.8047 7.46289 -105.709c2.24219 -16.4863 5.80371 -32.2031 12.2822 -47.5879
c2.2207 -5.26465 4.6084 -12.2314 9.32617 -15.7676c6.71875 -5.03809 13.8867 -1.55273 21.1748 2.69141c27.7988 16.1797 47.2852 51.0186 62.8125 78.1025c17.084 29.8008 30.4131 61.417 40.4248 94.2539zM348.21 544.999
c-0.510742 0.612305 -0.854492 1.0498 -0.850586 1.11914c-0.0908203 -1.11523 0.255859 -1.36328 0.850586 -1.11914zM335.073 499.208c-9.34766 -32.8301 -20.3682 -65.125 -27.9072 -98.4658c5.60742 6.11719 10.8975 12.5449 15.7979 19.3076
c19.8477 27.3867 40.9893 66.0752 36.5742 100.95c-0.820312 6.47461 -2.60352 12.5996 -6.1875 18.0391c-0.0693359 0.105469 -0.616211 0.732422 -1.32715 1.54883c-0.313477 -0.50293 -0.630859 -1.02832 -0.952148 -1.61914
c-7.0293 -12.8955 -11.9727 -25.6299 -15.998 -39.7607zM192.179 297.563c0.142578 1.59668 0.306641 3.19531 0.459961 4.7998c-12.709 12.9717 -28.4551 24.8164 -43.3184 14.5312c-22.3008 -15.4326 -37.9121 -40.709 -50.1943 -64.2354
c-28.5137 -54.6211 -39.7969 -130.209 -23.6895 -190.167c3.31738 -12.3486 8.44727 -25.6924 16.9824 -35.499c8.10059 -9.30371 11.8193 -2.93066 20.1357 7.36133c20.5439 25.418 28.0215 64.9561 36.9316 95.54c15.9648 54.7959 32.6445 110.984 42.6924 167.669z" />
    <glyph glyph-name="e" unicode="e" horiz-adv-x="253" 
d="M249.839 186.468c5.03809 11.6084 38.168 9.52148 33.7344 -5.30176c-11.958 -39.9248 -32.8633 -77.1045 -57.7822 -110.387c-23.9893 -32.0391 -51.8828 -62.6055 -90.1338 -76.9951c-36.1006 -13.5801 -74.0273 -11.8594 -106.001 11.0654
c-34.8574 24.9951 -46.5459 61.9854 -50.2979 103.172c-6.86133 75.2959 12.4463 164.807 55.0654 227.98c23.9014 35.4258 62.791 63.877 107.619 59.5381c33.6211 -3.25195 57.5117 -28.459 57.876 -62.6523c0.364258 -34.1904 -25.6523 -66.4883 -49.5137 -88.3809
c-20.9521 -19.2236 -43.6689 -33.2158 -70.1846 -40.3105c-9.23828 -42.207 -11.6084 -86.6201 -5.65527 -128.769c2.7998 -19.8145 6.88281 -49.1299 26.9961 -59.3672c21.4082 -10.8936 47.5342 17.1172 61.1367 31.1133c39.1445 40.2715 64.9639 88.2275 87.1406 139.294
zM148.186 354.138c-0.0761719 -0.208008 -0.0107422 -0.28418 0.138672 -0.28418c-0.0585938 0.109375 -0.149414 0.254883 -0.138672 0.28418zM92.3613 247.474c-0.700195 -2.01562 -1.35059 -4.06152 -2.01758 -6.0957c11.3643 5.43945 22.0791 12.042 31.4668 20.3613
c20.9307 18.5459 48.2852 53.2393 33.3525 82.7373c-0.466797 0.925781 -3.66016 4.96191 -5.55957 7.52148c-2.42773 -1.75684 -4.87402 -3.49609 -5.54492 -4.26172c-6.82812 -7.79492 -12.5596 -17.2627 -17.8789 -26.1514
c-13.8867 -23.2129 -24.9844 -48.5801 -33.8184 -74.1113z" />
    <glyph glyph-name="e" unicode="&#xeb;" horiz-adv-x="253" 
d="M249.839 186.468c5.03809 11.6084 38.168 9.52148 33.7344 -5.30176c-11.958 -39.9248 -32.8633 -77.1045 -57.7822 -110.387c-23.9893 -32.0391 -51.8828 -62.6055 -90.1338 -76.9951c-36.1006 -13.5801 -74.0273 -11.8594 -106.001 11.0654
c-34.8574 24.9951 -46.5459 61.9854 -50.2979 103.172c-6.86133 75.2959 12.4463 164.807 55.0654 227.98c23.9014 35.4258 62.791 63.877 107.619 59.5381c33.6211 -3.25195 57.5117 -28.459 57.876 -62.6523c0.364258 -34.1904 -25.6523 -66.4883 -49.5137 -88.3809
c-20.9521 -19.2236 -43.6689 -33.2158 -70.1846 -40.3105c-9.23828 -42.207 -11.6084 -86.6201 -5.65527 -128.769c2.7998 -19.8145 6.88281 -49.1299 26.9961 -59.3672c21.4082 -10.8936 47.5342 17.1172 61.1367 31.1133c39.1445 40.2715 64.9639 88.2275 87.1406 139.294
zM148.186 354.138c-0.0761719 -0.208008 -0.0107422 -0.28418 0.138672 -0.28418c-0.0585938 0.109375 -0.149414 0.254883 -0.138672 0.28418zM92.3613 247.474c-0.700195 -2.01562 -1.35059 -4.06152 -2.01758 -6.0957c11.3643 5.43945 22.0791 12.042 31.4668 20.3613
c20.9307 18.5459 48.2852 53.2393 33.3525 82.7373c-0.466797 0.925781 -3.66016 4.96191 -5.55957 7.52148c-2.42773 -1.75684 -4.87402 -3.49609 -5.54492 -4.26172c-6.82812 -7.79492 -12.5596 -17.2627 -17.8789 -26.1514
c-13.8867 -23.2129 -24.9844 -48.5801 -33.8184 -74.1113z" />
    <glyph glyph-name="e" unicode="&#xea;" horiz-adv-x="253" 
d="M249.839 186.468c5.03809 11.6084 38.168 9.52148 33.7344 -5.30176c-11.958 -39.9248 -32.8633 -77.1045 -57.7822 -110.387c-23.9893 -32.0391 -51.8828 -62.6055 -90.1338 -76.9951c-36.1006 -13.5801 -74.0273 -11.8594 -106.001 11.0654
c-34.8574 24.9951 -46.5459 61.9854 -50.2979 103.172c-6.86133 75.2959 12.4463 164.807 55.0654 227.98c23.9014 35.4258 62.791 63.877 107.619 59.5381c33.6211 -3.25195 57.5117 -28.459 57.876 -62.6523c0.364258 -34.1904 -25.6523 -66.4883 -49.5137 -88.3809
c-20.9521 -19.2236 -43.6689 -33.2158 -70.1846 -40.3105c-9.23828 -42.207 -11.6084 -86.6201 -5.65527 -128.769c2.7998 -19.8145 6.88281 -49.1299 26.9961 -59.3672c21.4082 -10.8936 47.5342 17.1172 61.1367 31.1133c39.1445 40.2715 64.9639 88.2275 87.1406 139.294
zM148.186 354.138c-0.0761719 -0.208008 -0.0107422 -0.28418 0.138672 -0.28418c-0.0585938 0.109375 -0.149414 0.254883 -0.138672 0.28418zM92.3613 247.474c-0.700195 -2.01562 -1.35059 -4.06152 -2.01758 -6.0957c11.3643 5.43945 22.0791 12.042 31.4668 20.3613
c20.9307 18.5459 48.2852 53.2393 33.3525 82.7373c-0.466797 0.925781 -3.66016 4.96191 -5.55957 7.52148c-2.42773 -1.75684 -4.87402 -3.49609 -5.54492 -4.26172c-6.82812 -7.79492 -12.5596 -17.2627 -17.8789 -26.1514
c-13.8867 -23.2129 -24.9844 -48.5801 -33.8184 -74.1113z" />
    <glyph glyph-name="e" unicode="&#xe9;" horiz-adv-x="253" 
d="M249.839 186.468c5.03809 11.6084 38.168 9.52148 33.7344 -5.30176c-11.958 -39.9248 -32.8633 -77.1045 -57.7822 -110.387c-23.9893 -32.0391 -51.8828 -62.6055 -90.1338 -76.9951c-36.1006 -13.5801 -74.0273 -11.8594 -106.001 11.0654
c-34.8574 24.9951 -46.5459 61.9854 -50.2979 103.172c-6.86133 75.2959 12.4463 164.807 55.0654 227.98c23.9014 35.4258 62.791 63.877 107.619 59.5381c33.6211 -3.25195 57.5117 -28.459 57.876 -62.6523c0.364258 -34.1904 -25.6523 -66.4883 -49.5137 -88.3809
c-20.9521 -19.2236 -43.6689 -33.2158 -70.1846 -40.3105c-9.23828 -42.207 -11.6084 -86.6201 -5.65527 -128.769c2.7998 -19.8145 6.88281 -49.1299 26.9961 -59.3672c21.4082 -10.8936 47.5342 17.1172 61.1367 31.1133c39.1445 40.2715 64.9639 88.2275 87.1406 139.294
zM148.186 354.138c-0.0761719 -0.208008 -0.0107422 -0.28418 0.138672 -0.28418c-0.0585938 0.109375 -0.149414 0.254883 -0.138672 0.28418zM92.3613 247.474c-0.700195 -2.01562 -1.35059 -4.06152 -2.01758 -6.0957c11.3643 5.43945 22.0791 12.042 31.4668 20.3613
c20.9307 18.5459 48.2852 53.2393 33.3525 82.7373c-0.466797 0.925781 -3.66016 4.96191 -5.55957 7.52148c-2.42773 -1.75684 -4.87402 -3.49609 -5.54492 -4.26172c-6.82812 -7.79492 -12.5596 -17.2627 -17.8789 -26.1514
c-13.8867 -23.2129 -24.9844 -48.5801 -33.8184 -74.1113z" />
    <glyph glyph-name="f" unicode="f" horiz-adv-x="275" 
d="M306.744 187.072c-47.7305 -70.1191 -105.798 -132.152 -172.836 -183.798c33.2529 -6.30371 63.5488 -24.4375 73.7207 -59.4736c14.124 -48.6523 -25.9502 -82.6162 -70.042 -90.6475c-49.7686 -9.06348 -98.2607 17.4883 -121.583 61.4521
c-23.5439 44.3799 -31.127 102.935 -33.2998 152.353c-2.39551 54.5117 1.58594 109.606 7.80957 163.742c6.03027 52.4658 14.9258 108.053 37.165 156.41c21.6299 47.0381 61.6387 95.3662 117.313 97.6152c23.6133 0.955078 49.542 -5.06055 61.8682 -27.0957
c7.50684 -13.416 11.6152 -31.6152 12.8516 -46.8291c7.83496 -96.5146 -57.3408 -191.938 -133.646 -245.058c-1.38184 -0.962891 -2.98926 -1.73535 -4.73242 -2.37012c-1.39648 -21.9551 -2.1582 -43.8662 -2.40625 -65.5479
c-0.349609 -30.668 0.375977 -61.6465 3.66113 -92.2422c73.3711 51.3506 137.956 114.091 190.43 186.791c7.47363 10.3535 41.5684 6.21875 33.7266 -5.30176zM109.508 335.429c-10.7041 -36.6621 -17.9482 -74.7217 -22.7207 -113.155
c18.7061 15.1514 36.3662 31.4629 51.6455 50.5264c25.8232 32.2217 40.3301 78.5703 38.6494 119.724c-0.616211 15.0752 -3.2666 34.9043 -14.2441 46.2832c0.0107422 -0.0107422 -1.36328 0.992188 -2.90918 2.15527
c-3.4707 -3.05176 -7.17871 -6.25293 -7.92578 -7.21875c-21.2295 -27.5068 -32.8926 -65.4189 -42.4951 -98.3145zM169.568 -74.5205c-1.44336 37.5732 -35.9326 60.8154 -71.3691 55.3252c-3.29199 -0.506836 -7.94434 -0.102539 -12.4941 1.03125
c0.160156 -1.03223 0.288086 -2.06738 0.456055 -3.09961c4.82324 -29.5703 10.4668 -65.4814 31.9326 -87.9648c11.7246 -12.2822 20.6426 -14.9805 33.9609 -4.25488c11.6846 9.41016 18.0898 24.041 17.5137 38.9629z" />
    <glyph glyph-name="g" unicode="g" horiz-adv-x="352" 
d="M345.488 187.823c7.92969 11.834 45.1143 6.86621 36.8057 -5.78125c-23.2051 -35.3203 -52.6553 -64.5957 -84.2061 -91.8291c-0.0292969 -8.22168 -0.117188 -16.4434 -0.354492 -24.665c-1.18457 -40.9932 -6.43066 -80.9912 -17.3096 -120.548
c-9.36914 -34.0664 -33.9492 -64.7891 -60.5264 -87.6406c-41.748 -35.8994 -130.773 -30.3574 -134.623 37.3262c-3.74805 65.8857 68.8643 118.563 114.312 154.904c1.9541 1.56055 3.91895 3.11719 5.88086 4.67383c-0.408203 26.0674 -1.22852 52.1455 -2.75586 78.2637
c-0.849609 14.5469 -1.77246 29.082 -2.68066 43.6182c-6.54785 -26.4824 -13.3691 -52.8994 -21.1348 -79.0469c-9.1582 -30.8359 -17.6094 -66.502 -44.8613 -86.6885c-25.6221 -18.9766 -56.9102 -22.1738 -86.9727 -12.3926
c-73.5645 23.9385 -74.6943 117.813 -64.4463 181.545c10.5869 65.8643 43.1982 133.584 102.985 168.2c32.0498 18.5566 80.1299 23.0703 117.893 9.32227c23.4932 20.7188 89.8242 14.7178 88.6426 -16.2168c-2.66895 -69.8965 3.48535 -139.677 5.41797 -209.504
c17.7002 17.2119 34.04 35.7217 47.9336 56.459zM150.484 129.893c16.3809 56.2285 33.543 113.925 43.4922 172.118c-12.7676 13.1064 -28.6631 25.2617 -43.6582 14.8818c-22.3008 -15.4326 -37.9121 -40.709 -50.1943 -64.2354
c-28.5137 -54.6211 -39.7969 -130.209 -23.6895 -190.167c3.31738 -12.3486 8.44727 -25.6924 16.9824 -35.499c8.10059 -9.30371 11.8193 -2.93066 20.1357 7.36133c20.5439 25.418 28.0215 64.9561 36.9316 95.54zM205.3 -71.3477
c0.269531 28.4951 0.535156 56.9473 0.484375 85.3955c-7.14551 -6.20117 -14.2217 -12.4795 -21.1084 -18.9766c-21.6191 -20.3984 -44.0664 -42.6816 -54.4824 -71.1875c-9.31445 -25.4951 -3.47754 -72.8643 34.3291 -66.2871
c35.7354 6.21582 40.5 41.6523 40.7773 71.0557z" />
    <glyph glyph-name="h" unicode="h" horiz-adv-x="364" 
d="M359.251 157.134c4.7832 12.3223 40.0146 8.99707 34.502 -5.42188c-22.1768 -57.9893 -46.7236 -141.583 -108.724 -169.382c-31.2402 -14.0029 -66.7832 -10.3828 -93.3867 11.9072c-25.3857 21.2656 -29.6006 59.918 -27.5771 90.9473
c4.58594 70.3047 21.6191 140.249 33.6064 209.519c1.66211 9.5957 4.04688 18.9102 6.33301 28.3564c2.27832 9.43555 0.871094 7.33203 -4.65625 0.765625c-10.4268 -12.3809 -18.0977 -27.0664 -25.4004 -41.4453c-14.0547 -27.6826 -25.3857 -56.6807 -35.4443 -86.0254
c-21.0029 -61.2705 -36.5449 -124.27 -58.416 -185.26c-0.277344 -0.776367 -0.674805 -1.4873 -1.17383 -2.14355c-0.0478516 -0.382812 -0.0771484 -0.765625 -0.12793 -1.14844c-3.36914 -25.7861 -56.1377 -25.1846 -66.4658 -5.12598
c-18.6221 36.166 -20.3281 84.0127 -22.4678 123.923c-2.21289 41.2334 -3.5293 82.5947 -3.78418 123.887c-0.4375 70.6807 0.594727 149.666 25.3789 216.824c11.7354 31.7988 36.3008 59.0508 68.7773 70.0176c29.9824 10.1279 63.4102 6.85059 85.9844 -16.4785
c45.1455 -46.6582 11.8232 -125.312 -10.376 -174.963c-22.8594 -51.1279 -50.9648 -99.5 -83.1865 -145.159c0.0761719 -4.73926 0.145508 -9.47852 0.240234 -14.2148c0.496094 -25.1191 1.46191 -50.2021 2.4502 -75.2959
c11.4072 38.3574 22.7129 76.751 36.7275 114.259c10.7549 28.7725 22.9971 57.3076 38.623 83.8086c13.3184 22.5859 32.0537 48.6201 61.6387 45.1387c28.3496 -3.33594 49.3818 -32.2217 57.5156 -57.458c10.6533 -33.0527 12.9648 -68.9893 10.5186 -103.398
c-2.49023 -35.0576 -7.16406 -69.9004 -9.22363 -104.987c-0.995117 -16.916 -3.63867 -33.9346 -3.47461 -50.9023c0.102539 -10.5068 3.77344 -17.835 7.0332 -26.5889c0.368164 0.174805 0.740234 0.357422 1.11621 0.569336
c6.41992 3.61328 11.7285 8.52734 16.6396 13.9668c10.3535 11.4658 18.3701 24.8311 25.8262 38.2949c16.4785 29.7607 28.6914 61.5625 40.9736 93.2148zM78.6943 370.918c-4.06543 -34.8643 -5.73145 -69.9531 -6.23047 -105.065
c16.7305 27.7695 31.9043 56.4795 45.3643 86.0068c12.0898 26.5225 23.3154 53.8652 27.9346 82.8086c2.26074 14.167 3.67578 29.4248 0.649414 43.585c-1.82324 8.53125 -8.1084 25.7031 -17.9268 29.1377c0.00390625 -0.145508 -1.38184 -0.141602 -2.69043 -0.557617
c-1.9502 -0.620117 -3.74414 -2.66895 -5.21387 -3.91992c-3.99219 -3.39746 -6.74805 -7.70996 -9.46094 -12.1396c-7.0293 -11.4844 -11.6816 -23.8906 -15.9619 -36.6182c-9.03027 -26.8623 -13.1904 -55.1611 -16.4639 -83.2373z" />
    <glyph glyph-name="i" unicode="i" horiz-adv-x="179" 
d="M175.077 189.078c4.05762 11.9688 37.9658 9.16113 33.3428 -5.23633c-16.5586 -51.5508 -31.8418 -113.332 -67.042 -155.856c-33.0674 -39.9463 -98.7061 -40.7158 -130.945 0.583008c-16.8291 21.5576 -21.0322 47.3877 -23.4385 73.9941
c-2.7959 30.8945 -3.28125 61.6572 -2.86523 92.6611c0.416016 30.9053 1.67383 61.752 3.61328 92.5947c2.08203 33.0967 2.6875 67.0859 9.55566 99.5947c7.26953 34.3867 90.6406 37.7666 92.3975 0c2.39844 -51.624 -6.47559 -105.002 -9.90625 -156.567
c-3.19727 -48.0732 -6.60254 -97.1562 -5.69824 -145.342c0.361328 -19.2061 1.06543 -39.75 10.5771 -56.9619c5.2832 -9.55957 7.82422 -5.75293 16.3809 1.80078c8.88867 7.8457 15.4326 17.9551 21.3135 28.1377c23.2969 40.3291 37.8252 86.6699 52.7148 130.598z
M9.23438 455.575c-9.89844 15.2139 -15.458 32.6777 -19.709 50.3418c-3.14648 13.0957 -8.99414 33.4941 -2.22754 46.5791c9.91602 19.1729 40.876 13.2773 52.3096 -0.518555c0.288086 -0.349609 0.536133 -0.743164 0.816406 -1.10449
c0.273438 0.422852 0.521484 0.860352 0.801758 1.2793c10.8242 16.2598 30.3252 34.7178 51.7773 26.7812c24.0801 -8.91016 9.22754 -42.1631 1.29102 -58.0801c-11.5098 -23.085 -25.4727 -44.3291 -33.5518 -69.0879
c-6.11035 -18.7285 -52.0215 -11.043 -51.5078 3.80957z" />
    <glyph glyph-name="i" unicode="&#xef;" horiz-adv-x="179" 
d="M175.077 189.078c4.05762 11.9688 37.9658 9.16113 33.3428 -5.23633c-16.5586 -51.5508 -31.8418 -113.332 -67.042 -155.856c-33.0674 -39.9463 -98.7061 -40.7158 -130.945 0.583008c-16.8291 21.5576 -21.0322 47.3877 -23.4385 73.9941
c-2.7959 30.8945 -3.28125 61.6572 -2.86523 92.6611c0.416016 30.9053 1.67383 61.752 3.61328 92.5947c2.08203 33.0967 2.6875 67.0859 9.55566 99.5947c7.26953 34.3867 90.6406 37.7666 92.3975 0c2.39844 -51.624 -6.47559 -105.002 -9.90625 -156.567
c-3.19727 -48.0732 -6.60254 -97.1562 -5.69824 -145.342c0.361328 -19.2061 1.06543 -39.75 10.5771 -56.9619c5.2832 -9.55957 7.82422 -5.75293 16.3809 1.80078c8.88867 7.8457 15.4326 17.9551 21.3135 28.1377c23.2969 40.3291 37.8252 86.6699 52.7148 130.598z
M9.23438 455.575c-9.89844 15.2139 -15.458 32.6777 -19.709 50.3418c-3.14648 13.0957 -8.99414 33.4941 -2.22754 46.5791c9.91602 19.1729 40.876 13.2773 52.3096 -0.518555c0.288086 -0.349609 0.536133 -0.743164 0.816406 -1.10449
c0.273438 0.422852 0.521484 0.860352 0.801758 1.2793c10.8242 16.2598 30.3252 34.7178 51.7773 26.7812c24.0801 -8.91016 9.22754 -42.1631 1.29102 -58.0801c-11.5098 -23.085 -25.4727 -44.3291 -33.5518 -69.0879
c-6.11035 -18.7285 -52.0215 -11.043 -51.5078 3.80957z" />
    <glyph glyph-name="i" unicode="&#xee;" horiz-adv-x="179" 
d="M175.077 189.078c4.05762 11.9688 37.9658 9.16113 33.3428 -5.23633c-16.5586 -51.5508 -31.8418 -113.332 -67.042 -155.856c-33.0674 -39.9463 -98.7061 -40.7158 -130.945 0.583008c-16.8291 21.5576 -21.0322 47.3877 -23.4385 73.9941
c-2.7959 30.8945 -3.28125 61.6572 -2.86523 92.6611c0.416016 30.9053 1.67383 61.752 3.61328 92.5947c2.08203 33.0967 2.6875 67.0859 9.55566 99.5947c7.26953 34.3867 90.6406 37.7666 92.3975 0c2.39844 -51.624 -6.47559 -105.002 -9.90625 -156.567
c-3.19727 -48.0732 -6.60254 -97.1562 -5.69824 -145.342c0.361328 -19.2061 1.06543 -39.75 10.5771 -56.9619c5.2832 -9.55957 7.82422 -5.75293 16.3809 1.80078c8.88867 7.8457 15.4326 17.9551 21.3135 28.1377c23.2969 40.3291 37.8252 86.6699 52.7148 130.598z
M9.23438 455.575c-9.89844 15.2139 -15.458 32.6777 -19.709 50.3418c-3.14648 13.0957 -8.99414 33.4941 -2.22754 46.5791c9.91602 19.1729 40.876 13.2773 52.3096 -0.518555c0.288086 -0.349609 0.536133 -0.743164 0.816406 -1.10449
c0.273438 0.422852 0.521484 0.860352 0.801758 1.2793c10.8242 16.2598 30.3252 34.7178 51.7773 26.7812c24.0801 -8.91016 9.22754 -42.1631 1.29102 -58.0801c-11.5098 -23.085 -25.4727 -44.3291 -33.5518 -69.0879
c-6.11035 -18.7285 -52.0215 -11.043 -51.5078 3.80957z" />
    <glyph glyph-name="i" unicode="&#xed;" horiz-adv-x="179" 
d="M175.077 189.078c4.05762 11.9688 37.9658 9.16113 33.3428 -5.23633c-16.5586 -51.5508 -31.8418 -113.332 -67.042 -155.856c-33.0674 -39.9463 -98.7061 -40.7158 -130.945 0.583008c-16.8291 21.5576 -21.0322 47.3877 -23.4385 73.9941
c-2.7959 30.8945 -3.28125 61.6572 -2.86523 92.6611c0.416016 30.9053 1.67383 61.752 3.61328 92.5947c2.08203 33.0967 2.6875 67.0859 9.55566 99.5947c7.26953 34.3867 90.6406 37.7666 92.3975 0c2.39844 -51.624 -6.47559 -105.002 -9.90625 -156.567
c-3.19727 -48.0732 -6.60254 -97.1562 -5.69824 -145.342c0.361328 -19.2061 1.06543 -39.75 10.5771 -56.9619c5.2832 -9.55957 7.82422 -5.75293 16.3809 1.80078c8.88867 7.8457 15.4326 17.9551 21.3135 28.1377c23.2969 40.3291 37.8252 86.6699 52.7148 130.598z
M9.23438 455.575c-9.89844 15.2139 -15.458 32.6777 -19.709 50.3418c-3.14648 13.0957 -8.99414 33.4941 -2.22754 46.5791c9.91602 19.1729 40.876 13.2773 52.3096 -0.518555c0.288086 -0.349609 0.536133 -0.743164 0.816406 -1.10449
c0.273438 0.422852 0.521484 0.860352 0.801758 1.2793c10.8242 16.2598 30.3252 34.7178 51.7773 26.7812c24.0801 -8.91016 9.22754 -42.1631 1.29102 -58.0801c-11.5098 -23.085 -25.4727 -44.3291 -33.5518 -69.0879
c-6.11035 -18.7285 -52.0215 -11.043 -51.5078 3.80957z" />
    <glyph glyph-name="j" unicode="j" horiz-adv-x="129" 
d="M122.361 187.823c7.92578 11.834 45.1104 6.86523 36.8018 -5.78516c-23.2051 -35.3203 -52.6553 -64.5957 -84.2061 -91.8291c-0.0292969 -8.22168 -0.117188 -16.4434 -0.354492 -24.665c-1.18457 -40.9932 -6.43066 -80.9912 -17.3096 -120.548
c-9.36914 -34.0664 -33.9521 -64.7891 -60.5264 -87.6406c-41.748 -35.8994 -130.773 -30.3574 -134.623 37.3262c-3.74805 65.8857 68.8643 118.563 114.312 154.904c1.9541 1.56055 3.91895 3.11719 5.87988 4.67383c-0.408203 26.0674 -1.22852 52.1455 -2.75586 78.2637
c-4.05762 69.4551 -9.80371 138.703 -7.35352 208.345c1.34863 38.3936 98.209 37.3105 96.7832 0c-2.66895 -69.8965 3.48535 -139.677 5.41797 -209.504c17.7002 17.2119 34.04 35.7217 47.9336 56.459zM-17.8242 -71.3506
c0.266602 28.4951 0.532227 56.9473 0.481445 85.3955c-7.14551 -6.20117 -14.2217 -12.4795 -21.1084 -18.9766c-21.6162 -20.3984 -44.0635 -42.6816 -54.4795 -71.1875c-9.31445 -25.4951 -3.47754 -72.8643 34.3291 -66.2871
c35.7354 6.21582 40.5 41.6523 40.7773 71.0557zM-16.082 420.723c-9.89844 15.21 -15.458 32.6768 -19.709 50.3408c-3.14648 13.0957 -8.99414 33.4941 -2.22754 46.5791c9.91602 19.1729 40.876 13.2773 52.3096 -0.518555
c0.288086 -0.349609 0.536133 -0.743164 0.816406 -1.10449c0.273438 0.422852 0.521484 0.860352 0.801758 1.2793c10.8242 16.2598 30.3252 34.7188 51.7773 26.7822c24.0801 -8.91016 9.22754 -42.1631 1.29102 -58.0801
c-11.5098 -23.085 -25.4727 -44.3291 -33.5518 -69.0879c-6.11035 -18.7246 -52.0215 -11.043 -51.5078 3.80957z" />
    <glyph glyph-name="k" unicode="k" horiz-adv-x="320" 
d="M315.461 175.774c3.23047 12.0352 37.0771 9.58301 33.3438 -5.25195c-18.0029 -71.4756 -46.6514 -179.551 -134.303 -189.916c-73.5537 -8.69531 -104.192 58.9668 -115.439 125.021c-7.27344 -24.751 -13.4131 -49.8633 -18.958 -74.9502
c0.0214844 -7.71777 -0.339844 -15.3662 -1.32031 -22.8799c-3.36523 -25.7861 -56.1377 -25.1846 -66.4658 -5.12598c-18.6221 36.166 -20.3281 84.0127 -22.4678 123.923c-2.21289 41.2334 -3.5293 82.5947 -3.78418 123.887
c-0.4375 70.6807 0.594727 149.666 25.3789 216.824c11.7354 31.7988 36.3008 59.0508 68.7773 70.0176c29.9863 10.1279 63.4111 6.85059 85.9854 -16.4785c45.1455 -46.6582 11.8232 -125.312 -10.376 -174.963c-22.8594 -51.1279 -50.9648 -99.5 -83.1865 -145.159
c0.0761719 -4.73926 0.145508 -9.47852 0.240234 -14.2148c0.277344 -14.0547 0.708008 -28.0947 1.2002 -42.1348c4.45898 13.1104 9.29297 26.0928 14.6562 38.8857c18.8818 45.0576 46.4619 104.862 91.4941 129.376c20.6133 11.2217 48.2959 14.3682 69.6709 3.13574
c22.0059 -11.5645 27.6787 -36.1807 16.457 -57.7852c-16.0342 -30.8691 -47.7373 -55.3721 -82.1387 -68.5518c1.82617 -2.95996 2.95605 -6.27441 3.1416 -9.98242c1.64746 -33.0557 1.64355 -65.7178 7.72852 -98.4023
c4.39648 -23.6211 13.7188 -55.7988 33.5186 -71.4756c3.78027 1.68066 7.30566 3.82031 10.5508 6.45605c6.80664 5.31543 12.6504 12.2422 17.707 19.1836c9.81836 13.4746 17.792 28.5459 24.9082 43.585c14.6855 31.0254 24.8066 63.8955 33.6807 96.9775z
M78.6934 370.918c-4.06543 -34.8643 -5.73145 -69.9531 -6.22754 -105.065c16.7305 27.7695 31.9043 56.4795 45.3643 86.0068c12.0889 26.5225 23.3174 53.8652 27.9326 82.8086c2.26074 14.167 3.6748 29.4248 0.648438 43.585
c-1.82324 8.53125 -8.1084 25.7031 -17.9268 29.1377c0.00390625 -0.145508 -1.38184 -0.141602 -2.69043 -0.557617c-1.9502 -0.620117 -3.74805 -2.66895 -5.21387 -3.91992c-3.99219 -3.39746 -6.74805 -7.70996 -9.46094 -12.1396
c-7.0293 -11.4844 -11.6816 -23.8906 -15.9619 -36.6182c-9.03027 -26.8623 -13.1904 -55.1611 -16.4639 -83.2373zM141.072 212.69c12.498 3.33594 24.8838 6.67871 36.9043 12.5449c17.5176 8.5459 41.8857 20.6758 51.2695 38.584
c4.95801 9.46094 7.93262 24.7256 -1.10547 33.0488c-8.59277 7.91113 -19.9385 1.85938 -27.959 -3.66406c-15.9834 -11.0068 -27.8066 -28.6377 -38.2266 -44.6064c-7.59766 -11.6484 -14.4951 -23.6543 -20.8828 -35.9072z" />
    <glyph glyph-name="l" unicode="l" horiz-adv-x="235" 
d="M230.908 189.15c3.79492 12.4395 38.9795 9.6416 34.4883 -5.42676c-14.3721 -48.3027 -36.2207 -93.8672 -65.6562 -134.823c-25.5166 -35.502 -56.7314 -64.1211 -103.452 -58.999c-101.301 11.1016 -114.134 137.471 -114.283 217.524
c-0.174805 91.4727 11.6699 190.032 43.8477 276.062c15.7676 42.1592 42.7969 85.7842 91.293 92.4453c41.168 5.6543 74.0781 -18.251 73.3779 -61.4424c-1.03223 -63.6729 -46.9619 -124.295 -98.8809 -161.376c-9.44238 -56.0752 -14.0576 -113.376 -14.2217 -169.947
c-0.102539 -35.2549 2.71973 -70.8047 7.46289 -105.709c2.24219 -16.4863 5.80371 -32.2031 12.2822 -47.5879c2.2207 -5.26465 4.6084 -12.2314 9.32617 -15.7676c6.71875 -5.03809 13.8828 -1.55273 21.1748 2.69141c27.7988 16.1797 47.2852 51.0186 62.8125 78.1025
c17.0879 29.8008 30.417 61.417 40.4287 94.2539zM141.936 544.997c-0.510742 0.612305 -0.854492 1.0498 -0.850586 1.11914c-0.0908203 -1.11523 0.255859 -1.36328 0.850586 -1.11914zM128.803 499.206c-9.35156 -32.8301 -20.3711 -65.125 -27.9072 -98.4658
c5.60742 6.11719 10.8975 12.5449 15.7979 19.3076c19.8477 27.3867 40.9893 66.0752 36.5742 100.95c-0.820312 6.47461 -2.60352 12.5996 -6.1875 18.0391c-0.0693359 0.105469 -0.616211 0.732422 -1.32715 1.54883
c-0.313477 -0.50293 -0.630859 -1.02832 -0.952148 -1.61914c-7.0293 -12.8955 -11.9727 -25.6299 -15.998 -39.7607z" />
    <glyph glyph-name="m" unicode="m" horiz-adv-x="522" 
d="M516.544 150.13c3.64258 12.3086 38.4014 9.61328 34.1104 -5.36328c-9.3877 -32.7686 -18.8887 -65.9854 -35.251 -96.0918c-13.3984 -24.6602 -31.2959 -51.001 -59.5947 -59.4404c-27.3467 -8.15527 -63.4102 0.842773 -84.957 18.1348
c-27.0957 21.7471 -33.8623 52.0361 -33.3447 85.5479c1.07227 69.3535 17.6025 137.245 20.7598 206.441c0.666992 14.583 2.83301 29.873 1.44434 44.4668c-0.506836 5.32324 -1.29102 13.1904 -7.51465 14.1348c-5.49414 0.834961 -12.4463 -9.3291 -15.7529 -13.5615
c-19.8252 -25.3711 -31.8164 -56.9434 -41.6094 -87.2832c-21.459 -66.4766 -31.9844 -135.786 -38.9658 -205.11c-0.142578 -1.41797 -0.708008 -2.64258 -1.49219 -3.74316c-0.0185547 -0.412109 -0.0253906 -0.828125 -0.046875 -1.24023
c-2.00488 -40.7783 -103.339 -40.3994 -103.562 -0.000976562c-0.324219 58.9561 4.63379 119.162 11.5098 177.684c3.27734 27.8643 7.08691 55.6562 8.95312 83.6631c0.80957 12.1582 0.0224609 24.207 -0.334961 36.3477
c-0.138672 4.68164 2.13965 13.5371 -5.99023 11.5498c-2.95703 -0.72168 -11.543 -13.4531 -12.4219 -14.6895c-31.8643 -44.8281 -42.791 -103.153 -53.1445 -156.014c-11.3379 -57.8838 -19.7119 -116.281 -25.6182 -174.96
c-0.0507812 -0.536133 -0.166992 -1.04688 -0.30957 -1.53906c-0.15332 -1.4834 -0.338867 -2.95605 -0.579102 -4.41797c-3.39062 -20.5771 -42.7686 -21.6562 -54.5078 -8.41504c-19.3193 21.7939 -24.5439 50.6826 -29.1777 78.7148
c-4.65918 28.1963 -5.27148 57.1367 -5.12891 85.6611c0.294922 60.1152 4.86621 120.288 11.8555 179.973c3.83496 32.7754 85.1465 29.8701 81.2305 0c-6.5293 -49.79 -11.2646 -99.8936 -13.4082 -150.085c2.36621 11.7725 4.81934 23.5303 7.46973 35.2402
c6.94922 30.7158 15.1631 61.3945 28.4189 90.0684c10.6348 23.0049 26.0234 52.0283 51.001 61.8281c63.8301 25.043 90.6084 -68.7881 96.4668 -113.394c1.7832 -13.5771 3.05566 -27.2383 4.00391 -40.9355c1.38867 5.36328 2.75977 10.7266 4.26953 16.0605
c7.25488 25.6699 15.5889 51.3066 27.3389 75.3145c9.67188 19.7598 22.2129 42.9609 40.9736 55.5205c41.5947 27.8428 79.8174 -15.0967 97.5977 -49.6699c26.1035 -50.7529 24.7471 -112.181 23.4639 -167.677c-0.674805 -29.3047 -0.918945 -58.2158 0.277344 -87.5127
c0.506836 -12.4502 -0.710938 -24.3936 0.517578 -36.873c0.510742 -5.16992 1.66992 -10.376 1.69141 -15.5488c5.70898 4.35645 22.6982 24.1787 23.8652 25.8809c7.33203 10.7148 13.3838 22.3848 18.7324 34.1895c11.2549 24.8418 19.0352 51.0479 26.7607 77.1445z" />
    <glyph glyph-name="n" unicode="n" horiz-adv-x="363" 
d="M358.125 165.129c2.61426 13.3652 35.6895 11.8164 33.374 -0.00683594c-7.57227 -38.7109 -14.7832 -77.79 -28.4658 -114.915c-10.1865 -27.6387 -22.7422 -61.1689 -54.2451 -69.0762c-34.4668 -8.65137 -68.8682 4.99805 -90.7686 31.9844
c-23.2676 28.6738 -26.5156 63.1045 -27.3145 98.8037c-0.849609 37.916 0.521484 75.7188 3.25977 113.536c2.61035 36.082 8.08984 72.1934 10.1348 108.214c0.488281 8.57129 0.637695 17.2588 -3.1543 25.0137c-0.273438 0.557617 -0.4375 1.02441 -0.532227 1.42578
c-0.302734 -0.30957 -0.704102 -0.648438 -1.25098 -1.02051c-3.39453 -2.30078 -6.17578 -5.2207 -8.96094 -8.19922c-10.2812 -10.999 -17.7656 -24.1562 -24.7871 -37.3828c-16.541 -31.1602 -29.9316 -63.9248 -42.083 -97.0098
c-25.2725 -68.8027 -46.0352 -139.359 -63.7139 -210.474c-0.0693359 -0.273438 -0.174805 -0.52832 -0.273438 -0.787109c0.00390625 -0.612305 0.0224609 -1.22461 0.0224609 -1.83691c-0.0732422 -27.8135 -64.0596 -25.8809 -68.8721 0
c-10.5908 56.9609 -7.7832 119.285 -4.64746 176.892c1.5752 28.8887 4.21094 57.7197 7.89648 86.415c3.81738 29.709 11.043 59.2109 13.7734 88.9863c2.98242 32.5459 83.6123 26.8262 73.123 -5.63965c-9.25977 -28.6523 -12.2461 -60.4219 -16.0117 -90.2334
c-3.48145 -27.5615 -5.98242 -55.251 -7.51758 -82.9912c-0.736328 -13.2998 -1.21387 -26.6143 -1.49414 -39.9326c10.7402 35.167 22.5928 69.9873 35.8018 104.305c12.2754 31.8965 25.7354 64.0264 43.3408 93.4043c14.1562 23.6172 33.7559 48.208 63.2432 50.3555
c28.9141 2.10352 48.5938 -20.9854 61.5215 -44.3252c17.8389 -32.207 24.4746 -68.4092 28.7256 -104.542c8.20312 -69.7109 2.85449 -140.657 12.1553 -210.255c0.456055 -3.39453 3.57715 -10.4053 5.00293 -15.8262c1.97266 1.97266 4.34961 4.01074 5.4541 5.69922
c8.52734 13.0049 14.4883 28.3467 19.9023 42.8457c12.8584 34.4492 20.3213 70.5791 27.3613 106.573z" />
    <glyph glyph-name="o" unicode="o" horiz-adv-x="321" 
d="M308.926 176.412c8.83691 16.3584 52.2217 6.35938 42.9541 -6.74707c-28.8818 -40.8545 -85.752 -64.0996 -135.178 -72.1162c-0.59082 -2.40625 -1.18164 -4.81641 -1.8125 -7.20801c-11.3965 -43.2354 -30.6064 -94.5605 -73.2842 -115.849
c-48.416 -24.1494 -107.484 3.43848 -135.546 45.1133c-30.4424 45.2109 -29.8477 105.392 -28.6514 157.708c0.426758 18.5859 25.8379 26.9492 49.1855 25.542c-20.7666 67.8691 -9.9209 152.622 42.1074 196.954c34.6348 29.5127 85.7559 28.6924 116.69 -6.14258
c33.0303 -37.1973 42.3271 -94.4863 44.7227 -142.425c2.12207 -42.5352 -0.0908203 -86.0439 -7.92188 -128.171c32.3633 8.24316 71.1182 24.4336 86.7334 53.3408zM149.562 28.0381c11.6846 20.7812 20.5449 43.2256 27.1367 66.5547
c-40.4463 0.794922 -84.5312 12.9316 -112.654 41.1025c0.0439453 -31.835 2.70898 -63.4658 13.5439 -93.8682c5.53027 -15.5273 14.8193 -36.3232 30.875 -43.5234c18.874 -8.46191 33.2236 15.7275 41.0986 29.7344zM182.32 117.27
c10.252 47.2637 12.1064 97.0723 9.17188 143.56c-2.45312 38.915 -9.84668 81.9609 -32.2539 114.85c-13.0303 19.126 -32.4219 32.5166 -53.8994 17.6523c-14.2627 -9.86914 -24.3867 -24.6348 -32.0869 -39.9434c-16.5557 -32.918 -21.3975 -70.582 -15.7031 -106.828
c5.95312 -37.8867 22.8145 -67.5957 48.2178 -95.6465c21.207 -23.417 47.4639 -33.7422 76.5537 -33.6436z" />
    <glyph glyph-name="o" unicode="&#xf6;" horiz-adv-x="321" 
d="M308.926 176.412c8.83691 16.3584 52.2217 6.35938 42.9541 -6.74707c-28.8818 -40.8545 -85.752 -64.0996 -135.178 -72.1162c-0.59082 -2.40625 -1.18164 -4.81641 -1.8125 -7.20801c-11.3965 -43.2354 -30.6064 -94.5605 -73.2842 -115.849
c-48.416 -24.1494 -107.484 3.43848 -135.546 45.1133c-30.4424 45.2109 -29.8477 105.392 -28.6514 157.708c0.426758 18.5859 25.8379 26.9492 49.1855 25.542c-20.7666 67.8691 -9.9209 152.622 42.1074 196.954c34.6348 29.5127 85.7559 28.6924 116.69 -6.14258
c33.0303 -37.1973 42.3271 -94.4863 44.7227 -142.425c2.12207 -42.5352 -0.0908203 -86.0439 -7.92188 -128.171c32.3633 8.24316 71.1182 24.4336 86.7334 53.3408zM149.562 28.0381c11.6846 20.7812 20.5449 43.2256 27.1367 66.5547
c-40.4463 0.794922 -84.5312 12.9316 -112.654 41.1025c0.0439453 -31.835 2.70898 -63.4658 13.5439 -93.8682c5.53027 -15.5273 14.8193 -36.3232 30.875 -43.5234c18.874 -8.46191 33.2236 15.7275 41.0986 29.7344zM182.32 117.27
c10.252 47.2637 12.1064 97.0723 9.17188 143.56c-2.45312 38.915 -9.84668 81.9609 -32.2539 114.85c-13.0303 19.126 -32.4219 32.5166 -53.8994 17.6523c-14.2627 -9.86914 -24.3867 -24.6348 -32.0869 -39.9434c-16.5557 -32.918 -21.3975 -70.582 -15.7031 -106.828
c5.95312 -37.8867 22.8145 -67.5957 48.2178 -95.6465c21.207 -23.417 47.4639 -33.7422 76.5537 -33.6436z" />
    <glyph glyph-name="o" unicode="&#xf5;" horiz-adv-x="321" 
d="M308.926 176.412c8.83691 16.3584 52.2217 6.35938 42.9541 -6.74707c-28.8818 -40.8545 -85.752 -64.0996 -135.178 -72.1162c-0.59082 -2.40625 -1.18164 -4.81641 -1.8125 -7.20801c-11.3965 -43.2354 -30.6064 -94.5605 -73.2842 -115.849
c-48.416 -24.1494 -107.484 3.43848 -135.546 45.1133c-30.4424 45.2109 -29.8477 105.392 -28.6514 157.708c0.426758 18.5859 25.8379 26.9492 49.1855 25.542c-20.7666 67.8691 -9.9209 152.622 42.1074 196.954c34.6348 29.5127 85.7559 28.6924 116.69 -6.14258
c33.0303 -37.1973 42.3271 -94.4863 44.7227 -142.425c2.12207 -42.5352 -0.0908203 -86.0439 -7.92188 -128.171c32.3633 8.24316 71.1182 24.4336 86.7334 53.3408zM149.562 28.0381c11.6846 20.7812 20.5449 43.2256 27.1367 66.5547
c-40.4463 0.794922 -84.5312 12.9316 -112.654 41.1025c0.0439453 -31.835 2.70898 -63.4658 13.5439 -93.8682c5.53027 -15.5273 14.8193 -36.3232 30.875 -43.5234c18.874 -8.46191 33.2236 15.7275 41.0986 29.7344zM182.32 117.27
c10.252 47.2637 12.1064 97.0723 9.17188 143.56c-2.45312 38.915 -9.84668 81.9609 -32.2539 114.85c-13.0303 19.126 -32.4219 32.5166 -53.8994 17.6523c-14.2627 -9.86914 -24.3867 -24.6348 -32.0869 -39.9434c-16.5557 -32.918 -21.3975 -70.582 -15.7031 -106.828
c5.95312 -37.8867 22.8145 -67.5957 48.2178 -95.6465c21.207 -23.417 47.4639 -33.7422 76.5537 -33.6436z" />
    <glyph glyph-name="o" unicode="&#xf4;" horiz-adv-x="321" 
d="M308.926 176.412c8.83691 16.3584 52.2217 6.35938 42.9541 -6.74707c-28.8818 -40.8545 -85.752 -64.0996 -135.178 -72.1162c-0.59082 -2.40625 -1.18164 -4.81641 -1.8125 -7.20801c-11.3965 -43.2354 -30.6064 -94.5605 -73.2842 -115.849
c-48.416 -24.1494 -107.484 3.43848 -135.546 45.1133c-30.4424 45.2109 -29.8477 105.392 -28.6514 157.708c0.426758 18.5859 25.8379 26.9492 49.1855 25.542c-20.7666 67.8691 -9.9209 152.622 42.1074 196.954c34.6348 29.5127 85.7559 28.6924 116.69 -6.14258
c33.0303 -37.1973 42.3271 -94.4863 44.7227 -142.425c2.12207 -42.5352 -0.0908203 -86.0439 -7.92188 -128.171c32.3633 8.24316 71.1182 24.4336 86.7334 53.3408zM149.562 28.0381c11.6846 20.7812 20.5449 43.2256 27.1367 66.5547
c-40.4463 0.794922 -84.5312 12.9316 -112.654 41.1025c0.0439453 -31.835 2.70898 -63.4658 13.5439 -93.8682c5.53027 -15.5273 14.8193 -36.3232 30.875 -43.5234c18.874 -8.46191 33.2236 15.7275 41.0986 29.7344zM182.32 117.27
c10.252 47.2637 12.1064 97.0723 9.17188 143.56c-2.45312 38.915 -9.84668 81.9609 -32.2539 114.85c-13.0303 19.126 -32.4219 32.5166 -53.8994 17.6523c-14.2627 -9.86914 -24.3867 -24.6348 -32.0869 -39.9434c-16.5557 -32.918 -21.3975 -70.582 -15.7031 -106.828
c5.95312 -37.8867 22.8145 -67.5957 48.2178 -95.6465c21.207 -23.417 47.4639 -33.7422 76.5537 -33.6436z" />
    <glyph glyph-name="o" unicode="&#xf3;" horiz-adv-x="321" 
d="M308.926 176.412c8.83691 16.3584 52.2217 6.35938 42.9541 -6.74707c-28.8818 -40.8545 -85.752 -64.0996 -135.178 -72.1162c-0.59082 -2.40625 -1.18164 -4.81641 -1.8125 -7.20801c-11.3965 -43.2354 -30.6064 -94.5605 -73.2842 -115.849
c-48.416 -24.1494 -107.484 3.43848 -135.546 45.1133c-30.4424 45.2109 -29.8477 105.392 -28.6514 157.708c0.426758 18.5859 25.8379 26.9492 49.1855 25.542c-20.7666 67.8691 -9.9209 152.622 42.1074 196.954c34.6348 29.5127 85.7559 28.6924 116.69 -6.14258
c33.0303 -37.1973 42.3271 -94.4863 44.7227 -142.425c2.12207 -42.5352 -0.0908203 -86.0439 -7.92188 -128.171c32.3633 8.24316 71.1182 24.4336 86.7334 53.3408zM149.562 28.0381c11.6846 20.7812 20.5449 43.2256 27.1367 66.5547
c-40.4463 0.794922 -84.5312 12.9316 -112.654 41.1025c0.0439453 -31.835 2.70898 -63.4658 13.5439 -93.8682c5.53027 -15.5273 14.8193 -36.3232 30.875 -43.5234c18.874 -8.46191 33.2236 15.7275 41.0986 29.7344zM182.32 117.27
c10.252 47.2637 12.1064 97.0723 9.17188 143.56c-2.45312 38.915 -9.84668 81.9609 -32.2539 114.85c-13.0303 19.126 -32.4219 32.5166 -53.8994 17.6523c-14.2627 -9.86914 -24.3867 -24.6348 -32.0869 -39.9434c-16.5557 -32.918 -21.3975 -70.582 -15.7031 -106.828
c5.95312 -37.8867 22.8145 -67.5957 48.2178 -95.6465c21.207 -23.417 47.4639 -33.7422 76.5537 -33.6436z" />
    <glyph glyph-name="p" unicode="p" horiz-adv-x="361" 
d="M390.271 185.111c5.76758 -4.01074 6.79102 -10.2832 0.00976562 -14.0859c-25.6152 -14.3682 -53.1738 -22.3125 -81.3447 -28.3721c-4.18164 -23.9932 -10.0254 -47.7676 -16.876 -71.2861c-7.01855 -24.0947 -17.8721 -49.1523 -36.9795 -66.3018
c-21.9551 -19.7051 -55.0732 -28.1123 -83.9219 -27.5693c-24.2666 0.456055 -50.8037 9.85156 -64.5703 30.9609c-2.78516 4.27246 -4.71387 8.66895 -5.98633 13.1533c-10.9414 -77.3525 -17.8242 -155.223 -24.2549 -233.074
c0 -12.9824 -0.418945 -25.9102 -1.5127 -38.7471c-2.09961 -24.627 -62.4805 -28.251 -68.4229 -5.2793c-13.6572 52.7793 -15.0137 109.161 -18.0615 163.392c-2.95996 52.6992 -3.47754 105.643 -3.32812 158.415c0.149414 54.0156 1.56055 108.027 4.24023 161.978
c2.67188 53.793 4.62988 108.439 13.7002 161.587c5.2793 30.9521 82.0303 32.2314 81.2314 -0.000976562c-1.33789 -53.9102 -7.68848 -107.718 -10.5615 -161.588c-2.81445 -52.7471 -4.41895 -105.56 -4.80859 -158.379
c-0.0439453 -6.14648 0.00683594 -12.29 0.00683594 -18.4365c6.14355 38.7285 13.3945 77.2822 22.2832 115.545c12.4756 53.7061 25.1592 111.28 50.2422 160.746c19.6689 38.791 58.792 75.5771 104.998 52.7842c20.8467 -10.2852 34.3545 -32.499 45.0439 -52.3105
c13.9268 -25.8154 20.8389 -53.6943 23.1943 -82.7949c2.19434 -27.1357 1.08594 -54.0449 -2.31934 -80.6914c18.4365 4.72461 36.3848 10.9365 53.2646 20.3574c6.65332 3.71094 18.2217 4.52734 24.7334 -0.000976562zM158.298 23.1289
c2.61719 -2.97461 2.83984 -0.237305 0 0zM177.573 44.6348c15.1045 21.9873 23.9482 49.334 31.1309 76.4658c-31.4521 -10.0254 -61.9707 -26.9385 -66.5312 -58.4961c-1.46191 -10.1279 2.29688 -21.3242 7.91895 -29.8154
c1.96191 -2.95996 4.97656 -5.15137 6.91602 -7.99121c0.116211 -0.167969 0.214844 -0.291992 0.324219 -0.445312c1.96094 1.15234 4.31934 2.46484 4.66211 2.75293c5.78613 4.88574 11.3281 11.3428 15.5791 17.5293zM241.449 306.765
c0.80957 10.6387 2.91113 23.1484 0.504883 33.71c-2.23828 9.80664 -12.9717 25.166 -24.0586 25.7383c-18.7285 0.96582 -34.6025 -30.4277 -41.4932 -43.9424c-20.2305 -39.6846 -31.8164 -84.8779 -42.7393 -127.843
c-9.65039 -37.9668 -17.4707 -76.3818 -24.0771 -114.994c19.457 37.209 64.8828 55.5107 103.739 65.2305c0.481445 0.120117 0.969727 0.222656 1.45117 0.342773c1.60059 6.41992 3.17969 12.7451 4.80566 18.8662c12.5703 47.3438 18.1699 94.1445 21.8672 142.892z" />
    <glyph glyph-name="q" unicode="q" horiz-adv-x="404" 
d="M430.208 186.675c6.57715 -4.21484 6.15527 -9.82129 0.0117188 -14.0938c-6.83984 -4.75391 -17.7148 -3.44531 -24.7334 0c-24.0293 11.8047 -50.1436 16.7451 -76.8047 14.4229c-11.2217 -0.977539 -22.8301 -2.80762 -33.9531 -5.71289
c-0.244141 -1.9248 -0.496094 -3.8457 -0.736328 -5.77051c41.1895 -21.5322 71.0596 -64.877 83.8965 -109.614c15.6807 -54.6426 23.2598 -139.345 -20.1104 -184.261c-47.9932 -49.7031 -124.744 -28.3867 -155.559 28.5605
c-32.1924 59.4951 -19.8955 137.037 -14.2373 201.29c0.776367 8.82324 1.54199 17.6787 2.30762 26.5527c-3.62793 -13.6973 -7.36133 -27.3652 -11.3936 -40.9453c-9.1582 -30.8359 -17.6094 -66.502 -44.8613 -86.6885
c-25.6221 -18.9766 -56.9102 -22.1738 -86.9727 -12.3926c-73.5645 23.9385 -74.6943 117.813 -64.4463 181.545c10.5869 65.8643 43.1982 133.584 102.985 168.2c35.335 20.46 90.1523 23.8613 129.144 4.52441c2.03418 0.149414 4.09766 0.116211 6.08105 -0.117188
c9.38379 12.7275 28.5459 16.7783 44.332 16.7783c14.7539 0 51.4629 -6.5293 49.3887 -28.1523c-4.32422 -45.1094 -10.7119 -90.0293 -16.6621 -135.011c12.3662 2.22363 24.8457 3.68945 37.4531 4.08301c33.0234 1.03516 66.8086 -5.21777 94.8701 -23.1982z
M150.48 129.893c16.3838 56.2285 33.543 113.925 43.4922 172.118c-12.7676 13.1104 -28.6592 25.2617 -43.6582 14.8818c-22.3008 -15.4326 -37.9121 -40.709 -50.1943 -64.2354c-28.5137 -54.6211 -39.7969 -130.209 -23.6895 -190.167
c3.31445 -12.3486 8.44727 -25.6924 16.9824 -35.499c8.10059 -9.30371 11.8193 -2.93066 20.1357 7.36133c20.5439 25.418 28.0215 64.9561 36.9316 95.54zM321.039 104.731c-8.06055 14.1963 -18.2158 27.0234 -30.5098 37.793
c-0.138672 0.120117 -0.28125 0.229492 -0.419922 0.349609c-1.02441 -9.25293 -1.9873 -18.5127 -2.85547 -27.7842c-5.84082 -62.3242 -21.8672 -136.851 1.10449 -197.283c3.59863 -9.46777 8.88867 -24.6084 17.2334 -31.0107
c11.1963 -8.58984 24.2188 13.252 28.8379 22.1289c15.9688 30.6865 16.8291 70.0244 13.6934 103.711c-2.97852 32.0244 -11.1191 63.9834 -27.084 92.0957z" />
    <glyph glyph-name="r" unicode="r" horiz-adv-x="264" 
d="M258.155 175.038c4.35645 12.5127 39.8633 9.50098 34.8682 -5.4834c-14.335 -43.0566 -29.9531 -85.8105 -50.6572 -126.271c-16.9961 -33.2168 -35.7715 -60.8193 -76.1406 -62.7549c-44.4678 -2.13281 -74.5127 31.0215 -85.541 71.5439
c-10.3975 38.2109 -4.20312 77.8145 -1.00195 116.744c-11.3125 -3.01172 -23.2598 -4.36426 -35.5205 -5.50195c-31.2949 -2.90234 -65.4082 4.43262 -85.3721 30.3398c-32.6699 42.3965 -31.0771 115.596 -6.71973 161.237c20.7002 38.791 78.8867 83.3418 125.597 68.376
c52.2871 -16.752 38.2002 -86.0146 27.8389 -125.797c-9.94238 -38.1709 -30.3838 -73.9502 -61.6025 -97.502c0.65625 -0.918945 1.24316 -1.88184 1.9541 -2.76074c2.89453 -3.58789 9.35156 -9.64355 11.623 -10.1904c6.55469 -1.5791 19.9561 4.92871 26.6602 10.4121
c1.47656 1.20703 3.15332 2.17285 4.93652 2.95312c22.2793 18.3057 81.7275 12.4219 80.1309 -15.3584c-2.01953 -35.1523 -8.70215 -70.3086 -8.15527 -105.566c0.229492 -14.835 1.15527 -29.877 3.76953 -44.5c1.2832 -7.19336 3.09863 -13.8506 5.56348 -20.7305
c0.660156 -1.83789 2.77148 -5.42188 3.80664 -8.14844c0.378906 0.109375 0.710938 0.214844 1.13379 0.331055c3.36523 2.4209 6.40234 5.19922 9.10742 8.33496c5.2832 5.9248 9.22754 12.8594 13.165 19.7021c8.85547 15.3965 16.7666 31.3535 24.1387 47.5039
c13.8467 30.3359 25.4512 61.6133 36.418 93.0869zM31.6699 228.882c19.4941 21.3496 32.0459 49.5117 38.9072 77.2598c5.38086 21.7686 10.5469 47.5547 7.30176 70.0166c-1.11914 7.75781 -6.70117 27.8789 -17.9922 26.373
c-7.78711 -1.03516 -14.8711 -15.7061 -16.792 -21.9873c-5.80762 -18.9912 -8.30859 -40.8662 -11.6553 -60.5059c-3.9082 -22.9248 -5.49023 -45.3096 -3.28418 -68.5479c0.696289 -7.34668 1.76855 -15.0469 3.51465 -22.6084z" />
    <glyph glyph-name="s" unicode="s" horiz-adv-x="255" 
d="M253.426 192.315c9.20215 8.19922 44.0889 2.2168 31.2373 -10.4082c-26.2129 -25.7539 -63.0391 -38.8682 -95.8545 -53.958c-8.84473 -4.06836 -17.8096 -8.19922 -26.7158 -12.5303c15.7275 -31.5322 23.7334 -65.0801 10.9551 -103.058
c-5.35547 -15.9248 -12.7568 -32.4365 -19.9648 -47.5664c-5.76074 -12.0967 -15.2432 -22.6982 -27.0625 -29.1289c-25.582 -13.916 -59.1777 -8.76465 -80.8994 9.95312c-49.918 43.0195 -17.0039 111.181 24.9219 145.611
c-20.7627 28.4043 -44.0918 55.3213 -63.7607 84.1484c-36.418 53.3809 -49.4629 133.952 7.63379 179.232c34.4014 27.2812 134.007 48.2002 139.552 -18.3389c1.14844 -13.8135 -33.625 -13.8643 -35.7764 0.000976562c-1.42871 9.23438 -9.08496 22.7891 -20.832 19.0518
c-5.14746 -1.63672 -8.14453 -7.38965 -10.7334 -11.6152c-7.71094 -12.5811 -13.1211 -26.4609 -13.9707 -41.2588c-2.13672 -37.1465 18.7422 -74.585 38.1084 -104.896c12.5781 -19.6836 26.8945 -39.3018 39.2285 -59.5361
c3.9707 1.86328 7.95215 3.70801 11.9404 5.53418c30.5146 13.9814 66.6406 26.1729 91.9932 48.7617zM101.357 -46.6611c16.752 8.95801 20.9883 30.6934 16.3623 47.1143c-6.63867 23.5557 -17.3574 44.8398 -30.0811 64.9932
c-20.54 -21.8232 -35.5391 -52.8418 -25.5898 -82.7812c4.97266 -14.9619 20.9043 -39.1699 39.3086 -29.3262z" />
    <glyph glyph-name="t" unicode="t" horiz-adv-x="223" 
d="M214.811 180.27c4.69531 13.3652 42.6914 10.0059 37.1865 -5.83887c-18.4619 -53.1299 -37.0518 -119.534 -79.5869 -159.091c-35.5752 -33.082 -93.3057 -33.4102 -131.845 -5.34863c-44.7588 32.5898 -51.8428 101.502 -55.1309 152.459
c-3.7334 57.9238 -0.197266 116.683 2.04102 174.625c1.04297 27.0078 2.25293 54.0596 3.87891 81.0889c-9.82129 -0.649414 -19.6465 -1.30176 -29.4717 -1.95117c-5.6582 -0.37207 -17.8857 2.55957 -17.8857 10.1973c0 8.19922 11.9873 9.79199 17.8857 10.1963
c10.2666 0.707031 20.5371 1.41406 30.8076 2.12109c1.87012 27.001 4.23242 53.9609 7.44824 80.7979c4.50977 37.624 98.1621 35.8193 94.79 0c-2.33008 -24.7363 -4.50977 -49.4658 -6.48242 -74.2021c14.5908 1.00586 29.1846 2.00879 43.7754 3.01465
c5.78613 0.397461 18.2871 -2.62891 18.2871 -10.4238c0 -8.36719 -12.2568 -10.0225 -18.2871 -10.4238c-15.126 -1.00293 -30.252 -2.00195 -45.375 -3.00488c-2.61426 -35.0615 -4.77637 -70.1523 -6.25977 -105.338
c-2.61035 -61.9375 -6.95996 -125.067 -2.71289 -186.998c2.00488 -29.2686 4.38184 -59.8604 15.4434 -87.3242c4.09766 -10.1787 8.88477 -19.96 16.6396 -27.7578c7.13477 -7.17871 15.0537 -1.42578 24.2158 5.69824c22.7607 17.7002 36.4873 47.8105 48.2051 73.4033
c12.5156 27.3398 22.4756 55.7549 32.4326 84.1006z" />
    <glyph glyph-name="u" unicode="u" horiz-adv-x="378" 
d="M373.446 189.078c4.05762 11.9688 37.9678 9.16016 33.3486 -5.24023c-16.5586 -51.5508 -31.8379 -113.332 -67.041 -155.856c-33.0674 -39.9463 -98.7061 -40.7158 -130.945 0.583008c-16.8291 21.5576 -21.0322 47.3877 -23.4385 73.9941
c-1.27246 14.04 -2.04492 28.0547 -2.49316 42.0762c-7.37207 -25.4551 -15.5674 -50.9424 -26.3154 -74.9092c-10.8496 -24.2002 -28.8418 -49.0098 -55.8682 -55.8926c-31.7842 -8.09766 -67.6113 5.66113 -86.5332 32.0928
c-19.4395 27.1504 -26.4033 63.3564 -29.9795 95.9863c-8.15234 74.3594 8.90234 149.455 12.585 223.599c1.70605 34.3252 88.0664 32.8232 86.0176 0c-3.81348 -61.0889 -15.5459 -121.547 -16.665 -182.821c-0.52832 -29.126 0.685547 -59.0029 6.57324 -87.5967
c2.31152 -11.2285 4.81641 -22.8369 9.6543 -33.2822c2.14355 -4.62695 5.00195 -11.6855 9.16504 -14.9268c5.94238 -4.62305 2.67578 -3.38672 7.59375 0.0478516c18.6953 13.0596 27.5215 50.334 34.6709 70.4912c9.97461 28.127 18.4287 56.7754 25.9316 85.6533
c13.1689 50.7051 22.9326 102.209 31.2119 153.924c1.15234 10.2305 2.62891 20.3945 4.74707 30.4131c7.26562 34.3867 90.6406 37.7666 92.3975 0c2.39844 -51.624 -6.47852 -105.002 -9.90527 -156.567c-3.19727 -48.0732 -6.60254 -97.1562 -5.69824 -145.342
c0.361328 -19.2061 1.06543 -39.75 10.5771 -56.9619c5.2832 -9.55957 7.82422 -5.75293 16.3809 1.80078c8.88867 7.8457 15.4326 17.9551 21.3135 28.1377c23.293 40.3291 37.8252 86.6699 52.7148 130.598z" />
    <glyph glyph-name="u" unicode="&#xfc;" horiz-adv-x="378" 
d="M373.446 189.078c4.05762 11.9688 37.9678 9.16016 33.3486 -5.24023c-16.5586 -51.5508 -31.8379 -113.332 -67.041 -155.856c-33.0674 -39.9463 -98.7061 -40.7158 -130.945 0.583008c-16.8291 21.5576 -21.0322 47.3877 -23.4385 73.9941
c-1.27246 14.04 -2.04492 28.0547 -2.49316 42.0762c-7.37207 -25.4551 -15.5674 -50.9424 -26.3154 -74.9092c-10.8496 -24.2002 -28.8418 -49.0098 -55.8682 -55.8926c-31.7842 -8.09766 -67.6113 5.66113 -86.5332 32.0928
c-19.4395 27.1504 -26.4033 63.3564 -29.9795 95.9863c-8.15234 74.3594 8.90234 149.455 12.585 223.599c1.70605 34.3252 88.0664 32.8232 86.0176 0c-3.81348 -61.0889 -15.5459 -121.547 -16.665 -182.821c-0.52832 -29.126 0.685547 -59.0029 6.57324 -87.5967
c2.31152 -11.2285 4.81641 -22.8369 9.6543 -33.2822c2.14355 -4.62695 5.00195 -11.6855 9.16504 -14.9268c5.94238 -4.62305 2.67578 -3.38672 7.59375 0.0478516c18.6953 13.0596 27.5215 50.334 34.6709 70.4912c9.97461 28.127 18.4287 56.7754 25.9316 85.6533
c13.1689 50.7051 22.9326 102.209 31.2119 153.924c1.15234 10.2305 2.62891 20.3945 4.74707 30.4131c7.26562 34.3867 90.6406 37.7666 92.3975 0c2.39844 -51.624 -6.47852 -105.002 -9.90527 -156.567c-3.19727 -48.0732 -6.60254 -97.1562 -5.69824 -145.342
c0.361328 -19.2061 1.06543 -39.75 10.5771 -56.9619c5.2832 -9.55957 7.82422 -5.75293 16.3809 1.80078c8.88867 7.8457 15.4326 17.9551 21.3135 28.1377c23.293 40.3291 37.8252 86.6699 52.7148 130.598z" />
    <glyph glyph-name="u" unicode="&#xfb;" horiz-adv-x="378" 
d="M373.446 189.078c4.05762 11.9688 37.9678 9.16016 33.3486 -5.24023c-16.5586 -51.5508 -31.8379 -113.332 -67.041 -155.856c-33.0674 -39.9463 -98.7061 -40.7158 -130.945 0.583008c-16.8291 21.5576 -21.0322 47.3877 -23.4385 73.9941
c-1.27246 14.04 -2.04492 28.0547 -2.49316 42.0762c-7.37207 -25.4551 -15.5674 -50.9424 -26.3154 -74.9092c-10.8496 -24.2002 -28.8418 -49.0098 -55.8682 -55.8926c-31.7842 -8.09766 -67.6113 5.66113 -86.5332 32.0928
c-19.4395 27.1504 -26.4033 63.3564 -29.9795 95.9863c-8.15234 74.3594 8.90234 149.455 12.585 223.599c1.70605 34.3252 88.0664 32.8232 86.0176 0c-3.81348 -61.0889 -15.5459 -121.547 -16.665 -182.821c-0.52832 -29.126 0.685547 -59.0029 6.57324 -87.5967
c2.31152 -11.2285 4.81641 -22.8369 9.6543 -33.2822c2.14355 -4.62695 5.00195 -11.6855 9.16504 -14.9268c5.94238 -4.62305 2.67578 -3.38672 7.59375 0.0478516c18.6953 13.0596 27.5215 50.334 34.6709 70.4912c9.97461 28.127 18.4287 56.7754 25.9316 85.6533
c13.1689 50.7051 22.9326 102.209 31.2119 153.924c1.15234 10.2305 2.62891 20.3945 4.74707 30.4131c7.26562 34.3867 90.6406 37.7666 92.3975 0c2.39844 -51.624 -6.47852 -105.002 -9.90527 -156.567c-3.19727 -48.0732 -6.60254 -97.1562 -5.69824 -145.342
c0.361328 -19.2061 1.06543 -39.75 10.5771 -56.9619c5.2832 -9.55957 7.82422 -5.75293 16.3809 1.80078c8.88867 7.8457 15.4326 17.9551 21.3135 28.1377c23.293 40.3291 37.8252 86.6699 52.7148 130.598z" />
    </font>
</defs>
</svg>
